<svg xmlns="http://www.w3.org/2000/svg" width="32" height="32" viewBox="0 0 32 32"><g transform="translate(0 0.05)"><g transform="translate(0 -0.05)"><rect width="32" height="32" fill="none"/></g><g transform="translate(2.662 2.669)"><path d="M25.957,5.993H24.626V2H21.964V8.655H20.633V5.993H11.317V2H8.655V8.655H7.324V5.993H4.662A2.665,2.665,0,0,0,2,8.655v17.3a2.665,2.665,0,0,0,2.662,2.662h21.3a2.665,2.665,0,0,0,2.662-2.662V8.655A2.665,2.665,0,0,0,25.957,5.993Zm0,19.964H4.662V11.317h21.3Z" transform="translate(-2 -2)" fill="#018cf9"/></g></g></svg>