<svg xmlns="http://www.w3.org/2000/svg" xmlns:xlink="http://www.w3.org/1999/xlink" width="35.333" height="35.481" viewBox="0 0 35.333 35.481"><defs><clipPath id="a"><path d="M0,0H35.333V-35.481H0Z" fill="none"/></clipPath></defs><g transform="translate(0 35.481)"><g clip-path="url(#a)"><g transform="translate(12.966 -22.973)"><path d="M0,0A.369.369,0,0,1-.153-.5a.377.377,0,0,1,.1-.119A6.665,6.665,0,0,0,1.089-9.951,6.608,6.608,0,0,0-8.21-11.1,6.665,6.665,0,0,0-9.354-1.765,6.605,6.605,0,0,0-8.21-.618a.368.368,0,0,1,.147.324A.37.37,0,0,1-8.256,0a8.874,8.874,0,0,0-4.71,7.826V13a1.475,1.475,0,0,0,1.472,1.478h1.651a.737.737,0,0,1,.736.676l.558,6.8a1.1,1.1,0,0,0,1.1,1.017H-.82a1.1,1.1,0,0,0,1.1-1.017l.565-6.8a.739.739,0,0,1,.737-.677H3.229A1.474,1.474,0,0,0,4.7,13.005V7.833A8.871,8.871,0,0,0,0,0M-7.666-6.849A.368.368,0,0,1-7.211-7.1a.385.385,0,0,1,.086.037A8.751,8.751,0,0,0-2.66-5.841,8.467,8.467,0,0,0-.914-6.026.377.377,0,0,1-.6-5.945a.369.369,0,0,1,.128.3A3.678,3.678,0,0,1-4.3-2.13,3.681,3.681,0,0,1-7.81-5.977a3.688,3.688,0,0,1,.144-.872M1.756,10.782a.737.737,0,0,1-.736.739h-10.3a.737.737,0,0,1-.736-.739V7.827A5.9,5.9,0,0,1-6.095,2.279a.356.356,0,0,1,.334.045.37.37,0,0,1,.156.3v5.2A1.475,1.475,0,0,0-4.132,9.3,1.475,1.475,0,0,0-2.66,7.821v-5.2a.37.37,0,0,1,.156-.3.361.361,0,0,1,.335-.046A5.9,5.9,0,0,1,1.756,7.827Z" fill="#008eff"/></g><g transform="translate(30.916 -35.464)"><path d="M0,0H-12.514a1.475,1.475,0,0,0-1.472,1.478,1.474,1.474,0,0,0,1.472,1.477H0A1.475,1.475,0,0,1,1.472,4.433V23.642A1.475,1.475,0,0,1,0,25.12H-8.833A1.475,1.475,0,0,0-10.305,26.6a1.474,1.474,0,0,0,1.472,1.477H0a4.425,4.425,0,0,0,4.417-4.433V4.433A4.425,4.425,0,0,0,0,0" fill="#008eff"/></g></g></g></svg>