<svg xmlns="http://www.w3.org/2000/svg" xmlns:xlink="http://www.w3.org/1999/xlink" viewBox="0 0 92 92"><defs><style>.cls-1{fill:#008fff;}.cls-2{fill:url(#Naamloos_verloop_9);}.cls-3{fill:none;}</style><linearGradient id="Naamloos_verloop_9" x1="29.81" y1="68.23" x2="56.63" y2="68.23" gradientUnits="userSpaceOnUse"><stop offset="0" stop-color="#008fff" stop-opacity="0"/><stop offset="0.01" stop-color="#008efe" stop-opacity="0.02"/><stop offset="0.01" stop-color="#008efe" stop-opacity="0.03"/><stop offset="0.07" stop-color="#008efd" stop-opacity="0.21"/><stop offset="0.14" stop-color="#008dfc" stop-opacity="0.38"/><stop offset="0.21" stop-color="#018dfb" stop-opacity="0.52"/><stop offset="0.28" stop-color="#018dfa" stop-opacity="0.64"/><stop offset="0.36" stop-color="#018cfa" stop-opacity="0.73"/><stop offset="0.45" stop-color="#018cfa" stop-opacity="0.81"/><stop offset="0.56" stop-color="#018cf9" stop-opacity="0.86"/><stop offset="0.71" stop-color="#018cf9" stop-opacity="0.89"/><stop offset="1" stop-color="#018cf9" stop-opacity="0.9"/></linearGradient></defs><g id="Laag_2" data-name="Laag 2"><g id="Laag_1-2" data-name="Laag 1"><g id="New_Symbol_41" data-name="New Symbol 41"><g id="New_Symbol_2" data-name="New Symbol 2"><path class="cls-1" d="M77.29,62.05H53.67a4,4,0,0,1-4-4V41.5a4,4,0,0,1,4-4H77.29a4,4,0,0,1,4,4V58A4,4,0,0,1,77.29,62.05ZM53.67,40.79a.71.71,0,0,0-.71.71V58a.71.71,0,0,0,.71.72H77.29A.71.71,0,0,0,78,58V41.5a.71.71,0,0,0-.71-.71Z"/><path class="cls-1" d="M79.65,50.24H51.31a1.66,1.66,0,0,1,0-3.31H79.65a1.66,1.66,0,0,1,0,3.31Z"/><path class="cls-1" d="M65.48,53.78a1.65,1.65,0,0,1-1.65-1.65V48.59a1.65,1.65,0,1,1,3.3,0v3.54A1.65,1.65,0,0,1,65.48,53.78Z"/><path class="cls-1" d="M74.06,40.79H56.9L59.81,35a4,4,0,0,1,3.59-2.22h4.16A4,4,0,0,1,71.15,35Zm-11.82-3.3h6.47l-.51-1a.71.71,0,0,0-.64-.4H63.4a.71.71,0,0,0-.64.39Z"/></g></g><path class="cls-2" d="M54.57,76.37A2,2,0,0,1,53,75.59L44.25,64.71a1.33,1.33,0,0,0-1.86-.2,1.89,1.89,0,0,0-.2.2L33.48,75.59A2.06,2.06,0,1,1,30.26,73L39,62.14a5.38,5.38,0,0,1,.86-.86,5.44,5.44,0,0,1,7.66.86L56.18,73a2.06,2.06,0,0,1-.32,2.9A2.09,2.09,0,0,1,54.57,76.37Z"/><path class="cls-1" d="M85.39,62.36H6.61a1.66,1.66,0,0,1,0-3.31H85.39a1.66,1.66,0,0,1,0,3.31Z"/><path class="cls-1" d="M24.18,32.2a8.29,8.29,0,1,1,8.28-8.28A8.3,8.3,0,0,1,24.18,32.2Zm0-13.27a5,5,0,1,0,5,5A5,5,0,0,0,24.18,18.93Z"/><path class="cls-1" d="M29.31,62.36H19L18,50.29h-4V41.41a10.1,10.1,0,1,1,20.19,0v8.88h-4Zm-7.23-3.31h4.2l1-12.06H31V41.41a6.8,6.8,0,1,0-13.59,0V47h3.69Z"/><rect class="cls-3" width="92" height="92"/></g></g></svg>