<?xml version="1.0" encoding="UTF-8"?><svg id="a" xmlns="http://www.w3.org/2000/svg" viewBox="0 0 460.02 451.86"><defs><style>.b,.c{fill:#fff;}.c{fill-rule:evenodd;}</style></defs><g><path class="b" d="M58.57,316.47c0,16.77-12.48,27.34-27.5,27.34-16.82,0-30.16-13.09-30.16-29.09s13.41-29.23,29.83-29.23c7.28,.04,15.6,3.47,21.05,8.65l-5.06,7.35c-4.52-4.34-10.61-7.07-16.1-7.07-10.54,0-20.51,8.61-20.51,20.3,0,11.06,9,20.16,21.33,20.16,9.93,0,17.39-5.92,17.39-14.53v-.17H30.96v-8.12h27.36c.14,1.29,.25,2.83,.25,4.41Z"/><path class="b" d="M104.19,342.86l-15.56-21.84h-7.1v21.84h-9.07l-.04-56.43h17.96c10.76,0,19.58,8.09,19.58,18.13,0,7.28-4.8,13.62-11.44,15.72l16.82,22.58h-11.15Zm-13.59-29.19c5.45,.04,10-4.27,10-9.31s-4.62-9.14-10-9.14h-9.11v18.45h9.11Z"/><path class="b" d="M136.01,295.15v14.46h21.87v8.82h-21.87v15.61h25.35v8.82h-34.42v-56.43h34.42v8.72h-25.35Z"/><path class="b" d="M185.37,295.15v14.46h21.87v8.82h-21.87v15.61h25.35v8.82h-34.42v-56.43h34.42v8.72h-25.35Z"/><path class="b" d="M272.12,286.29v57.55h-.43l-36.97-37.7v36.79h-9.07v-57.48h.47l36.9,37.63v-36.79h9.11Z"/><path class="b" d="M323.6,334.04v8.82h-34.85v-56.43h9.07v47.6h25.78Z"/><path class="b" d="M336.34,286.44h9.07v56.43h-9.07v-56.43Z"/><path class="b" d="M408.51,286.29v57.55h-.43l-36.97-37.7v36.79h-9.07v-57.48h.47l36.9,37.63v-36.79h9.11Z"/><path class="b" d="M434.19,295.15v14.46h21.87v8.82h-21.87v15.61h25.35v8.82h-34.42v-56.43h34.42v8.72h-25.35Z"/></g><g><path class="b" d="M42.04,436.17h1.74v15.45h-1.74v-15.45Z"/><path class="b" d="M61.42,436.13v15.72h-.09l-10.59-11.76v11.54h-1.74v-15.71h.1l10.58,11.75v-11.55h1.74Z"/><path class="b" d="M79.05,436.13v15.72h-.09l-10.59-11.76v11.54h-1.74v-15.71h.1l10.58,11.75v-11.55h1.74Z"/><path class="b" d="M83.46,443.91c0-4.38,3.57-7.95,7.93-7.95s7.94,3.57,7.94,7.95-3.57,7.92-7.95,7.92-7.92-3.56-7.92-7.92Zm14.12,0c0-3.4-2.78-6.19-6.19-6.19s-6.16,2.79-6.16,6.19,2.77,6.16,6.16,6.16,6.19-2.77,6.19-6.16Z"/><path class="b" d="M115.21,436.17l-7.03,15.69h-.21l-7-15.69h1.85l5.25,11.97,5.27-11.97h1.88Z"/><path class="b" d="M125.27,449.08h-8.43l-1.13,2.54h-1.89l7.14-15.69h.19l7.15,15.69h-1.9l-1.13-2.54Zm-.67-1.51l-3.54-7.94-3.54,7.94h7.08Z"/><path class="b" d="M139.79,437.9h-4.48v13.72h-1.74v-13.72h-4.5v-1.72h10.71v1.72Z"/><path class="b" d="M143.86,436.17h1.74v15.45h-1.74v-15.45Z"/><path class="b" d="M163.7,436.17l-7.03,15.69h-.21l-7-15.69h1.85l5.25,11.97,5.27-11.97h1.88Z"/><path class="b" d="M169.27,437.89v4.89h6.35v1.74h-6.35v5.37h7.33v1.73h-9.08v-15.45h9.08v1.72h-7.33Z"/><path class="b" d="M200.35,436.17v15.45h-1.73v-6.87h-7.83v6.87h-1.74v-15.45h1.74v6.85h7.83v-6.85h1.73Z"/><path class="b" d="M209.64,445.05l-5.45-8.88h1.96l4.37,6.94,4.37-6.94h1.96l-5.47,8.88v6.56h-1.74v-6.56Z"/><path class="b" d="M233.45,444.54c0,4.33-3.33,7.29-7.32,7.29-4.44,0-8-3.56-8-7.92s3.57-7.94,7.93-7.94c1.9,0,4.21,.97,5.6,2.32l-.98,1.45c-1.2-1.19-3.08-2.02-4.63-2.02-3.26,0-6.15,2.7-6.15,6.2s2.73,6.16,6.3,6.16c3.02,0,5.4-2.02,5.4-4.75,0-.11,0-.22,0-.31h-5.54v-1.57h7.34c.03,.25,.07,.66,.07,1.1Z"/><path class="b" d="M237.86,436.17h1.74v15.45h-1.74v-15.45Z"/><path class="b" d="M246.56,437.89v4.89h6.35v1.74h-6.35v5.37h7.33v1.73h-9.08v-15.45h9.08v1.72h-7.33Z"/><path class="b" d="M271.04,436.13v15.72h-.09l-10.59-11.76v11.54h-1.74v-15.71h.1l10.58,11.75v-11.55h1.74Z"/><path class="b" d="M278,437.89v4.89h6.35v1.74h-6.35v5.37h7.33v1.73h-9.08v-15.45h9.08v1.72h-7.33Z"/><path class="b" d="M296.8,448.86l1.34-.99c.7,1.32,2.28,2.2,3.92,2.2,2.02,0,3.67-1.09,3.67-2.62,0-1.73-2.21-2.57-4.19-3.32-1.9-.74-4.01-1.67-4.01-4.05s2.14-4.15,4.85-4.15c2.29,0,3.85,1.25,4.43,2.78l-1.31,.88c-.5-1.16-1.74-1.95-3.13-1.95-1.66,0-3.08,1.09-3.08,2.47,0,1.5,1.7,2.04,3.69,2.81,2.32,.94,4.51,2.01,4.51,4.49,0,2.66-2.46,4.4-5.43,4.4-2.54,0-4.51-1.32-5.25-2.97Z"/><path class="b" d="M310.91,443.91c0-4.38,3.57-7.95,7.93-7.95s7.94,3.57,7.94,7.95-3.57,7.92-7.95,7.92-7.92-3.56-7.92-7.92Zm14.12,0c0-3.4-2.78-6.19-6.19-6.19s-6.16,2.79-6.16,6.19,2.77,6.16,6.16,6.16,6.19-2.77,6.19-6.16Z"/><path class="b" d="M340.5,449.88v1.73h-9.31v-15.45h1.74v13.71h7.57Z"/><path class="b" d="M344.42,445.62v-9.45h1.75v9.44c0,2.6,1.69,4.48,3.97,4.48s3.97-1.9,3.97-4.48v-9.44h1.75v9.45c0,3.6-2.43,6.24-5.72,6.24s-5.72-2.63-5.72-6.24Z"/><path class="b" d="M370.49,437.9h-4.48v13.72h-1.74v-13.72h-4.49v-1.72h10.71v1.72Z"/><path class="b" d="M374.56,436.17h1.74v15.45h-1.74v-15.45Z"/><path class="b" d="M380.71,443.91c0-4.38,3.57-7.95,7.93-7.95s7.94,3.57,7.94,7.95-3.57,7.92-7.95,7.92-7.92-3.56-7.92-7.92Zm14.12,0c0-3.4-2.78-6.19-6.19-6.19s-6.16,2.79-6.16,6.19,2.77,6.16,6.16,6.16,6.19-2.77,6.19-6.16Z"/><path class="b" d="M413.41,436.13v15.72h-.09l-10.59-11.76v11.54h-1.74v-15.71h.1l10.58,11.75v-11.55h1.74Z"/><path class="b" d="M417.65,448.86l1.34-.99c.7,1.32,2.28,2.2,3.92,2.2,2.02,0,3.67-1.09,3.67-2.62,0-1.73-2.21-2.57-4.19-3.32-1.9-.74-4.01-1.67-4.01-4.05s2.14-4.15,4.85-4.15c2.29,0,3.85,1.25,4.43,2.78l-1.31,.88c-.5-1.16-1.74-1.95-3.13-1.95-1.66,0-3.08,1.09-3.08,2.47,0,1.5,1.7,2.04,3.69,2.81,2.32,.94,4.51,2.01,4.51,4.49,0,2.66-2.46,4.4-5.43,4.4-2.54,0-4.51-1.32-5.25-2.97Z"/></g><g><path class="c" d="M182.25,229.22c14.26-24.46-4.98-36.22-12.17-39.58-12.05,24.93,5.6,36.34,12.17,39.58h0Zm-7.02-83.67c.86-2.1,1.8-4.16,2.81-6.17-38.79-7.05-49.33,17.71-51.83,26.53,27.96,4.89,42.45-9.92,49.02-20.36h0Zm-3.66,37.86c7.84,3.4,35.98,18.41,14.55,51.51l-1.36,2.11-2.33-.85c-.1-.04-37.04-13.25-17.04-51.21,1.54-11.78,2.35-15.61,5.16-24.13-9.88,8.85-25.39,15.78-48.8,10.64l-2.94-.66,.5-2.97c.02-.12,6.79-45.6,61.95-34.28,1.71-2.82,3.57-5.55,5.59-8.15,12.87-16.71,31.82-28.76,54.18-32.46l.53-.1,1,6.26-.44,.07c-8.61,1.38-16.9,4.23-24.54,8.32-17.17,9.19-30.31,24.36-37.26,42.39,0,0-8.25,22.43-8.81,33.1l.06,.42Z"/><path class="c" d="M118.19,130.55c28.31,.12,28.87-22.42,28.19-30.33-27.61,2.03-28.67,23.02-28.19,30.33h0Zm68.95-47.91c2.25-.31,4.5-.52,6.75-.65-13.29-37.12-40.01-33.87-48.89-31.62,9.75,26.66,29.82,31.8,42.14,32.27h0Zm-34.62,15.76c.98,8.48,2.05,40.37-37.33,38.36l-2.5-.12-.43-2.44c-.02-.11-7.04-38.7,35.83-40.37,10.97-4.55,14.7-5.77,23.48-7.59-12.61-4.13-26.36-14.1-33.61-36.94l-.9-2.87,2.82-1.05c.12-.04,42.88-16.92,60.66,36.51,3.3,.07,6.59,.32,9.85,.76,20.91,2.79,40.81,13.18,55.21,30.69l.35,.41-4.92,3.99-.28-.35c-5.49-6.77-12.12-12.52-19.47-17.09-16.54-10.27-36.25-14.07-55.34-11.08,0,0-23.55,4.07-33.07,8.92l-.33,.26Z"/><path class="c" d="M171.62,25.73c14.05,24.58,33.85,13.8,40.36,9.25-15.56-22.9-34.27-13.32-40.36-9.25h0Zm75.97,35.76c1.39,1.8,2.7,3.64,3.94,5.52,25.5-30.07,9.33-51.58,2.94-58.15-18.21,21.77-12.63,41.72-6.88,52.63h0Zm-30.96-22.1c-6.86,5.09-33.93,21.96-51.89-13.15l-1.15-2.23,1.9-1.6c.08-.07,29.99-25.45,52.87,10.84,9.43,7.23,12.34,9.84,18.32,16.54-2.72-12.98-.97-29.88,15.19-47.58l2.04-2.22,2.32,1.92c.1,.08,36.09,28.68-1.28,70.79,1.59,2.89,3.02,5.86,4.26,8.91,8.04,19.51,8.99,41.93,1.02,63.16l-.18,.5-5.92-2.26,.16-.42c3.11-8.14,4.78-16.76,5.06-25.41,.63-19.46-5.94-38.43-18.08-53.47,0,0-15.29-18.36-24.26-24.18l-.39-.16Z"/><path class="c" d="M289.1,19.6c-14.26,24.46,4.98,36.22,12.17,39.58,12.05-24.93-5.6-36.34-12.17-39.58h0Zm7.02,83.67c-.86,2.1-1.8,4.16-2.81,6.17,38.79,7.05,49.33-17.71,51.83-26.53-27.96-4.89-42.45,9.92-49.02,20.36h0Zm3.66-37.86c-7.84-3.4-35.98-18.41-14.55-51.51l1.36-2.11,2.33,.85c.1,.04,37.04,13.25,17.04,51.21-1.54,11.78-2.35,15.61-5.16,24.13,9.88-8.85,25.39-15.78,48.8-10.64l2.94,.66-.5,2.97c-.02,.12-6.79,45.6-61.95,34.28-1.71,2.82-3.57,5.55-5.59,8.15-12.87,16.71-31.82,28.76-54.18,32.46l-.53,.1-1-6.26,.44-.07c8.61-1.38,16.9-4.23,24.54-8.32,17.17-9.19,30.31-24.36,37.26-42.39,0,0,8.25-22.43,8.81-33.1l-.06-.42Z"/><path class="c" d="M353.16,118.27c-28.31-.12-28.87,22.42-28.19,30.33,27.61-2.03,28.67-23.02,28.19-30.33h0Zm-68.95,47.91c-2.25,.31-4.5,.52-6.75,.65,13.29,37.12,40.01,33.87,48.89,31.62-9.75-26.66-29.82-31.8-42.14-32.27h0Zm34.62-15.76c-.98-8.48-2.05-40.37,37.33-38.36l2.5,.12,.43,2.44c.02,.11,7.04,38.7-35.83,40.37-10.97,4.55-14.7,5.77-23.48,7.59,12.61,4.13,26.36,14.1,33.61,36.94l.9,2.87-2.82,1.05c-.12,.04-42.88,16.92-60.66-36.51-3.3-.07-6.59-.32-9.85-.76-20.91-2.79-40.81-13.18-55.21-30.69l-.35-.41,4.92-3.99,.28,.35c5.49,6.77,12.12,12.52,19.47,17.09,16.54,10.27,36.25,14.07,55.34,11.08,0,0,23.55-4.07,33.07-8.92l.33-.26Z"/><path class="c" d="M299.73,223.08c-14.05-24.58-33.85-13.8-40.36-9.25,15.56,22.9,34.27,13.32,40.36,9.25h0Zm-75.97-35.76c-1.39-1.8-2.7-3.64-3.94-5.52-25.5,30.07-9.33,51.58-2.94,58.15,18.21-21.77,12.63-41.72,6.88-52.63h0Zm30.96,22.1c6.86-5.09,33.93-21.96,51.89,13.15l1.15,2.23-1.9,1.6c-.08,.07-29.99,25.45-52.87-10.84-9.43-7.23-12.34-9.84-18.32-16.54,2.72,12.98,.97,29.88-15.19,47.58l-2.04,2.22-2.32-1.92c-.1-.08-36.09-28.68,1.28-70.79-1.59-2.89-3.02-5.86-4.26-8.91-8.04-19.51-8.99-41.93-1.02-63.16l.18-.5,5.92,2.26-.16,.42c-3.11,8.14-4.78,16.76-5.06,25.41-.63,19.46,5.94,38.43,18.08,53.47,0,0,15.29,18.36,24.26,24.18l.39,.16Z"/></g><g><path class="b" d="M0,389.05c0-15.5,12.91-28.51,28.35-28.51,7.12,.1,13.7,3.14,19.08,8.4l-5.01,6.79c-3.85-3.86-8.86-6.42-14.24-6.42-9.95,0-19.46,8.74-19.46,19.77s9.64,19.67,19.49,19.67c5.62,0,10.46-2.8,14.24-6.56l4.97,6.97c-4.74,4.68-10.77,8.26-18.94,8.26-15.57,0-28.49-12.84-28.49-28.38Z"/><path class="b" d="M47.56,389.08c0-15.71,12.74-28.55,28.38-28.55s28.42,12.84,28.42,28.55-12.81,28.34-28.45,28.34-28.35-12.77-28.35-28.34Zm48.08-.07c0-10.89-8.89-19.77-19.73-19.77s-19.66,8.88-19.66,19.77,8.82,19.67,19.66,19.67,19.73-8.84,19.73-19.67Z"/><path class="b" d="M154.67,361.35v56.14h-.41l-35.13-36.78v35.89h-8.62v-56.07h.44l35.06,36.71v-35.89h8.65Z"/><path class="b" d="M210.17,361.49l-25.35,56.18h-.58l-25.25-56.18h9.17l16.36,37.26,16.42-37.26h9.23Z"/><path class="b" d="M223.15,369.99v14.1h20.79v8.61h-20.79v15.23h24.09v8.61h-32.71v-55.05h32.71v8.5h-24.09Z"/><path class="b" d="M284.64,416.54l-14.79-21.31h-6.75v21.31h-8.62l-.03-55.05h17.07c10.22,0,18.6,7.89,18.6,17.69,0,7.1-4.57,13.28-10.87,15.33l15.98,22.03h-10.6Zm-12.91-28.48c5.18,.03,9.51-4.17,9.51-9.08s-4.4-8.91-9.51-8.91h-8.66v18h8.66Z"/><path class="b" d="M332.33,370.06h-14.72v46.48h-8.65v-46.48h-14.72v-8.57h38.09v8.57Z"/><path class="b" d="M337.44,361.49h8.62v55.05h-8.62v-55.05Z"/><path class="b" d="M399.03,361.35v56.14h-.41l-35.13-36.78v35.89h-8.62v-56.07h.44l35.06,36.71v-35.89h8.65Z"/><path class="b" d="M460.02,390.79c0,16.36-11.86,26.67-26.13,26.67-15.98,0-28.66-12.77-28.66-28.38s12.74-28.51,28.35-28.51c6.92,.03,14.82,3.38,20,8.43l-4.8,7.17c-4.29-4.23-10.09-6.9-15.3-6.9-10.02,0-19.49,8.4-19.49,19.81,0,10.79,8.55,19.67,20.27,19.67,9.44,0,16.53-5.77,16.53-14.17v-.17h-17v-7.92h26c.14,1.26,.24,2.77,.24,4.3Z"/></g></svg>