<svg xmlns="http://www.w3.org/2000/svg" width="760.184" height="998.976" viewBox="0 0 760.184 998.976"><g transform="translate(1479.508 -587.28)" opacity="0.104"><g opacity="0.2"><path d="M-1285.531,1483.108l-5.436-17.084,278.556-88.636c207.468-66.016,322.548-288.512,256.532-495.98L-812.6,703.159l17.084-5.436,56.718,178.249c69.013,216.888-51.292,449.486-268.18,518.5Z" fill="#008fff"/></g><g opacity="0.4"><path d="M-1292.642,1438.337l-5.436-17.084L-1026,1334.678c88.947-28.3,161.615-89.677,204.617-172.818s51.1-177.914,22.8-266.861L-880.03,639.053l17.084-5.436L-781.5,889.563c29.754,93.51,21.247,193.139-23.956,280.533s-121.6,151.911-215.106,181.666Z" fill="#008fff"/></g><g opacity="0.6"><path d="M-1306.232,1395.626l-5.436-17.084,272.077-86.574c77.557-24.678,140.92-78.194,178.416-150.69s44.555-155.133,19.876-232.689l17.084-5.436c26.131,82.12,18.66,169.613-21.036,246.362s-106.783,133.407-188.9,159.538Z" fill="#008fff"/><path d="M91.968,318.591-8.542,2.718,8.542-2.718l100.51,315.873Z" transform="translate(-933.266 589.998)" fill="#008fff"/></g><path d="M-1168.063,1304.89l-57.676,18.352-98.294-308.91c-23.65-74.326,17.578-154.029,91.9-177.677l157.9-50.243,18.352,57.676-157.9,50.243a81.014,81.014,0,0,0-52.575,101.649Z" fill="#008fff"/><path d="M-1050.463,1257.8l-38.975,12.4-94.043-295.55,153.591-48.873,18.352,57.676-95.915,30.52,57.062,179.332c97.977-41.594,150.156-152.076,117.249-255.493l-82.158-258.2-258.153,82.143c-109.726,34.915-170.586,152.59-135.674,262.311l173.09,543.833-37.1-14.686-20.571,33.038L-1466.8,1042.423c-45.035-141.53,33.471-293.306,175-338.339l315.83-100.5,100.51,315.873C-830.432,1060.992-908.938,1212.767-1050.463,1257.8Z" fill="#008fff"/></g></svg>