<?xml version="1.0" encoding="UTF-8"?>
<svg width="103px" height="138px" viewBox="0 0 103 138" version="1.1" xmlns="http://www.w3.org/2000/svg" xmlns:xlink="http://www.w3.org/1999/xlink">
    <title>soccer-tema-cfr-color</title>
    <g id="soccer-tema-cfr-color" stroke="none" stroke-width="1" fill="none" fill-rule="evenodd">
        <rect id="Rectangle" fill="#FFFFFF" x="0" y="0" width="103.235294" height="138"></rect>
        <g id="CFR_Cluj" transform="translate(18.000000, 27.000000)" fill-rule="nonzero">
            <path d="M33.5010859,85 L57.6870239,70.812166 C57.6870239,70.812166 67,56.0732646 67,35.2597057 C67,22.4473877 63.6618367,8.67931218 63.6618367,8.67931218 C63.6618367,8.67931218 50.9303381,0 33.5010859,0 C16.0718338,0 3.33816331,8.67931218 3.33816331,8.67931218 C3.33816331,8.67931218 0,22.4559982 0,35.2597057 C0,56.0625016 9.31080424,70.812166 9.31080424,70.812166 L33.5010859,85 Z" id="Path" stroke="#231F20" stroke-width="0.5" fill="#231F20"></path>
            <path d="M33.5010859,81.2049535 L57.1310253,69.5808747 C57.1310253,69.5808747 65.4710039,56.0495859 65.4710039,33.3826323 C65.4710039,22.3785043 62.6823236,9.36168866 62.6823236,9.36168866 C62.6823236,9.36168866 48.919187,1.39704206 33.5010859,1.39704206 C18.0829849,1.39704206 4.30898895,9.36168866 4.30898895,9.36168866 C4.30898895,9.36168866 1.52899608,22.3741991 1.52899608,33.367564 C1.52899608,56.0345177 9.86897468,69.5658065 9.86897468,69.5658065 L33.5010859,81.2049535 Z" id="Path" fill="#95283F"></path>
            <path d="M8.37255665,29.9233925 L4.04184901,30.8877605 C4.05705209,30.0869907 4.09397387,29.2711525 4.14609874,28.446704 L8.45725955,27.5361511 C8.4181659,28.3283106 8.38558786,29.1290805 8.37255665,29.9233925 Z M8.3616973,32.2912604 L4.04184901,33.2039659 C4.05922396,34.0047357 4.091802,34.794025 4.13958313,35.5718338 L8.43336899,34.6246866 C8.40151491,33.8554883 8.37762434,33.0776796 8.3616973,32.2912604 Z M8.85471166,22.4538456 L4.6391131,23.3536354 C4.52617589,24.259883 4.42192616,25.1725884 4.33722325,26.0831413 L8.61580602,25.1402993 C8.68530584,24.2340517 8.76566501,23.3385671 8.85471166,22.4538456 Z M11.4826737,6.01007927 C9.97322442,6.61065667 8.65924341,7.19186061 7.5733087,7.6977233 C7.47774644,8.07658217 6.01825019,13.8627903 5.00181529,20.6456555 L9.15225777,19.7307975 C10.0687867,12.3344392 11.4262051,6.24901866 11.4826737,6.01007927 Z M8.60277481,36.9301289 L4.3263639,37.8342239 C4.40020746,38.5689805 4.48708224,39.2951267 4.58698823,40.0126624 L8.84168044,39.1085674 C8.75480567,38.3881615 8.67517045,37.6620153 8.60277481,36.9301289 Z M15.4202729,60.5636032 C12.4562995,54.587695 10.3690352,48.2226933 9.22175759,41.6615595 L4.99529969,42.5548915 C6.56338941,51.0576899 9.86680281,58.3442652 13.6827774,64.3586497 L15.4202729,60.5636032 Z" id="Shape" fill="#FFFFFF"></path>
            <path d="M58.534053,27.5253881 L62.8430419,28.4359409 C62.8951668,29.2603895 62.9320886,30.0762276 62.9494635,30.8769975 L58.6209277,29.9233925 C58.6057247,29.1290805 58.5753185,28.3283106 58.534053,27.5253881 Z M58.5514279,34.6289918 L62.8452138,35.576139 C62.8929949,34.79259 62.925573,34.0033007 62.9429479,33.2082711 L58.6317871,32.2955656 C58.6187559,33.0791146 58.5934174,33.8583584 58.5557717,34.633297 L58.5514279,34.6289918 Z M58.3776784,25.1273837 L62.6562611,26.0702256 C62.5693864,25.1596728 62.4694804,24.2469674 62.3565432,23.3407197 L58.1387727,22.4495404 C58.2278194,23.3385671 58.3081785,24.2340517 58.3776784,25.1316889 L58.3776784,25.1273837 Z M57.8325391,19.7264923 L61.9829816,20.6413503 C60.9665467,13.8584851 59.5070505,8.07227695 59.4114882,7.69341809 C58.3255535,7.1875554 57.0224318,6.61711449 55.5021232,6.00577405 C55.5651075,6.24901866 56.9246977,12.3344392 57.8325391,19.7307975 L57.8325391,19.7264923 Z M58.1452883,39.0999569 L62.3999806,40.004052 C62.4998865,39.2865162 62.5874853,38.5603701 62.6627768,37.8256135 L58.384194,36.9215185 C58.316866,37.6620153 58.2386787,38.387444 58.1452883,39.1085674 L58.1452883,39.0999569 Z M53.2976758,64.3500393 C57.120166,58.3356548 60.4257512,51.0490794 61.9851535,42.5462811 L57.7608675,41.6529491 C56.61189,48.2139446 54.5239389,54.5788108 51.5601802,60.5549928 L53.2976758,64.3500393 Z" id="Shape" fill="#FFFFFF"></path>
            <path d="M51.147525,71.3739965 L53.1391293,70.5667688 L46.358553,53.7893484 C47.8801571,53.2641012 49.4331203,52.8327542 51.0085254,52.4977841 L51.0085254,47.9557829 L15.9871309,47.9557829 L15.9871309,52.4977841 C17.562536,52.8327542 19.1154991,53.2641012 20.6371033,53.7893484 L13.856527,70.5667688 L15.8481312,71.3739965 L21.5710072,54.1186973 C22.2421148,54.3640945 22.9479724,54.6374756 23.6777205,54.9474511 L18.7084833,72.59883 L20.8803527,73.5072302 L24.6224837,55.3693621 C25.4108723,55.7245423 26.2166359,56.1184694 27.0245713,56.553296 L24.0947194,74.8310836 L25.5433563,75.4467293 L27.9628189,57.0763796 C28.881936,57.60552 29.7735355,58.180279 30.6342183,58.7984653 L29.124769,76.9427913 L31.2966385,77.859802 L31.7939966,59.6745764 C32.3825732,60.14815 32.9537748,60.6497075 33.5010859,61.1814015 C34.048397,60.64899 34.6181508,60.146715 35.2103472,59.6745764 L35.7055334,77.859802 L37.8774028,76.9427913 L36.3701254,58.7984653 C37.2388732,58.1720566 38.1380272,57.6016157 39.039353,57.0763796 L41.4457843,75.4467293 L42.8965931,74.8332363 L39.9645694,56.5468382 C40.7725048,56.1163168 41.5782683,55.7180844 42.3666569,55.3629042 L46.108788,73.5093828 L48.2806574,72.6009826 L43.3114201,54.9496037 C44.0411683,54.6396282 44.7491977,54.3662471 45.4181335,54.1208499 L51.147525,71.3739965 Z" id="Path" fill="#FFFFFF"></path>
            <path d="M49.983403,51.5936891 C49.983403,51.5936891 39.8016791,53.7462962 33.4967422,59.6508978 C27.1983209,53.7376858 17.0100814,51.5936891 17.0100814,51.5936891 L49.983403,51.5936891 Z" id="Path" fill="#231F20"></path>
            <path d="M24.5399527,48.5025451 L24.5399527,50.4398916 L16.5235826,50.4398916 L16.5235826,48.5025451 L24.5399527,48.5025451 Z M25.0720607,50.4398916 L26.2948232,50.4398916 L26.2948232,48.5025451 L25.0720607,48.5025451 L25.0720607,50.4398916 Z M26.8269312,48.5025451 L26.8269312,50.4398916 L33.2296023,50.4398916 L33.2296023,48.5025451 L26.8269312,48.5025451 Z M42.4643911,48.5025451 L42.4643911,50.4398916 L50.4785893,50.4398916 L50.4785893,48.5025451 L42.4643911,48.5025451 Z M41.9301112,48.5025451 L40.7095206,48.5025451 L40.7095206,50.4398916 L41.9301112,50.4398916 L41.9301112,48.5025451 Z M33.7725696,48.5025451 L33.7725696,50.4398916 L40.1752407,50.4398916 L40.1752407,48.5025451 L33.7725696,48.5025451 Z" id="Shape" fill="#231F20"></path>
            <path d="M33.4967422,53.621445 C38.0815586,53.621445 40.1665532,53.1758553 41.0266135,53.1758553 L41.0266135,53.5934611 C41.0266135,53.5934611 37.4625758,54.1380708 33.4967422,57.3088611 C29.5309086,54.1359182 25.9777302,53.5934611 25.9777302,53.5934611 L25.9777302,53.1758553 C26.8269312,53.1758553 28.9119258,53.621445 33.4967422,53.621445 Z" id="Path" fill="#FFFFFF"></path>
            <path d="M16.5300982,59.4829944 L11.8605789,69.727252 L11.3545334,69.4990756 L16.0522869,59.2010029 C16.2026121,59.3091484 16.3625399,59.4035335 16.5300982,59.4829944 L16.5300982,59.4829944 Z M15.8459594,71.3739965 L16.3628643,71.5892572 L22.090084,54.3188898 L21.5688353,54.1251551 L15.8459594,71.3739965 Z M24.6268274,55.3629042 L20.8846964,73.5093828 L21.408117,73.7246436 L25.1459042,55.6083015 L24.6268274,55.3629042 Z M27.9671626,57.0677691 L25.5433563,75.4467293 L26.0754644,75.66199 L28.4840676,57.3648289 L27.9671626,57.0677691 Z M31.7896528,59.6616608 L31.2922947,77.8468863 L31.8417777,78.0793679 L32.3326202,60.1115557 C32.152355,59.9587206 31.9720899,59.8080381 31.7896528,59.6616608 L31.7896528,59.6616608 Z M50.4677299,59.4829944 L55.1394211,69.727252 L55.6454666,69.4990756 L50.9542287,59.2010029 C50.7996971,59.3097375 50.6353888,59.4041334 50.4633862,59.4829944 L50.4677299,59.4829944 Z M45.4289928,54.1186973 L44.9077442,54.3124319 L50.6349639,71.5827994 L51.1518688,71.3675387 L45.4289928,54.1186973 Z M41.8519239,55.6018436 L45.5853674,73.7246436 L46.108788,73.5093828 L42.3666569,55.3629042 L41.8519239,55.6018436 Z M38.5050731,57.3648289 L40.9158482,75.66199 L41.4457843,75.4467293 L39.0263218,57.0763796 L38.5050731,57.3648289 Z M34.6652079,60.1115557 L35.1560504,78.0793679 L35.7055334,77.8468863 L35.2103472,59.6616608 C35.0213945,59.8080381 34.8411294,59.9587206 34.6652079,60.1115557 Z" id="Shape" fill="#231F20"></path>
            <path d="M18.4847807,52.7625544 C18.226247,52.7624207 17.9689503,52.7979199 17.7202827,52.8680325 L17.8592823,52.8680325 C19.6597621,52.8680325 21.1170865,54.4179097 21.1170865,56.3294249 C21.1454476,57.8231573 20.198944,59.1646795 18.7736393,59.6508978 C20.359104,59.4872996 21.5970721,58.0127637 21.5970721,56.2067263 C21.5992415,54.3059741 20.2049013,52.7625544 18.4847807,52.7625544 Z" id="Path" fill="#231F20"></path>
            <ellipse id="Oval" fill="#FFFFFF" cx="17.8592823" cy="56.3251197" rx="3.25780414" ry="3.46139236"></ellipse>
            <path d="M15.435476,56.2885253 C15.435476,57.7113987 16.5083795,58.871654 17.8245324,58.871654 C19.1406853,58.871654 20.2135888,57.7157039 20.2135888,56.2885253 C20.2135888,54.8613468 19.1406853,53.7053967 17.8245324,53.7053967 C16.5083795,53.7053967 15.435476,54.8699572 15.435476,56.2885253 Z" id="Path" fill="#231F20"></path>
            <path d="M48.5108756,52.7625544 C48.7686955,52.7624248 49.0252746,52.7979258 49.2732017,52.8680325 L49.1342021,52.8680325 C47.3358942,52.8680325 45.8763979,54.4179097 45.8763979,56.3294249 C45.8480368,57.8231573 46.7945404,59.1646795 48.2198451,59.6508978 C46.6365522,59.4872996 45.3964123,58.0127637 45.3964123,56.2067263 C45.3942429,54.3059741 46.7885831,52.7625544 48.5108756,52.7625544 Z" id="Path" fill="#231F20"></path>
            <ellipse id="Oval" fill="#FFFFFF" cx="49.1342021" cy="56.3251197" rx="3.25780414" ry="3.46139236"></ellipse>
            <path d="M51.5580084,56.2885253 C51.5580084,57.7113987 50.4851049,58.871654 49.168952,58.871654 C47.8527991,58.871654 46.7798956,57.7157039 46.7798956,56.2885253 C46.7798956,54.8613468 47.8527991,53.7053967 49.168952,53.7053967 C50.4851049,53.7053967 51.5580084,54.8699572 51.5580084,56.2885253 Z" id="Path" fill="#231F20"></path>
            <path d="M50.050731,44.0186644 C50.0518943,42.84829 49.5700934,41.7283551 48.7172032,40.91891 C52.5945714,35.987906 53.7822207,29.4843858 51.8946743,23.519205 C50.007128,17.5540243 45.2849724,12.8875047 39.2608837,11.0342644 C40.0714364,9.88825692 40.5059816,8.5225223 40.5053648,7.12297718 C40.5053648,3.293489 37.3105449,0.189429432 33.3686019,0.189429432 C29.4266589,0.189429432 26.2296671,3.293489 26.2296671,7.12297718 C26.2299498,8.56799168 26.6939266,9.97547033 27.5545074,11.1418948 C21.6250207,13.0848455 17.0187224,17.7636293 15.2043495,23.6863969 C13.3899767,29.6091645 14.5940538,36.0364585 18.4326558,40.91891 C17.2794049,42.0143337 16.8285756,43.6502312 17.2598463,45.1746144 L15.9871309,47.9471725 L51.1714156,47.9471725 L49.8987001,45.1681566 C50.0018569,44.7936226 50.0530049,44.4068963 50.050731,44.0186644 L50.050731,44.0186644 Z" id="Path" fill="#000000"></path>
            <path d="M33.5792732,11.0299592 C23.4483776,11.0299592 15.235664,19.1698345 15.235664,29.2108795 C15.235664,39.2519246 23.4483776,47.3917998 33.5792732,47.3917998 C43.7101688,47.3917998 51.9228824,39.2519246 51.9228824,29.2108795 C51.9228824,19.1698345 43.7101688,11.0299592 33.5792732,11.0299592 Z M33.3620863,44.0704427 C27.359505,44.093856 21.9348048,40.5280508 19.6214511,35.038228 C17.3080974,29.5484052 18.5625454,23.2177794 22.7989378,19.0029051 C27.0353302,14.7880308 33.4177708,13.5205584 38.9655063,15.792428 C44.5132418,18.0642976 48.1316307,23.4272392 48.1308254,29.3766303 C48.1382938,33.2662213 46.586518,36.9994551 43.8168457,39.7550593 C41.0471734,42.5106635 37.2864827,44.0629122 33.3620863,44.0704427 Z" id="Shape" fill="#FFFFFF"></path>
            <path d="M33.5792732,34.4503254 C37.7272092,34.4445102 41.8725621,34.6557598 45.9980226,35.0831919 C48.6835224,29.279425 47.0042964,22.4076684 41.9370832,18.4649481 C36.86987,14.5222277 29.7361821,14.5367921 24.6854004,18.5001698 C19.6346187,22.4635474 17.9839706,29.3421024 20.6935719,35.1348545 C24.9727012,34.6703425 29.2745637,34.441814 33.5792732,34.4503254 L33.5792732,34.4503254 Z" id="Path" fill="#FFFFFF"></path>
            <path d="M33.5792732,35.0702763 C27.2547895,35.0702763 22.7568479,35.7354319 21.1453208,36.0152708 C23.6080033,40.4206288 28.2949134,43.1480821 33.3763133,43.1329152 C38.4577133,43.1176213 43.1278939,40.3621221 45.5636487,35.9420822 C41.5983587,35.3382169 37.5910269,35.0467027 33.5792732,35.0702763 L33.5792732,35.0702763 Z" id="Path" fill="#95283F"></path>
            <path d="M28.8467697,44.503001 L28.2581931,44.2877403 C28.2720186,44.2003989 28.2559633,44.1109838 28.2125839,44.0337326 C28.1658583,43.9609105 28.0953217,43.9061976 28.0127719,43.8787449 C27.8789592,43.8245493 27.7267124,43.839881 27.6066323,43.9196444 C27.3265181,44.1296124 27.1937205,44.4808779 27.2656488,44.8215869 C27.3057689,44.9624462 27.4128194,45.0749776 27.5523356,45.1229519 C27.6438075,45.1583705 27.7453785,45.1583705 27.8368505,45.1229519 C27.9265703,45.0887128 27.9996346,45.0216891 28.0410062,44.935675 L28.6274109,45.1509358 C28.5119171,45.3497217 28.3211675,45.4946144 28.0974748,45.5534733 C27.8548375,45.6151637 27.598481,45.5962587 27.3677267,45.4996581 C27.2278928,45.4506914 27.0977884,45.3778379 26.9833058,45.2843974 C26.8763024,45.1940676 26.788454,45.0835848 26.7248533,44.9593537 C26.6586567,44.8328477 26.6229715,44.6928465 26.6206036,44.5503583 C26.6192259,44.3924773 26.6494934,44.2358967 26.7096502,44.0897004 C26.8026611,43.8057088 27.0136705,43.5746387 27.2895394,43.4546813 C27.5808044,43.3454673 27.9036907,43.3539704 28.1886933,43.47836 C28.4097457,43.5525342 28.6003687,43.6961228 28.7316607,43.8873553 C28.8480603,44.0704268 28.8892542,44.2907471 28.8467697,44.503001 Z" id="Path" fill="#231F20"></path>
            <polygon id="Path" fill="#231F20" points="31.1142014 44.3243346 31.7071218 44.3910654 31.520341 46.0205891 32.4803073 46.1282194 32.4325262 46.5479778 30.8796395 46.3736166"></polygon>
            <path d="M34.5826769,44.5008484 L35.1603942,44.4276597 L35.3189406,45.6503406 C35.3260426,45.7759807 35.3793576,45.8946842 35.4687996,45.9839947 C35.5597638,46.0560574 35.6782825,46.0844388 35.7924082,46.0614886 C35.907524,46.0544376 36.0134515,45.9968126 36.0812668,45.9043483 C36.1440384,45.7962798 36.164888,45.6692304 36.1399073,45.5470155 L35.9813608,44.322182 L36.5590781,44.2489933 L36.7176246,45.478132 C36.7368266,45.5947912 36.7419303,45.7133031 36.7328276,45.8311596 C36.7251125,45.9152957 36.6991849,45.996794 36.6568122,46.070099 C36.585999,46.1867069 36.4816219,46.2796632 36.3570942,46.3370223 C36.0301897,46.4841114 35.6662773,46.530603 35.312425,46.470484 C35.176499,46.4465764 35.0509206,46.3828445 34.9518947,46.2875123 C34.8929147,46.2258191 34.8477656,46.1524605 34.8194107,46.0722516 C34.7800736,45.9600687 34.7538399,45.8437866 34.7412234,45.7256819 L34.5826769,44.5008484 Z" id="Path" fill="#231F20"></path>
            <path d="M39.3998833,43.3728822 L39.95371,43.1576215 L40.4575837,44.4104389 C40.5540508,44.6037275 40.566605,44.8276998 40.4923336,45.0303897 C40.3804495,45.2248187 40.1978884,45.3695723 39.9819443,45.4350799 C39.7892725,45.5267861 39.5703214,45.5488677 39.3629615,45.4975055 C39.1821717,45.4292707 39.0413232,45.2849391 38.9785406,45.1035784 L39.5280236,44.8883177 C39.5503819,44.9523888 39.5940307,45.0070351 39.6518202,45.0433054 C39.7067774,45.0692563 39.7706124,45.0692563 39.8255697,45.0433054 C39.8906519,45.0271036 39.942994,44.9792787 39.9645694,44.9163016 C39.9699855,44.817925 39.9490026,44.7198828 39.903757,44.6321574 L39.3998833,43.3728822 Z" id="Path" fill="#231F20"></path>
            <polygon id="Path" fill="#231F20" points="22.005381 16.2349634 23.1412688 15.3136475 23.3975494 15.623623 22.6851762 16.2026743 22.9023631 16.4695976 23.5170022 15.9723453 23.7732828 16.2823208 23.1543 16.779573 23.6755486 17.4124395 23.2607216 17.7568567"></polygon>
            <path d="M24.5638432,14.3126852 C24.8087083,14.1481462 25.1092819,14.0862433 25.400013,14.1404766 C25.9647082,14.3053209 26.3081593,14.871104 26.1905734,15.442804 C25.9773572,16.0017259 25.4051507,16.3427171 24.8070926,16.2672525 C24.5280815,16.201628 24.290852,16.0205813 24.1555318,15.7700003 C23.9971072,15.5329269 23.9466563,15.2407195 24.0165321,14.9649252 C24.1049284,14.6844189 24.3016763,14.4499511 24.5638432,14.3126852 L24.5638432,14.3126852 Z M24.767999,14.6527971 C24.6450893,14.7223109 24.5640494,14.8468087 24.550812,14.9864512 C24.543887,15.3233622 24.7320674,15.6344933 25.0351389,15.7872211 C25.1691011,15.8336317 25.3169463,15.8186222 25.4386334,15.7462575 C25.5603205,15.6738927 25.643257,15.5516614 25.664981,15.4126675 C25.67527,15.252195 25.6325778,15.0927637 25.5433563,14.9584673 C25.4653529,14.8100607 25.3379822,14.6929455 25.182826,14.6269658 C25.047254,14.5701071 24.8921372,14.5829859 24.767999,14.6614076 L24.767999,14.6527971 Z" id="Shape" fill="#231F20"></path>
            <polygon id="Path" fill="#231F20" points="26.0863237 13.5506622 27.6935071 12.8898118 27.8498817 13.2665181 27.3025706 13.4925418 27.9063503 14.9304835 27.3916172 15.1457442 26.7900094 13.7078026 26.2448702 13.9230633"></polygon>
            <path d="M28.3342086,12.6788563 L29.1725502,12.4635956 C29.2734414,12.4368716 29.3756547,12.4153169 29.4787838,12.3990174 C29.5504624,12.3866598 29.6233155,12.3823274 29.6959707,12.3861018 C29.7897592,12.3954806 29.8784187,12.4330333 29.9500794,12.4937321 C30.0213315,12.5565059 30.0720088,12.6389696 30.0955947,12.7305189 C30.1223033,12.8253587 30.1154043,12.9264068 30.0760478,13.0168157 C30.0328165,13.1055743 29.9609825,13.1775286 29.8718921,13.2213133 L29.8718921,13.2320764 C29.9973676,13.2023409 30.1294865,13.2191879 30.2432818,13.2794337 C30.3479874,13.3416016 30.4225217,13.4434689 30.4496094,13.5614253 C30.4985596,13.7248796 30.4618879,13.9017658 30.3518753,14.0328463 C30.2045566,14.1867809 30.0124859,14.29137 29.8023923,14.3320587 L28.8402541,14.5796085 L28.3342086,12.6788563 Z M28.9575351,12.9264062 L29.0509255,13.2794337 L29.374534,13.1976347 C29.4460756,13.1835449 29.5122513,13.1500052 29.5656585,13.1007673 C29.6044739,13.0607293 29.6170912,13.0023711 29.5982366,12.9500848 C29.5891181,12.8960389 29.5507169,12.8513591 29.4983306,12.833844 C29.426313,12.8175773 29.3511649,12.8213014 29.2811436,12.8446071 L28.9575351,12.9264062 Z M29.1464877,13.6432244 L29.2529093,14.0543723 L29.6872832,13.9445894 C29.7564414,13.9316848 29.8191873,13.8960396 29.8653765,13.8434168 C29.9025199,13.7921024 29.9107073,13.725561 29.8870952,13.666903 C29.8758685,13.6072863 29.8362096,13.5567484 29.7806736,13.5312888 C29.714625,13.5081442 29.6425665,13.5081442 29.5765179,13.5312888 L29.1464877,13.6432244 Z" id="Shape" fill="#231F20"></path>
            <path d="M31.4074038,12.0352268 L32.0958864,11.9641907 L33.0558527,13.8412642 L32.4585886,13.9036898 L32.302214,13.5420518 L31.5312004,13.6216983 L31.4486693,14.007015 L30.855749,14.067288 L31.4074038,12.0352268 Z M31.7896528,12.4657482 L31.6245907,13.2148555 L32.1219488,13.1631929 L31.8091996,12.4679008 L31.7896528,12.4657482 Z" id="Shape" fill="#231F20"></path>
            <polygon id="Path" fill="#231F20" points="33.4880547 11.8953073 34.0549126 11.9146808 34.0049596 13.475321 34.9258323 13.5033049 34.9106292 13.9058424 33.4250705 13.8584851"></polygon>
            <path d="M38.6440727,13.2772811 L38.0620117,13.1330564 C38.0648776,13.0481543 38.0388709,12.9647611 37.9881682,12.8962697 C37.9359252,12.8338354 37.8640219,12.7906212 37.7840124,12.773571 C37.6511161,12.7372185 37.5086812,12.7686797 37.4039353,12.8575227 C37.2802907,12.9652436 37.1962549,13.1106234 37.1650297,13.2708233 C37.1157988,13.4275906 37.1227036,13.5963991 37.1845765,13.7487021 C37.2390106,13.8776137 37.3531881,13.9723191 37.4908101,14.0027098 C37.5804551,14.0280041 37.6763692,14.019571 37.7601219,13.9790311 C37.841306,13.9357972 37.9027029,13.8633906 37.9316996,13.776686 L38.5115887,13.9209107 C38.4242246,14.121109 38.2613081,14.2794902 38.057668,14.3621952 C37.8349522,14.4479884 37.5899042,14.4585811 37.3604979,14.3923317 C37.2222611,14.3607301 37.0906823,14.3053598 36.9717333,14.2287335 C36.8612256,14.1539759 36.7661331,14.0589962 36.6915621,13.9488946 C36.6131948,13.8373472 36.5625856,13.7089957 36.543875,13.5743409 C36.5274237,13.4250812 36.5384622,13.2741009 36.576453,13.1287512 C36.6314983,12.849167 36.8046152,12.606289 37.0520925,12.461443 C37.3145376,12.3255782 37.6204425,12.2977341 37.9034653,12.3839491 C38.121076,12.4286686 38.3179022,12.5428436 38.4638076,12.7089928 C38.5958,12.8681804 38.6604126,13.0718724 38.6440727,13.2772811 L38.6440727,13.2772811 Z" id="Path" fill="#231F20"></path>
            <polygon id="Path" fill="#231F20" points="39.5149924 12.9221009 40.0405848 13.1373617 39.4433207 14.5817611 40.2968654 14.9240256 40.1426626 15.2964267 38.7700412 14.7432066"></polygon>
            <path d="M41.4262375,13.7250234 L41.9083925,14.0005571 L41.3198159,15.0187403 C41.2527103,15.1172621 41.2241406,15.2366499 41.2394567,15.3545471 C41.2658466,15.4612442 41.3392033,15.5505462 41.4392687,15.5977917 C41.5294937,15.6591438 41.6429479,15.6765653 41.7476742,15.645149 C41.8589186,15.5988456 41.9492789,15.5138795 42.0017829,15.4062096 L42.5903595,14.3880264 L43.0725145,14.6614076 L42.4839379,15.6860486 C42.4304759,15.7849945 42.36561,15.8774575 42.2906415,15.9615823 C42.2355151,16.0200874 42.1690283,16.0669475 42.0951733,16.0993492 C41.9725702,16.1453971 41.8394254,16.1565805 41.7107524,16.1316383 C41.3793261,16.0524224 41.0778049,15.8805854 40.8420046,15.6365386 C40.7530298,15.5407123 40.6948177,15.420825 40.6747707,15.2921215 C40.6659589,15.2118355 40.6733416,15.1306143 40.6964894,15.0531821 C40.7322751,14.9472243 40.7796121,14.8454502 40.8376609,14.7496644 L41.4262375,13.7250234 Z" id="Path" fill="#231F20"></path>
            <path d="M43.7870595,15.141439 L44.4646828,15.6774381 C44.5602451,15.7527794 44.6384324,15.8216628 44.7014166,15.8926989 C44.7527637,15.9408821 44.7979835,15.9950984 44.8360725,16.0541444 C44.8861463,16.1330796 44.9090111,16.2259937 44.9012286,16.3189151 C44.894516,16.4133084 44.8589045,16.5034248 44.7991507,16.5772279 C44.7390538,16.6557142 44.6528929,16.7106121 44.5559013,16.7322157 C44.4579864,16.7526619 44.3559518,16.7389752 44.2670427,16.6934687 L44.2670427,16.6934687 C44.3658223,16.7761334 44.4307063,16.8917357 44.4494797,17.0185124 C44.4638165,17.1383073 44.426785,17.2585682 44.3474019,17.3500139 C44.2461124,17.4857506 44.0831777,17.5624582 43.913028,17.5545116 C43.7009719,17.5317978 43.5016951,17.4428432 43.3439982,17.300504 L42.5404065,16.6805531 L43.7870595,15.141439 Z M43.496029,16.3641198 L43.2267172,16.697774 L43.5763882,16.9733077 C43.6284196,17.0206756 43.6949213,17.0494647 43.7653409,17.0551067 C43.8265809,17.0525955 43.8829902,17.0214463 43.9173717,16.9711551 C43.9584331,16.9263073 43.9753843,16.8647041 43.962981,16.8054043 C43.9435783,16.7393435 43.9022564,16.6817025 43.8457,16.6418062 L43.496029,16.3641198 Z M43.9608091,15.7872211 L43.7327628,16.0713653 L43.9933871,16.286626 C44.0477823,16.3352484 44.1146765,16.3680264 44.1866835,16.3813407 C44.2413034,16.3858269 44.2942212,16.3612417 44.3256832,16.3167625 C44.3644221,16.2776121 44.3778342,16.2202854 44.3604331,16.1682326 C44.3311609,16.1008745 44.2828963,16.0433213 44.2214334,16.0024818 L43.9608091,15.7872211 Z" id="Shape" fill="#231F20"></path>
            <path d="M51.4233525,30.2161471 C51.4233525,30.2161471 50.66537,30.0891433 50.3243865,30.0611594 L50.4199488,30.0611594 L49.318811,29.9685973 C49.2775455,28.8922937 49.0907647,28.2034594 48.6542189,27.6717654 C48.8543333,27.5692625 49.0380372,27.4379656 49.1993582,27.2821435 C49.6771694,26.8193329 49.9182469,26.1692456 49.9182469,25.344797 C49.9182469,24.2297465 49.4643262,22.6777167 47.2968005,21.6143288 C45.8937729,20.9233419 43.1029207,20.3227645 39.0002593,19.8427331 L38.3791047,19.8039861 L37.7644656,19.7673918 L37.2779669,19.7329501 C37.1563422,19.7329501 34.2677558,19.5176894 32.751791,19.5176894 C31.2358261,19.5176894 28.1409122,19.7523235 28.0106,19.760934 L27.478492,19.8018335 L27.478492,19.7630866 L24.7984051,19.9180743 L24.550812,20.5638565 C24.163506,20.4220498 23.7539685,20.3491763 23.3410807,20.3485957 C17.9895945,20.3485957 15.7656002,25.4029174 15.7656002,28.0979816 C15.7656002,31.8306025 17.5682518,33.6172664 20.7109469,33.6172664 C23.0022691,33.6172664 24.7723427,32.9714843 25.9690428,31.7272773 C26.3895276,31.2863365 26.7297512,30.7765215 26.9746183,30.2204523 L26.9746183,32.5366576 L28.1365684,32.4828425 C28.1713184,32.4828425 31.4986223,32.3343126 33.4923985,32.3343126 L34.6043956,32.3343126 L34.6043956,29.3206625 L32.9602904,29.3486464 L32.9602904,29.1333857 L33.9680379,29.1333857 L35.7055334,29.1333857 L35.7055334,25.7537924 L38.3117767,25.8829488 L38.3117767,22.9381822 L38.9633375,22.873604 C39.0762511,22.8654937 39.1896001,22.8816477 39.2956336,22.9209613 C39.3059928,22.9632073 39.3103785,23.0066752 39.3086648,23.0501178 L39.3086648,29.6284853 L37.7101689,29.6284853 L37.7101689,32.4828425 L45.2161496,33.5117887 L45.2161496,32.1061362 C45.54193,32.9887051 46.4454277,34.4503254 48.8648903,34.4503254 C49.9117313,34.4503254 50.7435573,33.849748 51.147525,32.8057335 C51.3323789,32.2968421 51.4271625,31.7601296 51.4276962,31.219262 C51.4385555,30.9006762 51.4233525,30.2161471 51.4233525,30.2161471 Z M28.5123019,29.3551042 C28.5123019,29.4024616 28.5123019,29.4412085 28.5123019,29.4734976 C28.3680546,29.4888582 28.2229843,29.4953284 28.077928,29.4928711 L27.2439301,29.4928711 C27.4005445,28.9507672 27.4737637,28.3883508 27.4611171,27.8246005 L27.4003047,26.7009395 L24.3922656,26.9162003 L24.318422,27.8655 C24.2988752,28.1195077 24.0664851,30.3409983 22.0118967,30.3409983 C20.9932899,30.3409983 20.6305877,28.8341733 20.6305877,27.4392838 C20.6305877,25.5213108 21.2626017,23.2804467 23.0500502,23.2804467 C24.2836721,23.2804467 24.4378748,24.6645732 24.4552498,24.9422595 L24.5312652,26.1003621 L25.6953872,25.9712057 L27.4632889,25.766708 L27.4632889,22.7078532 L28.4970988,22.7078532 L28.5123019,29.3551042 Z M44.0824338,30.3539139 C43.95202,30.3572114 43.8230755,30.3260042 43.7088722,30.2635044 L43.7088722,30.2635044 C43.701311,30.225219 43.6976727,30.1862742 43.6980129,30.1472637 L43.6980129,28.1711703 C44.2105741,28.2572745 44.6492917,28.347684 44.7709164,28.4510092 C44.7709164,28.4510092 44.9142598,28.5866234 44.9142598,29.6650796 C44.9142598,29.904019 44.9142598,30.1171272 44.9316347,30.3237774 L44.0824338,30.3539139 Z M45.3073681,25.3770861 C45.2355646,25.3884657 45.162884,25.3935082 45.0901812,25.3921544 C44.6233247,25.3648573 44.1589045,25.3058812 43.7001848,25.2156406 L43.7001848,23.5947274 C45.2530714,23.8831767 45.3464618,24.3007825 45.3464618,24.933649 C45.3556517,25.0825645 45.3424767,25.2320071 45.3073681,25.3770861 Z" id="Shape" fill="#000000"></path>
            <path d="M25.0916075,20.3399853 L24.783202,21.1407552 C24.3384041,20.9096304 23.8432954,20.7899071 23.3410807,20.7920328 C18.2827968,20.7920328 16.1739116,25.5772786 16.1739116,28.1388812 C16.1739116,31.4302175 17.7832669,33.2448654 20.7022594,33.2448654 C22.8741288,33.2448654 24.5421245,32.6528984 25.6584654,31.4840327 C26.5777227,30.4933292 27.0803884,29.1919832 27.0636649,27.8461266 L27.0245713,27.142224 L24.7962333,27.3101274 L24.7527959,27.904247 C24.7332491,28.1970015 24.4747966,30.7629093 22.0314435,30.7629093 C20.9042432,30.7629093 20.2331356,29.5251602 20.2331356,27.4478942 C20.2331356,24.671031 21.3451327,22.8757566 23.0695971,22.8757566 C24.7202178,22.8757566 24.8787643,24.7140831 24.8917955,24.9250386 L24.9352329,25.6526198 L25.6671529,25.5708208 L27.0658368,25.4072226 L27.0658368,20.2194393 L25.0916075,20.3399853 Z" id="Path" fill="#FFFFFF"></path>
            <path d="M28.0431781,20.193608 L27.3916172,20.243118 L27.3916172,22.2924 L28.7468638,22.2924 C28.7960298,22.2889104 28.8453848,22.2889104 28.8945509,22.2924 C28.9149217,22.3915246 28.9236672,22.4926504 28.9206133,22.593765 L28.9206133,29.3443412 C28.9206133,29.8545091 28.9206133,29.8954086 28.077928,29.8954086 L27.3829298,29.8954086 L27.3829298,32.1319675 L28.110506,32.0996784 C28.1430841,32.0996784 31.4790755,31.9489959 33.483711,31.9489959 L34.1787092,31.9489959 L34.1787092,29.7318105 L32.6584006,29.7576418 C32.5807295,29.7011837 32.5341323,29.612001 32.5324322,29.5165498 L32.5324322,26.7396865 L32.5671821,26.7396865 C32.7196381,26.7250746 32.8705679,26.7796872 32.9776654,26.8882164 C33.2491491,27.1745131 33.2752115,27.805227 33.2643522,28.0032669 L33.2209148,28.7330007 L33.9571785,28.7330007 L35.2776751,28.7330007 L35.2776751,22.8779092 L33.2578366,22.8779092 L33.2578366,23.5796591 C33.2578366,23.7389521 33.2057117,24.2254413 32.9624623,24.4708385 C32.8455341,24.580465 32.6889133,24.6386769 32.5280884,24.632284 L32.5280884,22.0620711 C35.2364096,22.0771393 35.7858926,22.5442551 35.7858926,24.7119305 L35.7858926,25.3577127 L37.8708872,25.4610378 L37.8708872,20.2043711 L37.2193264,20.1591663 C37.0977017,20.1591663 34.2243185,19.9439056 32.7213848,19.9439056 C31.2184512,19.9439056 28.1734902,20.182845 28.0431781,20.193608 Z" id="Path" fill="#FFFFFF"></path>
            <path d="M38.1727771,22.5313394 L38.939447,22.4603034 C39.1688569,22.4388707 39.3987636,22.4958376 39.5910078,22.6217489 C39.6257577,22.6518854 39.7278356,22.7444475 39.7278356,23.0522704 L39.7278356,29.5961962 C39.7452507,29.7513959 39.7173603,29.9082889 39.6474764,30.0482437 L39.5888359,30.0482437 L38.140199,30.0482437 L38.140199,32.1298149 L44.81001,33.0403677 L44.81001,30.7456885 L44.0911213,30.7650619 C43.8487436,30.769805 43.6117344,30.6940285 43.4178417,30.5498012 C43.3141139,30.4381059 43.2642184,30.287392 43.281014,30.1365006 L43.281014,27.6825284 C44.1606211,27.8202953 44.8013226,27.925773 45.0424001,28.1367285 C45.2443839,28.3089371 45.3312587,28.7652898 45.3312587,29.662927 L45.3312587,29.662927 C45.3312587,30.7112467 45.4181335,31.4194545 45.6157736,31.9554537 C45.9611008,32.9047535 46.8103018,34.0370248 48.8735777,34.0370248 C49.7423255,34.0370248 50.4221207,33.5462304 50.7674479,32.6572036 C50.9337973,32.1957019 51.0190128,31.7093306 51.0193847,31.219262 C51.0193847,30.9717122 51.0193847,30.605769 51.0193847,30.605769 C51.0193847,30.605769 50.4308081,30.4744599 50.3156991,30.4744599 L50.3743395,30.4744599 L49.2210769,30.2721149 L49.20153,31.1934307 C49.2271453,31.433319 49.1959104,31.6758219 49.1103115,31.9016385 L49.0560148,31.9016385 C49.0038899,31.7875503 48.9018121,31.4409806 48.9018121,30.4873756 C48.9018121,28.8513941 48.6846251,28.095829 47.8723459,27.5103199 C48.2576393,27.4365961 48.6138884,27.2559457 48.8996402,26.9893889 C49.2927485,26.6062248 49.4925605,26.05731 49.4925605,25.3555601 L49.4925605,25.3555601 C49.4925605,24.3567503 49.0777335,22.9640135 47.1035042,21.9953402 C45.7439139,21.3258794 42.9964991,20.7425229 38.9416189,20.2624915 L38.1640896,20.1699293 L38.1727771,22.5313394 Z M43.281014,23.1060855 C45.2031184,23.3816193 45.7612889,23.8293616 45.7612889,24.933649 C45.7612889,25.805455 45.5223832,25.805455 45.0880093,25.805455 C44.4805656,25.7662562 43.8767077,25.6842499 43.281014,25.5600577 L43.281014,23.1060855 Z M39.6605076,30.0460911 L39.7061169,30.0460911 L39.6691951,30.0460911 L39.6691951,30.0460911 L39.6605076,30.0460911 Z" id="Shape" fill="#FFFFFF"></path>
            <path d="M26.3664949,20.9513258 L26.3664949,24.7937296 L25.5802781,24.8862917 C25.5802781,24.8862917 25.4434504,22.1869223 23.0652533,22.1869223 C20.941165,22.1869223 19.5337936,24.2232887 19.5337936,27.4478942 C19.5337936,30.2635044 20.6870563,31.4517436 22.0270997,31.4517436 C25.2110603,31.4517436 25.4434504,27.9516043 25.4434504,27.9516043 L26.3664949,27.8827209 C26.3664949,27.8827209 26.6206036,32.5517259 20.7196343,32.5517259 C17.7876106,32.5517259 16.8862848,30.5368856 16.8862848,28.1345759 C16.8862848,26.167093 18.5260462,21.4765619 23.3497682,21.4765619 C24.0251958,21.4515175 24.673887,21.7395665 25.1046387,22.2558057 L25.5889656,20.9965305 L26.3664949,20.9513258 Z" id="Path" fill="#95283F"></path>
            <path d="M28.0953029,20.8802897 C28.0953029,20.8802897 31.2575448,20.6391977 32.751791,20.6391977 C34.2460371,20.6391977 37.1997796,20.8544584 37.1997796,20.8544584 L37.1997796,24.7463722 L36.5047814,24.7119305 C36.5047814,21.9565933 35.4188466,21.3710842 32.4042919,21.3710842 L31.8417777,21.3710842 L31.8417777,25.3318814 L32.4933385,25.3318814 C33.9875847,25.3318814 33.9528348,23.5753539 33.9528348,23.5753539 L34.5783332,23.5753539 L34.5783332,28.0527769 L33.9528348,28.0527769 C33.9528348,28.0527769 34.0918344,26.0551574 32.5628383,26.0551574 C32.3110781,26.0683136 32.0638194,26.1266626 31.8330902,26.227366 L31.8330902,29.5337706 C31.8330902,30.0159546 32.2153392,30.4636969 32.6323382,30.4636969 C32.8755875,30.4636969 33.4771954,30.4507813 33.4771954,30.4507813 L33.4771954,31.2773824 C31.4334662,31.2773824 28.0714124,31.4280649 28.0714124,31.4280649 L28.0714124,30.6014638 C29.1573471,30.6014638 29.6090959,30.3862031 29.6090959,29.361562 L29.6090959,22.6023755 C29.6090959,21.810216 29.3310966,21.6035657 28.7403481,21.6035657 L28.0887873,21.6035657 L28.0953029,20.8802897 Z" id="Path" fill="#95283F"></path>
            <path d="M48.8062498,25.3577127 C48.8062498,27.1831236 47.2077539,26.9097424 45.7482576,26.9097424 L45.7482576,27.2498544 C47.9505332,28.1108973 48.2155013,28.3541419 48.2155013,30.4787652 C48.2155013,32.5797098 48.686797,32.584015 49.1385458,32.584015 C50.0550747,32.584015 49.9030439,31.1159369 49.9030439,31.1159369 L50.3243865,31.1525312 C50.3243865,31.1525312 50.4047457,33.3374275 48.8757496,33.3374275 C48.3892509,33.3374275 46.8537392,33.3115962 46.2695063,31.7100565 C46.0870693,31.2063464 46.0284288,30.4981386 46.0284288,29.652164 C46.0284288,27.1723605 45.4029304,27.3338061 42.5881876,26.8537747 L42.5881876,30.1257376 C42.5881876,31.5034062 44.1084962,31.4345228 44.1084962,31.4345228 L44.1084962,32.2266822 L38.8330254,31.5335427 L38.8330254,30.7413832 L39.5975234,30.7413832 C39.5975234,30.7413832 40.4315213,30.8791501 40.4315213,29.6048066 L40.4315213,23.0608808 C40.4315213,21.6143288 38.8677753,21.7865373 38.8677753,21.7865373 L38.8677753,20.9599362 C41.7759085,21.3043533 45.2335246,21.8532682 46.8037862,22.6239015 C48.1959545,23.2976676 48.8062498,24.2405095 48.8062498,25.3577127 Z M42.5860158,26.1261934 C42.5860158,26.1261934 44.3365425,26.4942893 45.0880093,26.4942893 C46.0045382,26.4942893 46.4562871,26.0917517 46.4562871,24.933649 C46.4562871,22.9963026 44.9729003,22.5786968 42.5860158,22.3268417 L42.5860158,26.1261934 Z" id="Shape" fill="#95283F"></path>
            <path d="M27.2591332,40.9425887 L27.2591332,40.6196976 L27.4936951,40.5917137 C27.6891633,40.5637298 27.7412882,40.4001317 27.7412882,40.1396662 L27.7412882,38.157115 L27.0332588,38.157115 L27.0332588,37.7761035 L27.1983209,37.7761035 C27.5827417,37.7761035 27.8498817,37.6813888 28.027975,37.3821764 L28.5839735,37.3821764 L28.5839735,40.1439714 C28.5839735,40.4044369 28.642614,40.5744929 28.8402541,40.5960189 L29.0791598,40.6240028 L29.0791598,40.9468939 L27.2591332,40.9425887 Z" id="Path" fill="#FFFFFF"></path>
            <path d="M30.2215631,40.1741079 C30.2215631,39.9093373 30.356219,39.6553296 30.655937,39.6553296 C30.955655,39.6553296 31.1294045,39.8060121 31.1294045,39.9308633 C31.1312751,40.0479234 31.0711061,40.157391 30.9708581,40.2193127 C30.904357,40.2551488 30.8639967,40.3251529 30.8666083,40.4001317 C30.8666083,40.4733203 31.0837953,40.6153924 31.4595287,40.6153924 C32.1110895,40.6153924 32.2283704,39.8705903 32.1610425,39.2441816 C31.9400847,39.4391478 31.650764,39.5404009 31.3552789,39.5261732 C30.7992804,39.5261732 30.1216571,39.2032821 30.1216571,38.4972269 C30.1216571,37.6060476 30.805796,37.3391243 31.5290285,37.3391243 C32.5736977,37.3391243 33.2274304,38.0408742 33.2274304,39.1752982 C33.2274304,40.3893687 32.5128853,40.9727252 31.4899348,40.9727252 C30.8666083,40.9770304 30.2215631,40.6713602 30.2215631,40.1741079 Z M31.0251548,38.4240383 C31.0251548,38.8545597 31.2293105,39.0698204 31.5681221,39.0698204 C31.9069338,39.0698204 32.1002302,38.8545597 32.1002302,38.4240383 C32.1002302,37.9935169 31.8982463,37.7050675 31.5681221,37.7050675 C31.237998,37.7050675 31.0251548,37.9913642 31.0251548,38.4218857 L31.0251548,38.4240383 Z" id="Shape" fill="#FFFFFF"></path>
            <path d="M33.5792732,39.1451617 C33.5792732,38.0451794 34.2308341,37.3434295 35.179941,37.3434295 C36.1290479,37.3434295 36.7827806,38.0344164 36.7827806,39.1451617 C36.7827806,40.255907 36.2789069,40.9770304 35.179941,40.9770304 C34.0809751,40.9770304 33.5792732,40.2537544 33.5792732,39.1451617 Z M35.179941,40.6153924 C35.6316898,40.6153924 35.7229084,40.1568871 35.7229084,39.1451617 C35.7229084,38.0215007 35.6316898,37.7050675 35.179941,37.7050675 C34.7281922,37.7050675 34.6391455,38.0215007 34.6391455,39.1451617 C34.630458,40.1568871 34.7216766,40.6153924 35.1712535,40.6153924 L35.179941,40.6153924 Z" id="Shape" fill="#FFFFFF"></path>
            <path d="M39.0089468,40.9425887 L37.9773088,40.9425887 L37.9773088,40.7897536 C37.9773088,39.7328235 38.7678693,38.6543673 39.2348212,38.1054524 L39.1957276,38.0882316 C39.0216752,38.0830507 38.8494917,38.051098 38.6853383,37.9935169 C38.5378047,37.9557126 38.3859724,37.9369019 38.2335894,37.9375491 C37.925184,37.9375491 37.6537003,38.2130828 37.6537003,38.7985919 L36.9912801,38.7985919 L36.9912801,37.3584977 L37.4430289,37.3584977 C37.458232,37.4704333 37.5190444,37.5328589 37.5711692,37.5328589 C37.69488,37.5152532 37.815955,37.4827228 37.9316996,37.4359916 C38.16715,37.3598587 38.4138331,37.3234755 38.6614477,37.3283612 C38.8531664,37.3305457 39.0426694,37.3692795 39.2196181,37.4424494 C39.3316005,37.5019547 39.4539265,37.5399338 39.5801485,37.554385 C39.6509225,37.5579146 39.7211767,37.540694 39.7821323,37.504875 C39.8304561,37.4767235 39.8595612,37.424799 39.8581478,37.3692608 L40.3403028,37.3692608 L40.3403028,37.4704333 C40.3403028,37.9612277 40.0014911,38.3573075 39.6691951,38.8265758 C39.2577666,39.3570248 39.0293371,40.0045392 39.0176343,40.6735128 L39.0089468,40.9425887 Z" id="Path" fill="#FFFFFF"></path>
            <path d="M23.786314,45.5857624 C23.1846216,46.4642321 22.1346161,46.931406 21.0724588,46.7932251 C20.0103014,46.6550442 19.1175069,45.9351224 18.7649326,44.9325079 C18.4123584,43.9298933 18.6602568,42.8159251 19.4056533,42.053334 C19.260862,41.8983463 19.1160708,41.741206 18.9712795,41.581913 C18.0116341,42.5068715 17.6733437,43.8959122 18.1015897,45.1529121 C18.5298357,46.409912 19.6484702,47.3113598 20.9774182,47.4703887 C22.3063661,47.6294175 23.6093229,47.0177501 24.3271095,45.8978904 C24.151188,45.7967179 23.968751,45.6933928 23.786314,45.5857624 Z" id="Path" fill="#FFFFFF"></path>
            <path d="M43.3526857,45.5857624 C43.9519606,46.47109 45.0049387,46.9442706 46.0717179,46.8076238 C47.138497,46.670977 48.0355037,45.9480171 48.3879958,44.9407749 C48.740488,43.9335327 48.4878081,42.8153362 47.7355182,42.053334 C47.8788616,41.8983463 48.0178612,41.741206 48.1568608,41.581913 C49.1198564,42.5059077 49.4608505,43.8964473 49.033178,45.1554454 C48.6055055,46.4144435 47.4854175,47.3174287 46.1546764,47.4760172 C44.8239352,47.6346056 43.5198035,47.020522 42.8032027,45.8978904 C42.9964991,45.7967179 43.1789361,45.6933928 43.3526857,45.5857624 Z" id="Path" fill="#FFFFFF"></path>
            <path d="M33.5792732,10.1796794 C35.0412888,10.1793267 36.4985898,10.3439856 37.9230121,10.6704738 C39.9755706,8.29167299 39.7811619,4.73443661 37.4813628,2.58929866 C35.1815637,0.444160701 31.5873119,0.46752337 29.3160976,2.64237296 C27.0448832,4.81722254 26.8975647,8.37668015 28.9814257,10.7285942 C30.4861877,10.363 32.0299605,10.1786964 33.5792732,10.1796794 Z" id="Path" fill="#FFFFFF"></path>
            <path d="M30.5104217,10.422924 C31.5251725,10.2607098 32.5514087,10.1793678 33.5792732,10.1796794 C34.6041383,10.1801397 35.6273688,10.2607539 36.6394373,10.4207714 C37.7468342,9.53013402 38.389964,8.19203333 38.389964,6.77856003 C38.389964,4.14049717 36.2322549,2.00192468 33.5705858,2.00192468 C30.9089166,2.00192468 28.7512075,4.14049717 28.7512075,6.77856003 C28.7523715,8.19429709 29.3989311,9.5337009 30.5104217,10.422924 L30.5104217,10.422924 Z" id="Path" fill="#FFFFFF"></path>
            <path d="M29.7763299,9.90629828 L29.7763299,9.90629828 C29.9436517,10.1001198 30.1259132,10.2807648 30.3214691,10.4466027 L30.506078,10.4164662 C30.3393872,10.28363 30.1819309,10.1397961 30.0347823,9.98594474 C30.0275167,9.75816218 30.0362252,9.53015451 30.0608448,9.30356826 L30.1086259,9.27127916 L30.5907809,8.99789804 L30.6494214,8.96776154 L32.3869169,9.50806595 L32.4129794,9.56403373 C32.5274118,9.78354398 32.658081,9.9943579 32.8039158,10.1947476 L32.9711498,10.1947476 C32.8079348,9.97857883 32.6626678,9.74965282 32.5367759,9.51021855 L32.519401,9.47147162 L33.4619923,7.97971484 L33.5054297,7.97971484 L35.4210185,7.84194798 L35.4818309,7.84194798 C35.806223,8.20303779 36.0814961,8.60468663 36.3006256,9.03664497 C36.3006256,9.05601844 36.2854225,9.07754451 36.2767351,9.09476537 C36.0836942,9.51197205 35.8555667,9.91233501 35.5947681,10.291615 L35.7489708,10.3088358 C35.9985566,9.94009753 36.216507,9.55126607 36.4005316,9.14642794 L36.4135628,9.10983362 C36.6872184,9.06032365 37.1802327,8.75895864 37.7709812,8.13685517 L37.7840124,8.13685517 L38.1163085,8.33058981 C37.8216717,9.14910546 37.3054712,9.87148336 36.6242342,10.4186188 L36.8088431,10.4487553 C37.8982328,9.53511155 38.5272582,8.19296961 38.5289637,6.77856003 C38.5110256,4.08525534 36.2967111,1.91465449 33.5792732,1.9265345 C33.4489611,1.9265345 33.3186489,1.9265345 33.1905086,1.94165168 L33.1905086,1.94165168 C31.5323622,2.06701058 30.04765,3.00682715 29.2355344,4.44513384 L29.2355344,4.44513384 L29.2355344,4.44513384 C29.1986126,4.51186466 29.1638627,4.57859549 29.1291128,4.64747892 L29.1291128,4.64747892 L29.1291128,4.64747892 C29.0987066,4.70775192 29.0704723,4.77017753 29.042238,4.83260314 L29.042238,4.83260314 L29.042238,4.84336617 C29.0140037,4.90579178 28.9879413,4.97037 28.9618788,5.03710082 L28.9618788,5.03710082 C28.9627438,5.04425057 28.9627438,5.05147714 28.9618788,5.05862689 C28.883241,5.26945766 28.8186696,5.48518336 28.7685824,5.70440905 L28.7685824,5.71732469 C28.7315568,5.89017531 28.7032871,6.06475509 28.6838795,6.24040824 C28.6664763,6.40487724 28.6578166,6.57013686 28.6578166,6.73550789 C28.6573004,7.8816386 29.0701827,8.99019853 29.8219391,9.86109352 L29.7763299,9.90629828 Z M35.462284,7.69987591 L35.4145029,7.69987591 L33.5010859,7.83764277 L33.4294142,7.83764277 C33.1796493,7.60946641 32.3738857,6.83668043 32.2109955,6.24686606 L32.2500891,6.13708309 L32.9277124,4.62595285 L32.9407436,4.59581634 C33.216571,4.59581634 34.1939123,4.5527642 35.0105352,4.47957556 L35.0496288,4.52047509 C35.4959366,4.97710883 35.8813279,5.48857694 36.1963759,6.04236837 L36.2289539,6.08542052 C36.0242862,6.64589898 35.7676312,7.18636363 35.462284,7.69987591 L35.462284,7.69987591 Z M38.389964,6.77856003 C38.3914138,7.26036366 38.3181636,7.73952775 38.1727771,8.19928078 L37.8665435,8.01846177 L37.8296217,7.9969357 C37.8352376,7.38924258 37.7887371,6.78217563 37.6906221,6.18228784 L37.7318876,6.09618355 C37.880817,5.76832281 37.9936812,5.42551602 38.0685273,5.07369514 C38.2829097,5.61688695 38.3919627,6.19529201 38.389964,6.77856003 Z M37.9664495,4.84121356 C37.8924595,5.25084691 37.7699891,5.65040326 37.6015754,6.03160534 L37.5885442,6.05958923 C37.4365133,6.05958923 37.0477487,6.03806316 36.3549224,5.99716362 L36.3180006,5.94980627 C35.9969989,5.38764083 35.6050826,4.86827369 35.1517067,4.4042343 L35.1256443,4.37840302 C35.2559564,3.91989769 35.4210185,3.31932028 35.4774871,3.1148226 L35.5078933,3.1148226 C35.9314078,3.1148226 36.3766411,3.15787474 36.7002496,3.19446907 C37.2396969,3.64410123 37.6720961,4.20645399 37.9664495,4.84121356 L37.9664495,4.84121356 Z M33.5792732,2.06435029 C34.6373378,2.06227181 35.6667689,2.40489331 36.5091251,3.03948135 C36.2094071,3.01149745 35.8575643,2.98566617 35.5078933,2.98136095 L35.4210185,2.98136095 C34.8563832,2.59511184 34.2058819,2.34992168 33.5249765,2.26669537 L33.5076015,2.22794844 L33.4142112,2.05789247 L33.5792732,2.06435029 Z M33.2600084,2.07511333 L33.3816331,2.29037405 C33.1535868,2.40015701 32.3630264,2.80269456 32.0785115,3.27411553 L32.0220429,3.28487857 C31.3118416,3.42479803 30.6103277,3.63575354 30.5929528,3.64221136 C30.5429998,3.47000279 30.5017343,3.31070985 30.4713281,3.16648517 C31.2585826,2.52106125 32.2316789,2.13904233 33.251321,2.07511333 L33.2600084,2.07511333 Z M30.538656,3.81657254 L30.6363902,3.78213083 C30.6363902,3.78213083 31.3400759,3.56687011 32.0502772,3.42910325 L32.1067458,3.41834021 C32.414395,3.72893691 32.6604606,4.09403151 32.8321502,4.49464381 L32.8082596,4.5527642 L32.1241207,6.0789627 C32.1241207,6.0789627 32.1132614,6.10479398 32.1002302,6.14784613 C31.5862041,6.38142006 31.0581664,6.58342918 30.5191092,6.75272875 L30.5191092,6.7376605 L29.8262829,5.54511611 L29.7893611,5.47192747 C29.9347288,4.87931583 30.1887097,4.31821714 30.538656,3.81657254 L30.538656,3.81657254 Z M28.7512043,6.77856003 C28.7522573,6.60087188 28.763133,6.42337432 28.7837855,6.24686606 C29.0370952,5.97248746 29.3446314,5.75267351 29.6872832,5.6010839 L29.6872832,5.6010839 L30.3844533,6.8000861 L30.4344063,6.88188518 C30.398909,7.54062982 30.4375165,8.20124384 30.5495154,8.85152075 L30.5277967,8.86228379 L30.0412979,9.14642794 L29.97397,9.1937853 C29.7509172,9.15557917 29.5325315,9.09425201 29.3224092,9.01081369 C28.9466837,8.32577159 28.7502929,7.55827696 28.7512043,6.77856003 L28.7512043,6.77856003 Z" id="Shape" fill="#000000"></path>
        </g>
    </g>
</svg>