<?xml version="1.0" encoding="UTF-8"?>
<svg width="103px" height="138px" viewBox="0 0 103 138" version="1.1" xmlns="http://www.w3.org/2000/svg" xmlns:xlink="http://www.w3.org/1999/xlink">
    <title>soccer-tema-red-bull-color</title>
    <g id="soccer-tema-red-bull-color" stroke="none" stroke-width="1" fill="none" fill-rule="evenodd">
        <rect id="Rectangle" fill="#FFFFFF" x="0" y="0" width="103.235294" height="138"></rect>
        <g id="red-bull-leipzig" transform="translate(-1.000000, 36.000000)" fill-rule="nonzero">
            <path d="M105.975064,33.9544682 C105.601135,33.0714151 89.874737,28.3223125 86.9901396,27.5469488 C86.8192005,27.503873 86.4773222,27.3854147 86.4773222,27.3854147 C86.4773222,27.3854147 86.4559549,27.0731154 86.4773222,26.9008124 C86.5093733,26.5454374 86.4880059,26.0177593 86.4986896,25.6623843 C86.4986896,25.6623843 88.2508155,25.7593047 88.6247448,25.6085396 C89.7037979,25.1885509 90.1097783,23.734744 89.735849,22.7009258 C89.5435425,22.1624787 88.6995306,21.8286416 88.5285915,21.3763461 C88.3683361,20.9455885 88.2508155,20.6117514 87.812784,20.3856036 C87.0862928,20.0194597 85.2486974,19.6856225 84.4367367,19.7610051 C83.7529802,19.8256187 83.6247759,20.6117514 83.1974281,20.7948234 C81.5094045,21.5271113 80.7615459,21.1825052 80.7722296,23.7239751 L80.8042807,23.9501228 C80.1418916,23.6270546 79.2017265,23.1639902 78.5286538,22.8732288 L78.5286538,0 L27.4712795,0 L27.4712795,22.8839977 C26.7875231,23.1747591 25.8580417,23.6378235 25.1956527,23.9608917 L25.2277038,23.734744 C25.2490711,21.2040431 24.4905289,21.5378802 22.8025052,20.8055923 C22.3858411,20.6225203 22.2469531,19.8256187 21.5631967,19.771774 C20.7512359,19.6963915 18.9136405,20.0302286 18.1871493,20.3963726 C17.7384342,20.6225203 17.6315972,20.9563575 17.4713418,21.3871151 C17.3004027,21.8394105 16.4563909,22.1732477 16.2640844,22.7116947 C15.8901551,23.734744 16.2961355,25.1885509 17.3751886,25.6193085 C17.7491179,25.7700737 19.5012437,25.6731532 19.5012437,25.6731532 C19.5119274,26.0285282 19.49056,26.5562063 19.5226111,26.9115813 C19.5332948,27.0946533 19.5226111,27.3961836 19.5226111,27.3961836 C19.5226111,27.3961836 19.1807329,27.514642 19.0097938,27.5577177 C16.1251964,28.3330814 0.398798585,33.082184 0.0248692905,33.9652371 C-0.0712839567,34.159078 0.142389926,34.2129227 0.142389926,34.2129227 C0.527002915,34.2559985 10.4307874,31.9514453 12.3004339,31.6068392 C14.426489,31.2083884 16.0931453,30.8637824 18.7747525,30.4653316 L18.7640688,30.6160967 C18.7640688,31.4883809 18.9456916,31.4883809 19.6721828,31.7360665 L19.6508154,31.8976006 C18.7533851,32.0806726 15.9115225,32.5114302 15.2811845,32.9314189 C14.5974281,33.3944833 12.994874,32.8237295 11.8730861,34.3636879 C11.5739427,34.7621387 11.5739427,36.4420933 11.8624024,36.8405441 C12.3324849,37.4974495 12.8239349,37.2066881 13.4756402,37.3036085 C13.8709369,37.3682222 14.0632434,37.7451351 14.3837542,37.9282071 C14.704265,38.1005101 15.1529802,38.0358965 15.5055421,38.0466654 C16.3495539,38.0682033 16.62733,37.3036085 17.2256169,36.8836199 C17.5140766,36.67901 17.8559548,36.8190062 18.1764656,36.7328547 C18.6572319,36.6036274 18.967059,36.0544115 19.3837231,35.8282637 C19.629448,35.6990365 20.2063675,35.7421122 20.4414088,35.8821084 C21.9478097,36.8190062 25.9435113,35.8605706 27.4819632,34.9021349 L27.4819632,40.2004534 C27.4819632,40.2004534 27.3644426,41.8481013 28.3473424,43.5603627 C33.1656885,51.8955224 43.4006675,57 53.0053085,57 C62.6099495,57 72.8449285,51.8955224 77.6632746,43.5603627 C78.6461744,41.8481013 78.5286538,40.2004534 78.5286538,40.2004534 L78.5286538,34.9021349 C80.0671058,35.8605706 84.0628074,36.8190062 85.5692082,35.8821084 C85.8042495,35.7313433 86.381169,35.6990365 86.626894,35.8282637 C87.043558,36.0436425 87.3640689,36.5928585 87.8341514,36.7328547 C88.1546622,36.8190062 88.4965404,36.67901 88.7850002,36.8836199 C89.3832871,37.3036085 89.6503794,38.0682033 90.5050749,38.0466654 C90.8576368,38.0358965 91.306352,38.1005101 91.6268628,37.9282071 C91.9473736,37.7451351 92.1503638,37.3682222 92.5349768,37.3036085 C93.1866822,37.217457 93.6781321,37.4974495 94.1482146,36.8405441 C94.4366744,36.4420933 94.4366744,34.7729076 94.1375309,34.3636879 C93.0157431,32.8237295 91.4131889,33.3944833 90.7294325,32.9314189 C90.1097783,32.5114302 87.2679156,32.0806726 86.3598016,31.8976006 L86.3384342,31.7360665 C87.0542417,31.4883809 87.2465482,31.4991498 87.2465482,30.6160967 L87.2358645,30.4653316 C89.9067881,30.8637824 91.5734444,31.2083884 93.7101832,31.6068392 C95.5798297,31.9514453 105.483614,34.2559985 105.868227,34.2129227 C105.857543,34.1913848 106.071217,34.1375401 105.975064,33.9544682 Z" id="path2760" fill="#FFFFFF"></path>
            <path d="M52.043776,8.08747402 C52.043776,6.60136029 50.8792534,5.39523899 49.4583221,5.39523899 L46.1570606,5.39523899 L46.1570606,14.4949934 L47.9839723,14.4949934 L47.9839723,6.96750425 L49.0737091,6.95673531 C49.7467818,6.95673531 50.2595991,7.48441338 50.2595991,8.15208766 C50.2595991,8.80899301 49.7147307,9.34744002 49.041658,9.34744002 L48.6143102,9.35820896 L48.6143102,11.5227659 L50.4412219,14.5057623 L52.5993281,14.5057623 L50.0779763,10.7043265 C51.1997642,10.4135651 52.043776,9.34744002 52.043776,8.08747402" id="path3041" fill="#DA0034"></path>
            <path d="M74.5543196,39.1343284 C74.4795337,40.458908 74.1376555,41.2019649 73.5393686,42.1496316 C68.9881149,48.7509919 61.5308964,53.0693369 52.9946248,53.0693369 C44.4583532,53.0693369 37.0118184,48.7509919 32.449881,42.1496316 C31.8515941,41.2019649 31.5097159,40.458908 31.4349301,39.1343284 L31.4349301,35.6128849 L28.9669967,35.6128849 L28.9669967,38.5958814 C28.9669967,41.3958058 29.2981912,42.0634801 29.9498966,43.2049877 C34.9712328,50.6678632 43.3686164,55.567731 52.9839411,55.567731 C62.6099495,55.567731 71.0073331,50.6678632 76.0179857,43.2049877 C76.669691,42.0634801 77.0008855,41.4065747 77.0008855,38.5958814 L77.0008855,35.6128849 L74.5329522,35.6128849 L74.5329522,39.1343284 L74.5543196,39.1343284 L74.5543196,39.1343284 Z M75.9752509,37.7989798 L75.9752509,36.0759494 L76.285078,36.0759494 L76.285078,38.1005101 C76.2743943,39.737389 76.2637107,41.3958058 75.3983314,42.6880786 C74.2872272,44.4003401 72.8769796,46.0695258 71.3385277,47.5233327 C66.1889871,52.2401285 60.0244956,54.7708294 52.9946248,54.8031362 C45.9647541,54.7708294 39.8002626,52.2401285 34.650722,47.5233327 C33.1015863,46.0695258 31.7020224,44.4003401 30.5909182,42.6880786 C29.725539,41.4065747 29.7148553,39.7481579 29.7041716,38.1005101 L29.7041716,36.0759494 L30.0139987,36.0759494 L30.0139987,37.7989798 C30.0567335,39.4573966 29.9392129,41.2127338 30.8580106,42.5157756 C32.0439006,44.3464954 33.5289341,46.0695258 35.2169578,47.5987153 C40.238294,52.0355186 46.1677443,54.4262233 52.9946248,54.4692991 C59.8215054,54.4262233 65.7509556,52.0247497 70.7722919,47.5987153 C72.4603155,46.0587568 73.9346653,44.3357264 75.1312391,42.5157756 C76.0500368,41.2019649 75.9325161,39.4573966 75.9752509,37.7989798 L75.9752509,37.7989798 Z" id="path2762" fill="#001B46"></path>
            <path d="M52.9946248,1.57226526 L28.9776804,1.57226526 L28.9776804,22.2701681 L31.4456137,21.0963537 L31.4456137,4.05989042 L74.5650033,4.05989042 L74.5650033,21.0963537 L77.0329366,22.2701681 L77.0329366,1.57226526 L52.9946248,1.57226526 Z M76.285078,21.4517287 L75.9752509,21.3009635 L75.9752509,2.62762139 L30.0353661,2.62762139 L30.0353661,21.3117325 L29.725539,21.4624976 L29.725539,2.30455318 L76.3064454,2.30455318 L76.285078,21.4517287 Z" id="path2764" fill="#001B46"></path>
            <path d="M59.0629631,9.51974306 C59.5330456,9.05667863 59.8215054,8.43208011 59.8215054,7.74286794 C59.8215054,7.11826941 59.5971478,6.54751559 59.2018511,6.10598904 C58.7958707,5.62138674 58.0693795,5.41677688 57.0864797,5.41677688 L54.1484638,5.41677688 L54.1484638,14.5057623 L57.9411752,14.5057623 C59.3941576,14.4842244 60.569364,13.31041 60.569364,11.8781409 C60.569364,10.8335538 60.2274858,10.0904969 59.0629631,9.51974306 M57.6206644,12.9119592 L55.9753755,12.9119592 L55.9753755,6.98904213 L57.1185308,6.98904213 C57.6206644,6.98904213 58.0266448,7.41979974 58.0266448,7.95824674 C58.0266448,8.49669375 57.6206644,8.92745135 57.1185308,8.92745135 L56.5202439,8.92745135 L56.5202439,10.5750992 L57.6099807,10.5750992 C58.2189513,10.5750992 58.6783501,11.1027773 58.6783501,11.7489137 C58.6783501,12.405819 58.2937371,12.8688834 57.6206644,12.9119592" id="path3043" fill="#DA0034"></path>
            <path d="M92.599079,34.7836766 C93.1866822,34.9452107 93.0050594,35.6236539 93.1332637,36.0974872 C93.1118963,36.1297941 93.0691615,36.2051766 93.0157431,36.1944077 C92.8020692,36.0974872 92.4495073,36.1728698 92.2892519,35.96826 C92.2251497,35.7205743 92.1289964,35.5482713 92.1076291,35.2790478 C92.1610475,35.063669 92.3854051,34.8159834 92.599079,34.7836766 L92.599079,34.7836766 Z" id="path2766" fill="#DA0034"></path>
            <path d="M87.2144971,24.6177971 C86.4986896,24.4885698 85.7615147,24.3701115 85.0670746,24.1655016 C84.7999823,23.8101266 84.2978486,23.917816 83.9239193,23.7993576 C83.6140922,23.917816 84.7145127,24.8008691 84.8534007,24.9731721 C84.9922888,25.1562441 85.2380137,25.7269979 85.2807485,25.9531457 C85.3662181,26.4485169 85.0670746,27.0623465 84.6183595,27.2777253 C84.2123791,27.4715662 83.8598172,27.3638768 83.4752042,27.2238806 C83.1546934,27.0946533 82.1504261,26.8254298 82.0542729,26.4700548 C82.1504261,26.2116002 83.8277661,26.5131305 84.1589606,26.2869828 C84.319216,26.1792934 84.0841748,25.9208388 84.0307563,25.8023805 C83.8063987,25.2423956 82.0008544,23.9393539 81.8726501,23.4332137 C81.6055577,22.3455507 83.4324694,22.1301719 84.1162258,21.9794068 C84.2551139,21.9470999 85.1098094,21.7855658 84.9816051,21.5486492 C84.9709214,21.5271113 84.6504106,21.225581 84.5756247,21.1286605 L84.6610942,21.03174 C84.9175029,21.0102022 86.8192005,21.4732666 87.1397113,21.580956 C87.2251808,21.6132628 87.2679156,21.6886454 87.2999667,21.764028 C87.1076602,22.0763272 87.4068036,22.3563197 87.3320178,22.6686189 C87.289283,22.8839977 86.4773222,22.830153 86.8619352,23.2286038 L87.4815895,23.3039864 C87.7593655,23.1855281 87.3961199,22.9055356 87.7166308,22.830153 C87.9730394,22.9270735 88.3790198,23.0024561 88.5072241,23.2824485 C88.6247448,23.5193652 88.6247448,23.9285849 88.4751731,24.1439637 C88.197397,24.5747213 87.673896,24.7039486 87.2144971,24.6177971 L87.2144971,24.6177971 Z" id="path2768" fill="#DA0034"></path>
            <path d="M91.060627,34.3744568 C91.1033618,34.2559985 91.8512204,34.3852258 91.8939552,34.5359909 C91.9473736,34.7513697 91.2529335,34.8590591 91.060627,34.3744568 Z" id="path2770" fill="#DA0034"></path>
            <path d="M58.1869002,31.6822218 C58.7104012,31.3160778 59.0095446,30.756093 59.415525,30.2930285 C59.5650967,30.1207255 59.7787706,30.0022671 59.9283423,29.840733 C60.0244956,29.7330436 60.601415,28.4730776 60.6975683,28.2469299 L60.8257726,28.1823163 C61.894142,28.236161 62.9625115,28.2576988 64.0201972,28.2792367 C64.479596,28.2900057 65.0778829,28.3869261 65.5372817,28.3330814 C65.6013839,28.3223125 65.6227513,28.2684678 65.6013839,28.2038541 C64.5971167,27.8592481 62.7595213,28.408464 62.0543975,27.4715662 C61.9582442,27.3423389 61.9796116,27.1269601 61.8086725,27.0838844 C61.6270497,27.1808048 61.4347432,27.2669564 61.2210693,27.2131117 L61.1249161,27.0838844 C61.2851715,26.4162101 61.4561106,25.70546 61.894142,25.1562441 C62.5778985,24.2839599 64.2445547,22.4424712 65.1954035,21.9686378 C65.6227513,21.753259 66.1462523,20.9994332 66.3171914,21.2686567 C66.3065077,21.3655772 66.3599262,21.4409598 66.4240284,21.5055734 C66.8406924,21.5917249 66.8300087,20.7948234 67.3855608,20.4609862 C67.9517966,20.1163801 68.6782878,19.9440771 69.3299932,20.0840733 C70.1205865,20.2563763 70.943231,20.687134 71.6590385,21.0532779 C73.2402252,21.8609484 74.8320956,22.6686189 76.4239661,23.4655205 C77.1718247,23.8424334 77.9303669,24.2624221 78.6995929,24.5962592 C78.8812157,24.6716418 79.1376244,24.7039486 79.2230939,24.9193274 C79.3299309,25.2100888 79.0842059,25.6300775 78.8598483,25.7808426 C78.3683984,26.1039108 77.6205398,25.70546 77.1397736,25.5116191 L77.0649877,25.5546949 C77.4068659,25.9962214 77.8021626,26.0069904 78.2936125,26.1039108 C78.6889092,26.1900623 79.0735222,26.3946722 79.4688189,26.5131305 C80.0030036,26.6638957 80.5265046,26.8361988 81.0500056,27.0085018 C81.2743632,27.0838844 81.6376088,27.1377291 81.5735066,27.4607973 C81.6482925,27.6438693 81.8512827,27.6115624 82.0115381,27.6438693 C83.7422965,27.9669375 85.473055,28.3976951 87.2038134,28.774608 C88.2721829,29.0115247 89.351236,29.2699792 90.4089217,29.5499717 C93.9665918,30.4868695 97.524262,31.3699225 101.028514,32.4683544 C101.370392,32.5760438 103.207987,33.1144908 103.357559,33.265256 C103.133201,33.3191007 97.5990478,31.7899112 96.7764034,31.5960703 C91.6054954,30.3253353 86.3598016,29.3884376 81.1141078,28.4730776 C76.14619,27.6115624 71.1141701,26.9331192 66.1035175,26.2869828 C65.2381383,26.1792934 64.3620754,26.0500661 63.4860125,25.9639146 C62.9304604,25.9100699 62.8343071,26.1039108 62.4496941,26.4700548 C62.4496941,26.7177404 63.4860125,26.6531268 63.7210537,26.6746647 C63.7637885,26.6423578 63.7531048,26.5992821 63.7317374,26.5562063 C63.571482,26.4700548 63.4005429,26.3946722 63.2723386,26.243907 L63.3364407,26.1146798 C65.1526688,26.2762139 66.9902641,26.610051 68.7958085,26.8900435 C71.5628852,27.3208011 74.3406457,27.7407897 77.0970388,28.236161 C78.9453179,28.5699981 80.7722296,29.0438315 82.6205087,29.3992065 L82.6205087,29.485358 C79.2871961,29.129983 75.9859346,28.3223125 72.6633057,27.8484791 L72.652622,27.9346306 C73.4645828,28.1823163 74.2979109,28.3115435 75.1098717,28.5161534 C78.8812157,29.4207444 82.6739271,30.1745702 86.4452712,31.0791612 C85.7828821,30.9822407 85.1098094,30.8960892 84.4474204,30.8099377 C84.1910117,30.9714718 84.5115225,31.2406953 84.3833182,31.5529945 C84.1589606,32.1022105 83.7209292,31.5853013 83.6781944,31.8652938 C83.656827,31.9729832 83.8063987,32.3283582 83.9132357,32.3929718 C85.4303202,32.5760438 86.9260374,33.0068014 88.443122,33.2006424 L88.4644894,33.3298696 L87.5136406,33.3621765 L87.4068036,33.437559 C87.4068036,33.6744757 87.7486819,33.5883242 87.8982536,33.620631 C88.4324383,33.7283204 88.966623,33.8575477 89.5008077,33.9544682 C90.6866977,34.1806159 90.5264423,35.0852069 91.3490868,35.3005857 C91.4345563,35.3221236 91.4986585,35.3759683 91.552077,35.4405819 C91.5627607,35.774419 91.1140455,35.2898167 90.9858412,35.602116 C91.0713107,35.9467221 91.2636172,36.2697903 91.1247292,36.6251653 C91.0713107,36.7543926 90.9965249,36.8943888 90.8469532,36.9374646 C90.1311456,37.1420744 89.8533696,35.8605706 89.4046544,35.602116 C89.0414088,35.3975061 88.5926937,35.8605706 88.1226111,35.5913471 C87.8555188,35.4405819 87.5884264,35.2898167 87.3213341,35.1282826 C87.0328743,34.9559796 86.6803124,34.2990742 86.2636484,34.3744568 C85.9431375,34.4390705 85.8256169,34.9344417 85.3021159,34.9775175 C84.4581041,35.0529001 83.5606737,35.0744379 82.7166619,34.9559796 C81.3384654,34.7621387 79.00942,34.0729265 77.9837854,33.1144908 C78.1119897,32.726809 79.2765124,33.0714151 79.5649721,33.1144908 C79.2978798,32.554506 79.6611254,32.3068203 79.3726656,32.1668241 L78.1867756,32.0483658 C77.8342137,32.0160589 77.4816518,31.9191385 77.1184062,31.8760627 C76.7551606,31.832987 76.3812313,31.8545248 76.0286694,31.8114491 C75.8149955,31.7791423 75.4517499,31.7145286 75.344913,31.4991498 C75.376964,31.3268468 75.5051684,31.100699 75.376964,30.9391649 C75.2273923,30.7345551 74.8214119,30.6914793 74.5863707,30.6053278 C74.2765435,30.4868695 74.0201349,30.2607217 73.7103078,30.1638012 C73.3470622,30.2714906 73.667573,30.8422445 73.2402252,30.9607028 C72.8449285,31.0683922 71.8940798,30.562252 71.6376711,30.8853202 C71.6376711,31.0576233 71.7551917,31.3160778 71.5949363,31.4453051 C71.3385277,31.649915 71.0180168,31.6929907 70.7616082,31.9622142 C70.4304137,32.3068203 69.9710148,32.9529567 70.1099028,33.4698659 C70.2594745,33.9975439 71.4987831,34.6006046 71.9581819,34.2990742 C72.2573254,34.1052333 72.235958,33.6637068 72.6633057,33.7929341 C73.1654394,33.9544682 73.6889404,33.986775 74.191074,34.1267712 C74.6077381,34.2452295 75.1953412,34.3313811 75.5692705,34.525222 C75.622689,34.5467599 75.7295259,34.6544493 75.6654238,34.7190629 C75.4731173,34.9344417 73.5927871,34.697525 73.2188578,34.6652182 C73.0479187,34.6436803 72.898347,34.6436803 72.7701427,34.7836766 C72.5351014,35.0529001 73.0586024,35.1282826 72.9090307,35.3651993 C72.6953568,35.6990365 72.1504884,35.8282637 71.7872428,35.7313433 C71.1355375,35.5698092 70.451781,35.2898167 69.8321268,35.0205932 C69.6398203,34.9344417 69.4261464,34.7944455 69.2231562,34.7298319 C68.74239,34.5682978 68.2082053,34.8375213 67.8770108,34.2775364 C67.5778673,33.7821651 67.1718869,33.2221802 67.1718869,32.6191196 C67.1718869,32.1237483 67.4817141,31.822218 67.6526532,31.3914604 C67.7167553,31.2406953 68.0265825,30.4545626 68.0158988,30.3468732 C68.0158988,30.2714906 67.6847043,29.5176648 67.6206021,29.5068959 L65.5052307,29.2376724 C65.4624959,29.2376724 65.3449752,29.3238239 65.3342916,29.3668997 C65.248822,29.7976573 65.8898436,30.3037975 66.1248849,30.5945589 C66.2103545,30.7022483 66.3919773,31.0037786 66.3385588,31.1437748 C66.2530892,31.3914604 65.911211,31.0145475 65.8684763,31.29454 C65.8364252,31.4883809 66.2744566,31.8006801 66.2317219,32.1560552 C66.1889871,32.4575855 66.1676197,32.899112 65.8684763,33.0391083 C65.3556589,33.2867939 65.3129242,32.8668052 65.0778829,32.8560363 C64.9817296,32.8560363 64.8428416,32.909881 64.7360047,32.909881 C64.4154939,32.909881 64.1163504,32.8129605 63.817207,32.726809 C63.2189201,32.5652749 61.4026921,31.7037597 60.9112422,31.7683733 C60.3450064,31.8545248 60.0244956,32.8344984 58.2830534,32.8883431 L58.1869002,32.7483469 C58.785187,32.1668241 59.2125348,32.554506 59.8321891,31.29454 C60.0031282,30.9607028 60.2809042,30.5837899 60.5373129,30.3145664 C60.5479966,30.2607217 60.5266292,30.1961081 60.462527,30.1853391 C59.4048413,30.562252 59.2445859,32.2314377 57.6740829,32.1022105 L57.5886133,32.00529 C57.7168176,31.8437559 58.0373285,31.7899112 58.1869002,31.6822218 L58.1869002,31.6822218 Z M72.0329678,23.4116758 C71.9154471,23.2609106 71.744508,23.1532212 71.5842526,23.0563008 C71.3705787,23.0778387 71.2530581,23.1316834 71.0393842,23.0563008 C70.558618,22.8947667 68.6676041,22.3886265 68.2509401,22.4640091 C68.218889,22.5932363 68.4218792,22.6147742 68.5073487,22.6363121 C69.6398203,22.9486114 70.8257103,23.2286038 71.9795493,23.4547516 L72.0329678,23.4116758 L72.0329678,23.4116758 Z M64.4582286,24.628566 C66.6377022,24.9516342 71.1675885,25.5977706 71.1675885,25.5977706 L70.8577614,25.4577744 L64.3193406,24.3808804 C64.2552384,24.3701115 64.1804526,24.3916493 64.1270341,24.4239562 C64.0842993,24.5854903 64.3727591,24.6177971 64.4582286,24.628566 Z M80.6119742,33.5344795 L82.8448662,34.1052333 C82.887601,34.1052333 82.9730706,34.0944644 83.0051217,34.0298507 C82.994438,33.9436992 82.8982847,33.803703 82.8021315,33.7713962 C82.2358957,33.6098621 81.6696599,33.5667863 81.1141078,33.448328 C80.7722296,33.3729454 80.6333416,33.3837143 80.3662492,33.3621765 L80.6119742,33.5344795 L80.6119742,33.5344795 Z M68.6248693,33.9113924 C68.6782878,33.9006235 68.7530737,33.8683166 68.7637574,33.7929341 C68.635553,33.3083318 68.3791444,32.6406575 68.74239,32.1560552 L69.265891,31.0145475 C69.2231562,30.8530134 69.0522171,30.8314755 68.9133291,30.7883998 C68.8064921,30.7776308 68.7103389,30.8745513 68.6889715,30.9822407 L68.0693172,32.4468166 C67.9304292,33.0283393 68.2616237,33.5452484 68.6248693,33.9113924 Z M62.802256,31.4453051 C62.9838788,31.466843 63.2296038,31.5314566 63.3684918,31.4237672 C63.4539614,31.2622331 63.3257571,31.0899301 63.2509712,30.9391649 C63.0907158,30.7345551 62.8449908,30.6807104 62.5992659,30.6807104 C62.5351637,30.7237861 62.52448,30.7883998 62.52448,30.8422445 C62.5458474,31.0791612 62.5885822,31.3268468 62.802256,31.4453051 L62.802256,31.4453051 Z" id="path2772" fill="#DA0034"></path>
            <path d="M72.7487753,33.1467977 C72.5457851,33.1683355 72.5244177,32.9206499 72.3427949,32.8668052 C72.0009167,33.1144908 72.0222841,33.5560174 71.6804059,33.803703 C71.4987831,33.8360098 71.2423744,33.7175515 71.0393842,33.6744757 C70.9004962,33.5990931 70.7616082,33.4590969 70.7616082,33.3083318 C70.836394,33.0391083 70.9966494,32.7914226 71.0500679,32.5006613 C71.1996396,32.0483658 71.7338243,32.3498961 72.0650189,32.3498961 C72.4282645,32.4468166 72.7487753,32.2960514 73.0692861,32.2206688 C73.1654394,32.2314377 73.2188578,32.3068203 73.2722763,32.360665 C73.3363785,32.5006613 73.3150111,32.6621954 73.2615926,32.7914226 C73.1547557,33.0068014 72.9517655,33.1252598 72.7487753,33.1467977 L72.7487753,33.1467977 Z" id="path2774" fill="#DA0034"></path>
            <path d="M63.956095,22.2163234 C63.0907158,22.9701493 61.2958552,24.7254865 60.9219259,25.7808426 C60.0351793,28.3223125 60.1954347,28.8607595 58.2510023,30.8960892 C57.5779296,31.5960703 57.1078471,31.1330059 57.1612655,32.3283582 L57.4817764,32.6514264 L57.7488687,32.6945022 L57.7488687,33.092953 L58.0693795,33.4267901 C59.8321891,33.5021727 59.7146684,33.1467977 61.1035487,32.3929718 C62.0757648,32.6621954 62.9731951,33.1467977 63.956095,33.3837143 C61.5202127,37.938976 56.028794,41.2235027 50.8472023,39.9635367 C51.6164283,39.9527678 53.0266759,39.9527678 53.8065856,39.8881542 C54.8642713,39.8127716 56.552295,39.3174003 57.6527155,38.5312677 C57.5565622,38.4989609 55.6975994,39.2743246 53.827953,39.2743246 C49.0309743,39.2743246 44.4797206,37.7989798 42.0758894,33.3621765 C42.6421252,33.2006424 44.4904043,32.360665 44.8643336,32.3822029 C45.2596303,32.4145097 45.8472334,33.5775553 47.8557679,33.4160212 C48.1762788,33.3944833 48.3685853,32.9314189 48.2617483,32.6514264 C48.518157,32.6945022 48.7531983,32.543737 48.8493515,32.2960514 C48.90277,32.1452862 48.9241374,31.8652938 48.8493515,31.7252976 C48.7531983,31.5422256 48.379269,31.3376157 48.2083298,31.2406953 C47.503206,30.8207066 47.2147463,29.9699603 46.5416736,29.5176648 C44.8429662,25.9746835 45.0139053,24.3593425 41.5203373,21.764028 C46.071591,11.5873796 59.7253521,12.578122 64.4261775,21.8286416 L63.9881461,22.1840166 C64.0201972,22.1947856 63.9026765,22.1624787 63.956095,22.2163234" id="path2778" fill="#FFD401"></path>
            <path d="M45.4626205,21.2794257 C45.4626205,17.090308 48.8279841,13.6980918 52.9839411,13.6980918 C57.1398981,13.6980918 60.5052618,17.090308 60.5052618,21.2794257 C60.5052618,25.4685434 57.1398981,28.8607595 52.9839411,28.8607595 C48.8279841,28.8607595 45.4626205,25.4685434 45.4626205,21.2794257" id="path2780" fill="#FFFFFF"></path>
            <path d="M47.3322669,25.3716229 C49.5224242,26.965426 52.6100118,27.2238806 55.0352104,25.9100699 C57.6633992,24.5424145 59.2445859,21.7209522 59.0095446,18.6841111 C58.9668098,18.2425845 58.892024,17.8118269 58.785187,17.3918383 C59.5223619,18.511808 59.9497097,19.8471566 59.9497097,21.2794257 C59.9497097,25.1562441 56.830071,28.2900057 52.9946248,28.2900057 C50.6548958,28.2900057 48.5929428,27.1377291 47.3322669,25.3716229" id="path2782" fill="#D9D9D9"></path>
            <path d="M50.9326719,23.0347629 C49.3087503,22.6363121 48.1976462,22.2486303 48.1976462,22.2486303 C48.026707,20.5579067 48.1655951,19.0825619 48.1655951,19.0825619 C48.8707189,18.7164179 50.7831001,17.8549027 50.7831001,17.8549027 C51.6912141,18.888721 52.5565934,20.2886832 52.5565934,20.2886832 C52.1292456,21.0963537 50.9326719,23.0347629 50.9326719,23.0347629 M48.2510646,16.1426412 C48.0908092,16.4118647 47.610043,17.2195352 47.1826952,18.1887398 C46.7767148,18.705649 46.4241529,19.2225581 46.2638975,19.4487058 C46.6057757,18.156433 47.3108995,17.0149254 48.2510646,16.1426412 M55.5480277,20.2133006 C55.5480277,20.2133006 56.1569983,18.9317967 56.8941732,17.8979785 C56.8941732,17.8979785 58.3044208,18.5656527 58.9668098,19.1148687 C58.9668098,19.1148687 59.2125348,19.8794634 59.0522794,22.119403 C59.0522794,22.119403 58.2082676,22.6147742 56.9903264,22.9163046 C56.9796427,22.9055356 56.1569983,21.5055734 55.5480277,20.2133006 M52.396338,25.4793123 L55.4091397,25.3931608 L55.9860592,27.0408086 C54.8429039,27.7192518 53.4753911,28.0746269 53.4753911,28.0746269 C52.043776,27.7623276 51.2104479,27.1269601 51.2104479,27.1269601 L52.396338,25.4793123 L52.396338,25.4793123 Z M52.9839411,14.2688456 C53.9027388,14.2688456 54.7788017,14.4411487 55.5800788,14.7749858 C55.5480277,14.9042131 55.4518745,15.2703571 55.1740984,15.7441904 C53.721116,15.5503495 52.1078782,15.7011147 52.1078782,15.7011147 L50.7617327,14.6349896 C51.4668566,14.3980729 52.2040315,14.2688456 52.9839411,14.2688456 M48.5288407,26.6638957 C47.3750017,25.6946911 46.5416736,24.3593425 46.1997954,22.830153 C46.5737246,23.2178349 47.2895322,23.9608917 47.2895322,23.9608917 C47.7275636,24.8654827 48.8066167,26.437748 48.8066167,26.437748 C48.7211472,26.5238995 48.6036265,26.610051 48.5288407,26.6638957" id="path2784" fill="#001B46"></path>
            <path d="M13.3901707,34.7836766 C12.8025675,34.9452107 12.9841903,35.6236539 12.8559859,36.0974872 C12.8773533,36.1297941 12.9200881,36.2051766 12.9735066,36.1944077 C13.1871805,36.0974872 13.5397424,36.1728698 13.6999978,35.96826 C13.7641,35.7205743 13.8602532,35.5482713 13.8816206,35.2790478 C13.8282021,35.063669 13.6145282,34.8159834 13.3901707,34.7836766 L13.3901707,34.7836766 Z" id="path2786" fill="#DA0034"></path>
            <path d="M18.7747525,24.6177971 C19.49056,24.4885698 20.2277349,24.3701115 20.922175,24.1655016 C21.1892674,23.8101266 21.691401,23.917816 22.0653303,23.7993576 C22.3751574,23.917816 21.2747369,24.8008691 21.1358489,24.9731721 C20.9969609,25.1562441 20.7512359,25.7269979 20.7085011,25.9531457 C20.6230316,26.4485169 20.922175,27.0623465 21.3708902,27.2777253 C21.7768706,27.4715662 22.1294325,27.3638768 22.5140454,27.2238806 C22.8345563,27.0946533 23.8388235,26.8254298 23.9349768,26.4700548 C23.8388235,26.2116002 22.1614835,26.5131305 21.830289,26.2869828 C21.6700336,26.1792934 21.9050749,25.9208388 21.9584934,25.8023805 C22.1828509,25.2423956 23.9883952,23.9393539 24.1165996,23.4332137 C24.3836919,22.3455507 22.5567802,22.1301719 21.8730238,21.9794068 C21.7341358,21.9470999 20.8794402,21.7855658 21.0076446,21.5486492 C21.0183283,21.5271113 21.3388391,21.225581 21.413625,21.1286605 L21.3281554,21.03174 C21.0717467,21.0102022 19.1700492,21.4732666 18.8495384,21.580956 C18.7640688,21.6132628 18.721334,21.6886454 18.6892829,21.764028 C18.8815894,22.0763272 18.582446,22.3563197 18.6572319,22.6686189 C18.6999666,22.8839977 19.5119274,22.830153 19.1273144,23.2286038 L18.5076601,23.3039864 C18.2298841,23.1855281 18.5931297,22.9055356 18.2726189,22.830153 C18.0162102,22.9270735 17.6102298,23.0024561 17.4820255,23.2824485 C17.3645049,23.5193652 17.3645049,23.9285849 17.5140766,24.1439637 C17.8025363,24.5747213 18.3153537,24.7039486 18.7747525,24.6177971 L18.7747525,24.6177971 Z" id="path2788" fill="#DA0034"></path>
            <path d="M14.9393063,34.3744568 C14.8965715,34.2559985 14.1487129,34.3852258 14.1059782,34.5359909 C14.041876,34.7513697 14.7469998,34.8590591 14.9393063,34.3744568 Z" id="path2790" fill="#DA0034"></path>
            <path d="M47.8023495,31.6822218 C47.2788485,31.3160778 46.979705,30.756093 46.5737246,30.2930285 C46.4241529,30.1207255 46.210479,30.0022671 46.0609073,29.840733 C45.9647541,29.7330436 45.3878346,28.4730776 45.2916813,28.2469299 L45.163477,28.1823163 C44.0951076,28.236161 43.0267382,28.2576988 41.9690525,28.2792367 C41.5096536,28.2900057 40.9113668,28.3869261 40.4519679,28.3330814 C40.3878657,28.3223125 40.3664984,28.2684678 40.3878657,28.2038541 C41.392133,27.8592481 43.2297284,28.408464 43.9348522,27.4715662 C44.0310054,27.3423389 44.0096381,27.1269601 44.1805772,27.0838844 C44.3622,27.1808048 44.5545065,27.2669564 44.7681803,27.2131117 L44.8643336,27.0838844 C44.7040782,26.4162101 44.5331391,25.70546 44.0951076,25.1562441 C43.4113512,24.2839599 41.7446949,22.4424712 40.7938461,21.9686378 C40.3664984,21.753259 39.8429973,20.9994332 39.6720582,21.2686567 C39.6827419,21.3655772 39.6293235,21.4409598 39.5652213,21.5055734 C39.1485572,21.5917249 39.1592409,20.7948234 38.6036888,20.4609862 C38.037453,20.1163801 37.3109618,19.9440771 36.6592565,20.0840733 C35.8686631,20.2563763 35.0460187,20.687134 34.3302112,21.0532779 C32.7490244,21.8609484 31.157154,22.6686189 29.5652836,23.4655205 C28.817425,23.8424334 28.0588827,24.2624221 27.2896567,24.5962592 C27.1080339,24.6716418 26.8516253,24.7039486 26.7661557,24.9193274 C26.6593188,25.2100888 26.9050437,25.6300775 27.1294013,25.7808426 C27.6208512,26.1039108 28.3687098,25.70546 28.8494761,25.5116191 L28.9242619,25.5546949 C28.5823837,25.9962214 28.187087,26.0069904 27.6956371,26.1039108 C27.3003404,26.1900623 26.9157274,26.3946722 26.5204308,26.5131305 C25.986246,26.6638957 25.462745,26.8361988 24.939244,27.0085018 C24.7148864,27.0838844 24.3516408,27.1377291 24.415743,27.4607973 C24.3409571,27.6438693 24.137967,27.6115624 23.9777115,27.6438693 C22.2469531,27.9669375 20.5161946,28.3976951 18.7854362,28.774608 C17.7170668,29.0115247 16.6380137,29.2699792 15.580328,29.5499717 C12.0226578,30.4868695 8.46498766,31.3699225 4.96073598,32.4683544 C4.61885777,32.5760438 2.78126238,33.1144908 2.63169066,33.265256 C2.85604824,33.3191007 8.3902018,31.7899112 9.21284625,31.5960703 C14.3837542,30.3253353 19.629448,29.3884376 24.8751419,28.4730776 C29.8430596,27.6115624 34.8750796,26.9331192 39.8857321,26.2869828 C40.7511113,26.1792934 41.6271743,26.0500661 42.5032372,25.9639146 C43.0587893,25.9100699 43.1549425,26.1039108 43.5395555,26.4700548 C43.5395555,26.7177404 42.5032372,26.6531268 42.2681959,26.6746647 C42.2254611,26.6423578 42.2361448,26.5992821 42.2575122,26.5562063 C42.4177676,26.4700548 42.5887067,26.3946722 42.7169111,26.243907 L42.6528089,26.1146798 C40.8365809,26.2762139 38.9989855,26.610051 37.1934412,26.8900435 C34.4263644,27.3208011 31.6486039,27.7407897 28.8922108,28.236161 C27.0439318,28.5699981 25.2170201,29.0438315 23.368741,29.3992065 L23.368741,29.485358 C26.7020536,29.129983 30.003315,28.3223125 33.3259439,27.8484791 L33.3366276,27.9346306 C32.5246669,28.1823163 31.6913387,28.3115435 30.879378,28.5161534 C27.1080339,29.4207444 23.3153225,30.1745702 19.5439785,31.0791612 C20.2063675,30.9822407 20.8794402,30.8960892 21.5418293,30.8099377 C21.7982379,30.9714718 21.4777271,31.2406953 21.6059314,31.5529945 C21.830289,32.1022105 22.2683205,31.5853013 22.3110553,31.8652938 C22.3324226,31.9729832 22.1828509,32.3283582 22.076014,32.3929718 C20.5589294,32.5760438 19.0632122,33.0068014 17.5461277,33.2006424 L17.5247603,33.3298696 L18.4756091,33.3621765 L18.582446,33.437559 C18.582446,33.6744757 18.2405678,33.5883242 18.0909961,33.620631 C17.5568114,33.7283204 17.0226267,33.8575477 16.488442,33.9544682 C15.3025519,34.1806159 15.4628073,35.0852069 14.6401629,35.3005857 C14.5546933,35.3221236 14.4905912,35.3759683 14.4371727,35.4405819 C14.426489,35.774419 14.8752041,35.2898167 15.0034085,35.602116 C14.9179389,35.9467221 14.7256324,36.2697903 14.8645204,36.6251653 C14.9179389,36.7543926 14.9927248,36.8943888 15.1422965,36.9374646 C15.858104,37.1420744 16.13588,35.8605706 16.5845952,35.602116 C16.9478408,35.3975061 17.396556,35.8605706 17.8666385,35.5913471 C18.1337309,35.4405819 18.4008232,35.2898167 18.6679156,35.1282826 C18.9563753,34.9559796 19.3089372,34.2990742 19.7256013,34.3744568 C20.0461121,34.4390705 20.1636327,34.9344417 20.6871338,34.9775175 C21.5311456,35.0529001 22.4285759,35.0744379 23.2725877,34.9559796 C24.6507843,34.7621387 26.9798296,34.0729265 28.0054642,33.1144908 C27.8772599,32.726809 26.7127372,33.0714151 26.4242775,33.1144908 C26.6913699,32.554506 26.3281243,32.3068203 26.616584,32.1668241 L27.802474,32.0483658 C28.155036,32.0160589 28.5075979,31.9191385 28.8708435,31.8760627 C29.2340891,31.832987 29.6080184,31.8545248 29.9605803,31.8114491 C30.1742541,31.7791423 30.5374997,31.7145286 30.6443367,31.4991498 C30.6122856,31.3268468 30.4840813,31.100699 30.6122856,30.9391649 C30.7618573,30.7345551 31.1678377,30.6914793 31.402879,30.6053278 C31.7127061,30.4868695 31.9691148,30.2607217 32.2789419,30.1638012 C32.6421875,30.2714906 32.3216767,30.8422445 32.7490244,30.9607028 C33.1443211,31.0683922 34.0951699,30.562252 34.3515786,30.8853202 C34.3515786,31.0576233 34.2340579,31.3160778 34.3943133,31.4453051 C34.650722,31.649915 34.9712328,31.6929907 35.2276415,31.9622142 C35.558836,32.3068203 36.0182348,32.9529567 35.8793468,33.4698659 C35.7297751,33.9975439 34.4904666,34.6006046 34.0310677,34.2990742 C33.7319243,34.1052333 33.7532917,33.6637068 33.3259439,33.7929341 C32.8238103,33.9544682 32.3003093,33.986775 31.7981757,34.1267712 C31.3815116,34.2452295 30.7939084,34.3313811 30.4199791,34.525222 C30.3665606,34.5467599 30.2597237,34.6544493 30.3238259,34.7190629 C30.5161324,34.9344417 32.3964625,34.697525 32.7703918,34.6652182 C32.9413309,34.6436803 33.0909026,34.6436803 33.219107,34.7836766 C33.4541482,35.0529001 32.9306472,35.1282826 33.080219,35.3651993 C33.2938928,35.6990365 33.8387612,35.8282637 34.2020068,35.7313433 C34.8537122,35.5698092 35.5374686,35.2898167 36.1571229,35.0205932 C36.3494294,34.9344417 36.5631032,34.7944455 36.7660934,34.7298319 C37.2468597,34.5682978 37.7810444,34.8375213 38.1122389,34.2775364 C38.4113823,33.7821651 38.8173627,33.2221802 38.8173627,32.6191196 C38.8173627,32.1237483 38.5075356,31.822218 38.3365965,31.3914604 C38.2724943,31.2406953 37.9626672,30.4545626 37.9733509,30.3468732 C37.9733509,30.2714906 38.3045454,29.5176648 38.3686475,29.5068959 L40.484019,29.2376724 C40.5267538,29.2376724 40.6442744,29.3238239 40.6549581,29.3668997 C40.7404276,29.7976573 40.099406,30.3037975 39.8643647,30.5945589 C39.7788952,30.7022483 39.5972724,31.0037786 39.6506908,31.1437748 C39.7361604,31.3914604 40.0780386,31.0145475 40.1207734,31.29454 C40.1528245,31.4883809 39.714793,31.8006801 39.7575278,32.1560552 C39.8002626,32.4575855 39.82163,32.899112 40.1207734,33.0391083 C40.6335907,33.2867939 40.6763255,32.8668052 40.9113668,32.8560363 C41.00752,32.8560363 41.146408,32.909881 41.253245,32.909881 C41.5737558,32.909881 41.8728992,32.8129605 42.1720427,32.726809 C42.7703295,32.5652749 44.5865575,31.7037597 45.0780075,31.7683733 C45.6442433,31.8545248 45.9647541,32.8344984 47.7061962,32.8883431 L47.8023495,32.7483469 C47.2040626,32.1668241 46.7767148,32.554506 46.1570606,31.29454 C45.9861215,30.9607028 45.7083454,30.5837899 45.4519368,30.3145664 C45.4412531,30.2607217 45.4626205,30.1961081 45.5267226,30.1853391 C46.5844083,30.562252 46.7446638,32.2314377 48.3151668,32.1022105 L48.4006363,32.00529 C48.272432,31.8437559 47.9626049,31.7899112 47.8023495,31.6822218 L47.8023495,31.6822218 Z M33.9669656,23.4116758 C34.0844862,23.2609106 34.2554253,23.1532212 34.4156807,23.0563008 C34.6293546,23.0778387 34.7468752,23.1316834 34.9605491,23.0563008 C35.4413154,22.8947667 37.3323292,22.3886265 37.7489933,22.4640091 C37.7810444,22.5932363 37.5780542,22.6147742 37.4925846,22.6363121 C36.3601131,22.9486114 35.174223,23.2286038 34.020384,23.4547516 L33.9669656,23.4116758 L33.9669656,23.4116758 Z M41.531021,24.628566 C39.3515474,24.9516342 34.8216611,25.5977706 34.8216611,25.5977706 L35.1314882,25.4577744 L41.669909,24.3808804 C41.7340112,24.3701115 41.8087971,24.3916493 41.8622155,24.4239562 C41.9049503,24.5854903 41.6271743,24.6177971 41.531021,24.628566 L41.531021,24.628566 Z M25.3879592,33.5344795 L23.1550671,34.1052333 C23.1123323,34.1052333 23.0268628,34.0944644 22.9948117,34.0298507 C23.0054954,33.9436992 23.1016486,33.803703 23.1978019,33.7713962 C23.7640377,33.6098621 24.3302735,33.5667863 24.8858255,33.448328 C25.2277038,33.3729454 25.3665918,33.3837143 25.6336841,33.3621765 L25.3879592,33.5344795 L25.3879592,33.5344795 Z M37.375064,33.9113924 C37.3216455,33.9006235 37.2468597,33.8683166 37.236176,33.7929341 C37.3643803,33.3083318 37.620789,32.6406575 37.2575434,32.1560552 L36.7340423,31.0145475 C36.7767771,30.8530134 36.9477162,30.8314755 37.0866043,30.7883998 C37.1934412,30.7776308 37.2895944,30.8745513 37.3109618,30.9822407 L37.9306161,32.4468166 C38.0695041,33.0283393 37.7383096,33.5452484 37.375064,33.9113924 L37.375064,33.9113924 Z M43.1976773,31.4453051 C43.0160545,31.466843 42.7703295,31.5314566 42.6314415,31.4237672 C42.545972,31.2622331 42.6741763,31.0899301 42.7489621,30.9391649 C42.9092176,30.7345551 43.1549425,30.6807104 43.4006675,30.6807104 C43.4647697,30.7237861 43.4754533,30.7883998 43.4754533,30.8422445 C43.454086,31.0791612 43.4006675,31.3268468 43.1976773,31.4453051 L43.1976773,31.4453051 Z" id="path2792" fill="#DA0034"></path>
            <path d="M33.2511581,33.1467977 C33.4541482,33.1683355 33.4755156,32.9206499 33.6571384,32.8668052 C33.9990166,33.1144908 33.9776493,33.5560174 34.3195275,33.803703 C34.5011503,33.8360098 34.7575589,33.7175515 34.9605491,33.6744757 C35.0994371,33.5990931 35.2383252,33.4590969 35.2383252,33.3083318 C35.1635393,33.0391083 35.0032839,32.7914226 34.9498654,32.5006613 C34.8002937,32.0483658 34.266109,32.3498961 33.9349145,32.3498961 C33.5716689,32.4468166 33.2511581,32.2960514 32.9306472,32.2206688 C32.834494,32.2314377 32.7810755,32.3068203 32.727657,32.360665 C32.6635549,32.5006613 32.6849223,32.6621954 32.7383407,32.7914226 C32.834494,33.0068014 33.0374842,33.1252598 33.2511581,33.1467977 L33.2511581,33.1467977 Z" id="path2794" fill="#DA0034"></path>
            <path d="M46.3814182,17.079539 L46.3066323,17.0364633 C44.8643336,17.6502928 43.0908404,19.6856225 42.4711861,21.1286605 C43.069473,20.32099 43.7425457,19.5563952 44.5117717,18.9102588 C44.9604868,18.522577 45.5267226,18.2533535 45.8579171,17.7472133 C45.9647541,17.5641413 46.2532138,17.262611 46.3814182,17.079539" id="path2796" fill="#FFFFFF"></path>
            <polygon id="polygon3075" fill="#001B46" points="41.7874297 37.572832 42.4498187 38.2512753 36.6806239 43.9695825 37.3430129 44.6372568 38.6784747 43.3126771 39.33018 43.9803514 37.3323292 45.9726053 35.3665295 43.9588135"></polygon>
            <path d="M46.5844083,42.4619309 L44.9711705,41.5142641 L43.4220349,44.228037 L44.639976,44.9387871 L44.1698935,45.7572265 L42.9519523,45.0464765 L41.4028167,47.7602494 L43.0160545,48.7079161 L42.545972,49.5263556 L40.9327341,48.5786888 C40.484019,48.3202343 40.3344473,47.7494804 40.5908559,47.297185 L44.1698935,41.0619686 C44.4263021,40.6096732 44.9925379,40.458908 45.4412531,40.7173626 L47.0544909,41.6650293 L46.5844083,42.4619309 L46.5844083,42.4619309 Z" id="path3077" fill="#001B46"></path>
            <polygon id="rect3079" fill="#001B46" transform="translate(47.820780, 46.646929) rotate(-74.342000) translate(-47.820780, -46.646929) " points="43.2798713 46.1912669 52.3636159 46.1725693 52.3616885 47.1025909 43.2779439 47.1212886"></polygon>
            <path d="M51.4882239,42.8065369 L53.3578704,42.8926885 C53.8706877,42.9142263 54.2766681,43.3557529 54.244617,43.872662 L54.105729,47.0064236 C54.0843616,47.5233327 53.6463302,47.9325524 53.1335128,47.9002456 L52.2040315,47.8571698 L52.0224087,51.9278292 L51.0929273,51.8847534 L51.4882239,42.8065369 L51.4882239,42.8065369 Z M52.2360825,46.9202721 L53.1655639,46.9633478 L53.304452,43.8295862 L52.3749706,43.7865105 L52.2360825,46.9202721 L52.2360825,46.9202721 Z" id="path3081" fill="#001B46"></path>
            <polygon id="polygon3083" fill="#001B46" points="55.7617016 42.6019271 58.4433088 41.8050255 58.7104012 42.6988475 58.9881772 50.1401852 59.8535565 49.8817306 59.3193718 48.0725486 60.2168021 47.8033251 61.0180791 50.5170981 58.3364719 51.3139996 58.0693795 50.4201776 57.7916035 42.97884 56.9262243 43.2372945 57.460409 45.0464765 56.5629787 45.3157"></polygon>
            <polygon id="rect3085" fill="#001B46" transform="translate(62.819303, 44.615018) rotate(-30.859000) translate(-62.819303, -44.615018) " points="62.3640738 40.0816418 63.3062126 40.0783387 63.2745331 49.1483952 62.3323944 49.1516982"></polygon>
            <path d="M63.2082364,40.4804459 C62.6526843,39.9419989 62.6206332,39.0481768 63.1548179,38.488192 C63.678319,37.9282071 64.5757493,37.8959002 65.1313014,38.4343473 L65.87916,39.1450973 L65.2381383,39.8343095 L64.2125037,38.8543359 L63.571482,39.5435481 L68.7744411,44.4864916 L69.4154627,43.7972794 L67.1505196,41.6434914 L66.8727435,41.9450217 L66.1889871,41.2988853 L67.1077848,40.3189118 L69.7680246,42.8388438 C70.3235767,43.3665218 70.3556278,44.2711128 69.8214431,44.8310977 C69.2979421,45.3910826 68.4005118,45.4233894 67.8449597,44.8849424 L63.2082364,40.4804459 L63.2082364,40.4804459 Z" id="path3087" fill="#001B46"></path>
        </g>
    </g>
</svg>