<svg xmlns="http://www.w3.org/2000/svg" width="156.311" height="180.44" viewBox="0 0 156.311 180.44"><g transform="translate(13771.196 -1927)"><g transform="translate(-13979.687 1712.485)"><path d="M295.78,310.529a36.075,36.075,0,0,0,32.637-35.866V227.922H281.684a36.064,36.064,0,0,0-36.022,36.023v87.4" transform="translate(-2.967 -2.967)" fill="#174286"/><g transform="translate(232.254 214.515)"><g transform="translate(6.748 24.913)" opacity="0.2"><path d="M291.345,350.417H240.919V346.45h50.426a67.751,67.751,0,0,0,67.675-67.674V246.507h3.967v32.268a71.723,71.723,0,0,1-71.642,71.642Z" transform="translate(-240.919 -246.507)" fill="#008fff"/></g><g transform="translate(7.92 10.849)" opacity="0.4"><path d="M291.678,338.689H242.425v-3.967h49.253a60.011,60.011,0,0,0,59.943-59.943V228.446h3.967v46.333a63.983,63.983,0,0,1-63.91,63.91Z" transform="translate(-242.425 -228.446)" fill="#008fff"/></g><g transform="translate(7.92)"><path d="M291.678,344.122H242.425v-3.967h49.253a52.271,52.271,0,0,0,52.212-52.211h3.967A56.242,56.242,0,0,1,291.678,344.122Z" transform="translate(-242.425 -230.763)" fill="#008fff" opacity="0.6"/><path d="M1.984,57.181H-1.984V0H1.984Z" transform="translate(103.448)" fill="#008fff" opacity="0.6"/></g><g transform="translate(24.938 24.913)"><path d="M274.719,326.828H264.278v-55.92a24.428,24.428,0,0,1,24.4-24.4h28.583v10.441H288.679a13.975,13.975,0,0,0-13.959,13.959Z" transform="translate(-264.278 -246.507)" fill="#008fff"/></g><path d="M289.427,318.16h-7.055v-53.5h27.8V275.1H292.813v32.464A36.075,36.075,0,0,0,325.45,271.7V224.955H278.717A36.064,36.064,0,0,0,242.7,260.978v87.4l-5.331-4.355-5.11,4.355v-87.4a46.516,46.516,0,0,1,46.464-46.463H335.9V271.7a46.516,46.516,0,0,1-46.469,46.46Z" transform="translate(-232.254 -214.515)" fill="#008fff"/></g></g><path d="M11.528-12.716v-2.816H1.8V0H5.236V-6.446h6.072V-9.218H5.236v-3.5ZM23.782,0V-15.532H20.35V0Zm22.7,0V-15.532H43.318V-5.038h-.044a10.917,10.917,0,0,0-1.43-2.486l-5.5-8.008H33.2V0h3.19V-10.1h.044a10.663,10.663,0,0,0,1.342,2.376L43.362,0ZM65.56-4.686c0-2.486-1.76-3.586-3.762-4.466l-1.144-.506c-.88-.4-1.958-.858-1.958-1.936,0-.682.462-1.716,2.266-1.716a6.434,6.434,0,0,1,3.234.858l1.012-2.618a9.808,9.808,0,0,0-4.246-.88c-3.41,0-5.61,2.024-5.61,4.708,0,2.552,1.628,3.674,3.7,4.554l1.144.484c.9.374,2,.858,2,2,0,1.3-1.1,1.87-2.552,1.87a7.468,7.468,0,0,1-3.586-1.012L55.11-.66A9.747,9.747,0,0,0,59.466.374C62.656.374,65.56-.99,65.56-4.686ZM77.594,0V-15.532H74.162V0Zm23.364-8.118c0-6.4-4.884-7.414-9.416-7.414H87.01V0h4.378C96.14,0,100.958-1.32,100.958-8.118Zm-3.542.22c0,4.07-2.288,5.214-5.28,5.214H90.442V-12.826h1.584C94.138-12.826,97.416-12.254,97.416-7.9ZM119.306,0V-2.794h-5.94a1.812,1.812,0,0,1-.572-1.584V-6.864h5.962V-9.548h-5.962v-3.19h6.182v-2.794h-9.614V-4c0,2.178.66,3.278,1.716,4Zm21.318-.044-.132-2.244a1.147,1.147,0,0,1-.506.11c-.506,0-.858-.264-2.024-2.156-.638-1.034-1.386-2.354-1.606-2.728a3.994,3.994,0,0,0,3.41-4.026c0-3.916-3.608-4.444-6.688-4.444H128.04V0h3.432V-6.2h1.078c.352,0,.682.066,1.034.77.4.77,1.122,2.156,1.628,3.124C136.2-.44,137.06.176,138.776.176A7.452,7.452,0,0,0,140.624-.044ZM136.2-10.868c0,1.716-2.86,2.112-2.86,2.112h-1.87V-12.87h1.672C134.508-12.87,136.2-12.65,136.2-10.868Zm21.912,6.182c0-2.486-1.76-3.586-3.762-4.466l-1.144-.506c-.88-.4-1.958-.858-1.958-1.936,0-.682.462-1.716,2.266-1.716a6.434,6.434,0,0,1,3.234.858l1.012-2.618a9.808,9.808,0,0,0-4.246-.88c-3.41,0-5.61,2.024-5.61,4.708,0,2.552,1.628,3.674,3.7,4.554l1.144.484c.9.374,2,.858,2,2,0,1.3-1.1,1.87-2.552,1.87a7.468,7.468,0,0,1-3.586-1.012L147.664-.66A9.747,9.747,0,0,0,152.02.374C155.21.374,158.114-.99,158.114-4.686Z" transform="translate(-13773 2107.066)" fill="#008fff"/></g></svg>