<svg xmlns="http://www.w3.org/2000/svg" xmlns:xlink="http://www.w3.org/1999/xlink" width="33.141" height="32.43" viewBox="0 0 33.141 32.43"><defs><clipPath id="a"><path d="M0,3.811H33.141v-32.43H0Z" transform="translate(0 28.619)" fill="none"/></clipPath></defs><g transform="translate(0 28.619)"><g transform="translate(0 -28.619)" clip-path="url(#a)"><g transform="translate(11.047 11.08)"><path d="M.487,0a4.155,4.155,0,0,1,0,8.309A4.155,4.155,0,0,1,.487,0" transform="translate(3.656)" fill="#008eff"/></g><g transform="translate(0 0)"><path d="M3.815,2.531l-10.466-6.2L.961-7.431a1.39,1.39,0,0,0,.752-1.015,1.388,1.388,0,0,0-.386-1.2L-7.6-18.605a1.371,1.371,0,0,0-1.2-.386,1.381,1.381,0,0,0-1.012.754l-4.122,8.389a6.1,6.1,0,0,1,3.691.893l1.823-1.828,1.952,1.958L-8.292-7A6.122,6.122,0,0,1-9.146.547a6.073,6.073,0,0,1-7.52.858L-18.458,3.2-20.41,1.24l1.789-1.793a6.106,6.106,0,0,1-.894-3.7L-27.876-.124A1.387,1.387,0,0,0-28.629.893a1.383,1.383,0,0,0,.385,1.2l8.925,8.953a1.381,1.381,0,0,0,.977.406,1.363,1.363,0,0,0,.224-.019,1.387,1.387,0,0,0,1.013-.754l3.848-7.829,6.95,9.969a1.384,1.384,0,0,0,1.134.595,1.267,1.267,0,0,0,.283-.029A1.38,1.38,0,0,0-3.82,12.3l1.2-6.019,6-1.2a1.386,1.386,0,0,0,.431-2.551" transform="translate(28.648 19.011)" fill="#008eff"/></g></g></g></svg>