<svg xmlns="http://www.w3.org/2000/svg" width="22.508" height="27.009" viewBox="0 0 22.508 27.009"><g transform="translate(-2 0)"><path d="M22.819,2.251H17.193a.271.271,0,0,1-.234-.136,4.307,4.307,0,0,0-7.414,0,.271.271,0,0,1-.23.136H3.688A1.688,1.688,0,0,0,2,3.939V25.321a1.688,1.688,0,0,0,1.688,1.688H22.819a1.688,1.688,0,0,0,1.688-1.688V3.939a1.688,1.688,0,0,0-1.688-1.688ZM21.131,18.3a2.813,2.813,0,0,1-.675,1.83L18.3,22.649a2.813,2.813,0,0,1-2.138.982H5.939a.563.563,0,0,1-.563-.563V6.19a.563.563,0,0,1,.563-.563h14.63a.563.563,0,0,1,.563.563Z" fill="#018cf9"/><path d="M15.779,8.726l-4.372,5.828a.28.28,0,0,1-.423.03L8.94,12.542A1.408,1.408,0,0,0,6.946,14.53l2.432,2.433a2.624,2.624,0,0,0,1.851.765,1.686,1.686,0,0,0,.185-.007,2.613,2.613,0,0,0,1.913-1.042l4.7-6.266a1.407,1.407,0,1,0-2.251-1.688Z" transform="translate(0.569 1.023)" fill="#018cf9"/></g></svg>