<svg xmlns="http://www.w3.org/2000/svg" xmlns:xlink="http://www.w3.org/1999/xlink" viewBox="0 0 92 92"><defs><style>.cls-1{fill:#008fff;}.cls-2{fill:url(#Naamloos_verloop_2);}.cls-3{fill:url(#Naamloos_verloop_2-2);}.cls-4{fill:url(#Naamloos_verloop_2-3);}.cls-5{fill:url(#Naamloos_verloop_2-4);}.cls-6,.cls-7{fill:none;}.cls-7{stroke:#008fff;stroke-linecap:round;stroke-miterlimit:10;stroke-width:4px;}</style><linearGradient id="Naamloos_verloop_2" x1="52.72" y1="41.21" x2="69.96" y2="41.21" gradientUnits="userSpaceOnUse"><stop offset="0" stop-color="#008fff" stop-opacity="0"/><stop offset="0.01" stop-color="#008efe" stop-opacity="0.02"/><stop offset="0.16" stop-color="#008efd" stop-opacity="0.25"/><stop offset="0.31" stop-color="#008dfc" stop-opacity="0.45"/><stop offset="0.46" stop-color="#008cfa" stop-opacity="0.61"/><stop offset="0.61" stop-color="#008cfa" stop-opacity="0.74"/><stop offset="0.75" stop-color="#008cf9" stop-opacity="0.83"/><stop offset="0.88" stop-color="#008cf9" stop-opacity="0.88"/><stop offset="1" stop-color="#018cf9" stop-opacity="0.9"/></linearGradient><linearGradient id="Naamloos_verloop_2-2" x1="33.55" y1="28.43" x2="50.79" y2="28.43" xlink:href="#Naamloos_verloop_2"/><linearGradient id="Naamloos_verloop_2-3" x1="27.16" y1="22.04" x2="50.79" y2="22.04" xlink:href="#Naamloos_verloop_2"/><linearGradient id="Naamloos_verloop_2-4" x1="55.91" y1="47.6" x2="69.96" y2="47.6" xlink:href="#Naamloos_verloop_2"/></defs><g id="Laag_2" data-name="Laag 2"><g id="Laag_1-2" data-name="Laag 1"><path class="cls-1" d="M68.36,78.05H42.7V36.42a3.3,3.3,0,0,1,3.3-3.3H68.36a3.3,3.3,0,0,1,3.3,3.3V74.75A3.3,3.3,0,0,1,68.36,78.05ZM46.1,74.65H68.26V36.52H46.1Z"/><path class="cls-1" d="M44.4,78.05H23.64a3.3,3.3,0,0,1-3.3-3.3V17.25a3.3,3.3,0,0,1,3.3-3.3H49.19a3.3,3.3,0,0,1,3.3,3.3V34.82a1.7,1.7,0,0,1-3.4,0V17.35H23.74v57.3H44.4a1.7,1.7,0,0,1,0,3.4Z"/><path class="cls-1" d="M39.71,76.35h-3.4V68.47H30.13v7.88h-3.4v-8a3.3,3.3,0,0,1,3.3-3.3h6.39a3.3,3.3,0,0,1,3.29,3.3Z"/><path class="cls-1" d="M64,76.35H60.6V68.47H54.42v7.88H51v-8a3.3,3.3,0,0,1,3.3-3.3h6.39A3.29,3.29,0,0,1,64,68.36Z"/><rect class="cls-2" x="52.72" y="39.51" width="17.24" height="3.4"/><rect class="cls-3" x="33.55" y="26.73" width="17.24" height="3.4"/><rect class="cls-4" x="27.16" y="20.34" width="23.63" height="3.4"/><rect class="cls-5" x="55.91" y="45.9" width="14.05" height="3.4"/><rect class="cls-6" width="92" height="92"/><line class="cls-7" x1="69.96" y1="4.85" x2="69.96" y2="10.58"/><line class="cls-7" x1="69.96" y1="20.68" x2="69.96" y2="26.41"/><line class="cls-7" x1="59.18" y1="15.63" x2="64.91" y2="15.63"/><line class="cls-7" x1="75.01" y1="15.63" x2="80.74" y2="15.63"/></g></g></svg>