<svg xmlns="http://www.w3.org/2000/svg" xmlns:xlink="http://www.w3.org/1999/xlink" viewBox="0 0 92 92"><defs><style>.cls-1{fill:none;}.cls-2{fill:url(#Naamloos_verloop_15);}.cls-3{fill:#008fff;}.cls-4{clip-path:url(#clip-path);}.cls-5{fill:#008efe;}.cls-6{fill:#008efd;}.cls-7{fill:#008dfc;}.cls-8{fill:#008cfa;}.cls-9{fill:#008cf9;}.cls-10{fill:#018cf9;}</style><linearGradient id="Naamloos_verloop_15" x1="32.64" y1="73.53" x2="68.6" y2="53.49" gradientUnits="userSpaceOnUse"><stop offset="0" stop-color="#008fff" stop-opacity="0"/><stop offset="0.01" stop-color="#008efe" stop-opacity="0.02"/><stop offset="0.16" stop-color="#008efd" stop-opacity="0.25"/><stop offset="0.31" stop-color="#008dfc" stop-opacity="0.45"/><stop offset="0.46" stop-color="#008cfa" stop-opacity="0.61"/><stop offset="0.61" stop-color="#008cfa" stop-opacity="0.74"/><stop offset="0.75" stop-color="#008cf9" stop-opacity="0.83"/><stop offset="0.88" stop-color="#008cf9" stop-opacity="0.88"/><stop offset="1" stop-color="#018cf9"/></linearGradient><clipPath id="clip-path"><path class="cls-1" d="M11.85,72.17a1.77,1.77,0,0,1-1.78-1.78A24.4,24.4,0,0,1,34.44,46a22,22,0,0,1,8.77,1.76,1.78,1.78,0,1,1-1.34,3.3l-.06,0a17.72,17.72,0,0,0-7.35-1.47A20.84,20.84,0,0,0,13.63,70.39,1.78,1.78,0,0,1,11.85,72.17Z"/></clipPath></defs><g id="Laag_2" data-name="Laag 2"><g id="Laag_1-2" data-name="Laag 1"><g id="Path_81" data-name="Path 81"><path class="cls-2" d="M28.85,76.48a1.76,1.76,0,0,1-1.33-.6,1.78,1.78,0,0,1,.15-2.51L47.53,55.72a4.13,4.13,0,0,1,5.35-.14l8.69,7a.61.61,0,0,0,.78,0L78.64,47.3a1.78,1.78,0,1,1,2.43,2.6L64.78,65.11a4.18,4.18,0,0,1-5.43.21l-8.7-7a.59.59,0,0,0-.76,0L30,76A1.78,1.78,0,0,1,28.85,76.48Z"/></g><g id="Path_82" data-name="Path 82"><path class="cls-3" d="M80.32,58.81a1.62,1.62,0,0,1-1.62-1.62V49.32H70.83a1.62,1.62,0,1,1,0-3.23h9.49a1.61,1.61,0,0,1,1.61,1.61v9.49A1.61,1.61,0,0,1,80.32,58.81Z"/></g><g id="Group_51-2" data-name="Group 51-2"><g id="Path_85" data-name="Path 85"><g class="cls-4"><path class="cls-3" d="M10.07,46v0Z"/><rect class="cls-3" x="10.07" y="46" width="0.17" height="26.18"/><rect class="cls-5" x="10.24" y="46" width="0.17" height="26.18"/><rect class="cls-5" x="10.41" y="46" width="2.6" height="26.18"/><rect class="cls-6" x="13.01" y="46" width="2.6" height="26.18"/><rect class="cls-6" x="15.62" y="46" width="2.6" height="26.18"/><rect class="cls-7" x="18.22" y="46" width="2.6" height="26.18"/><rect class="cls-7" x="20.82" y="46" width="2.55" height="26.18"/><rect class="cls-8" x="23.37" y="46" width="2.55" height="26.18"/><rect class="cls-8" x="25.93" y="46" width="5" height="26.18"/><rect class="cls-8" x="30.93" y="46" width="2.4" height="26.18"/><rect class="cls-9" x="33.32" y="46" width="2.4" height="26.18"/><rect class="cls-9" x="35.72" y="46" width="4.56" height="26.18"/><rect class="cls-9" x="40.28" y="46" width="2.02" height="26.18"/><rect class="cls-10" x="42.3" y="46" width="2.02" height="26.18"/><rect class="cls-10" x="44.32" y="46" width="0.24" height="26.18"/></g></g></g><g id="Group_53" data-name="Group 53"><g id="Path_87" data-name="Path 87"><path class="cls-3" d="M34.45,62.33a1.62,1.62,0,0,1-1.61-1.62V54.26a1.62,1.62,0,1,1,3.23,0v6.45A1.62,1.62,0,0,1,34.45,62.33Z"/></g></g><g id="Group_54" data-name="Group 54"><g id="Path_88" data-name="Path 88"><path class="cls-3" d="M34.45,44.57A14.53,14.53,0,1,1,49,30.05,14.52,14.52,0,0,1,34.45,44.57Zm0-25.82a11.3,11.3,0,1,0,11.3,11.3h0A11.31,11.31,0,0,0,34.45,18.75Z"/></g></g><g id="Group_55" data-name="Group 55"><g id="Path_89" data-name="Path 89"><path class="cls-3" d="M40,31.66h-.18a17.86,17.86,0,0,1-16-10,1.61,1.61,0,0,1,2.91-1.4,14.61,14.61,0,0,0,13.07,8.19H40a13.92,13.92,0,0,0,6.51-1.62A1.62,1.62,0,0,1,48,29.68h0A17.13,17.13,0,0,1,40,31.66Z"/></g></g><rect class="cls-1" width="92" height="92"/></g></g></svg>