<svg xmlns="http://www.w3.org/2000/svg" xmlns:xlink="http://www.w3.org/1999/xlink" width="92" height="92" viewBox="0 0 92 92"><defs><style>.a{fill:url(#a);}.b{fill:#008fff;}.c{fill:none;}</style><linearGradient id="a" y1="0.5" x2="1" y2="0.5" gradientUnits="objectBoundingBox"><stop offset="0" stop-color="#008fff" stop-opacity="0"/><stop offset="0.01" stop-color="#008efe" stop-opacity="0.016"/><stop offset="0.162" stop-color="#008efd" stop-opacity="0.247"/><stop offset="0.314" stop-color="#008dfc" stop-opacity="0.447"/><stop offset="0.463" stop-color="#008cfa" stop-opacity="0.608"/><stop offset="0.609" stop-color="#008cfa" stop-opacity="0.737"/><stop offset="0.749" stop-color="#008cf9" stop-opacity="0.827"/><stop offset="0.882" stop-color="#008cf9" stop-opacity="0.882"/><stop offset="1" stop-color="#018cf9" stop-opacity="0.898"/></linearGradient></defs><g transform="translate(-229 -1642)"><g transform="translate(26.027 192.715)"><path class="a" d="M207.973,1526.971a2,2,0,0,1-2-2,27.432,27.432,0,0,1,27.4-27.4,24.625,24.625,0,0,1,9.858,1.976,2,2,0,1,1-1.573,3.677,20.081,20.081,0,0,0-8.267-1.653,23.431,23.431,0,0,0-23.419,23.4A2,2,0,0,1,207.973,1526.971Z"/><path class="b" d="M240.646,1526.786H218.87a1.815,1.815,0,0,1,0-3.629h21.776a1.815,1.815,0,0,1,0,3.629Z"/><path class="b" d="M233.388,1515.9a1.814,1.814,0,0,1-1.814-1.814v-7.257a1.814,1.814,0,1,1,3.629,0v7.257A1.815,1.815,0,0,1,233.388,1515.9Z"/><path class="b" d="M233.388,1495.943a16.329,16.329,0,1,1,16.33-16.329A16.347,16.347,0,0,1,233.388,1495.943Zm0-29.029a12.7,12.7,0,1,0,12.7,12.7A12.713,12.713,0,0,0,233.388,1466.914Z"/><path class="b" d="M239.612,1481.429h-.2a20.067,20.067,0,0,1-17.94-11.252,1.814,1.814,0,1,1,3.265-1.582,16.424,16.424,0,0,0,14.694,9.206h.16a15.665,15.665,0,0,0,7.318-1.812,1.814,1.814,0,0,1,1.7,3.207A19.293,19.293,0,0,1,239.612,1481.429Z"/><path class="b" d="M280.547,1526.786H240.632a1.815,1.815,0,0,1-1.722-2.389l10.073-30.176a5.436,5.436,0,0,1,5.163-3.721h32.267a5.444,5.444,0,0,1,5.163,7.162l-9.308,27.884A1.815,1.815,0,0,1,280.547,1526.786Zm-37.4-3.629h36.089l8.894-26.642a1.76,1.76,0,0,0,.092-.571,1.811,1.811,0,0,0-1.813-1.815H254.147a1.81,1.81,0,0,0-1.721,1.241h0ZM250.7,1494.8h0Z"/><path class="b" d="M267.846,1511.364a2.721,2.721,0,1,1,2.722-2.721A2.725,2.725,0,0,1,267.846,1511.364Z"/></g><rect class="c" width="92" height="92" transform="translate(229 1642)"/></g></svg>