<svg xmlns="http://www.w3.org/2000/svg" xmlns:xlink="http://www.w3.org/1999/xlink" width="92" height="92" viewBox="0 0 92 92"><defs><style>.a{fill:#008fff;}.b{fill:url(#a);}.c{fill:none;}</style><linearGradient id="a" y1="0.5" x2="1" y2="0.5" gradientUnits="objectBoundingBox"><stop offset="0" stop-color="#008fff" stop-opacity="0"/><stop offset="0.01" stop-color="#008efe" stop-opacity="0.016"/><stop offset="0.162" stop-color="#008efd" stop-opacity="0.247"/><stop offset="0.314" stop-color="#008dfc" stop-opacity="0.447"/><stop offset="0.463" stop-color="#008cfa" stop-opacity="0.608"/><stop offset="0.609" stop-color="#008cfa" stop-opacity="0.737"/><stop offset="0.749" stop-color="#008cf9" stop-opacity="0.827"/><stop offset="0.882" stop-color="#008cf9" stop-opacity="0.882"/><stop offset="1" stop-color="#018cf9" stop-opacity="0.898"/></linearGradient></defs><g transform="translate(-826 -1642)"><g transform="translate(320.028 1211.38)"><path class="a" d="M535.848,478.271A13.155,13.155,0,1,1,549,465.116,13.17,13.17,0,0,1,535.848,478.271Zm0-22.681a9.527,9.527,0,1,0,9.527,9.526A9.536,9.536,0,0,0,535.848,455.59Z"/><path class="a" d="M547.19,466.931H535.849a1.815,1.815,0,0,1-1.814-1.815V453.775a1.815,1.815,0,0,1,3.629,0V463.3h9.526a1.814,1.814,0,0,1,0,3.629Z"/><path class="a" d="M542.328,512.3a1.815,1.815,0,0,1-1.421-2.942,20.67,20.67,0,0,0,4.47-11.921,1.815,1.815,0,0,1,3.625.173,24.291,24.291,0,0,1-5.251,14A1.806,1.806,0,0,1,542.328,512.3Z"/><path class="a" d="M561.773,512.3a1.808,1.808,0,0,1-1.423-.688,24.291,24.291,0,0,1-5.251-14,1.815,1.815,0,0,1,3.625-.173,20.677,20.677,0,0,0,4.47,11.921,1.815,1.815,0,0,1-1.421,2.942Z"/><path class="a" d="M566.629,512.3H537.466a1.814,1.814,0,0,1,0-3.629h29.163a1.814,1.814,0,0,1,0,3.629Z"/><path class="a" d="M589.315,489.614H514.786a1.815,1.815,0,0,1,0-3.629h74.529a1.815,1.815,0,0,1,0,3.629Z"/><path class="a" d="M586.075,499.335H518.026a5.06,5.06,0,0,1-5.054-5.055V445.675a5.06,5.06,0,0,1,5.054-5.055h68.049a5.06,5.06,0,0,1,5.054,5.055V494.28A5.06,5.06,0,0,1,586.075,499.335Zm-68.049-55.086a1.427,1.427,0,0,0-1.425,1.426V494.28a1.427,1.427,0,0,0,1.425,1.426h68.049a1.427,1.427,0,0,0,1.425-1.426V445.675a1.427,1.427,0,0,0-1.425-1.426Z"/><path class="b" d="M571.75,464.691l-9.641-8.032-3.6,4.8a2,2,0,0,1-3.2-2.4l6.124-8.164,9.8,8.167,6.82-8.185a2,2,0,0,1,3.073,2.561Z"/><path class="a" d="M576.353,479.893a1.815,1.815,0,0,1-1.814-1.815v-4.86a1.814,1.814,0,1,1,3.628,0v4.86A1.815,1.815,0,0,1,576.353,479.893Z"/><path class="a" d="M569.873,479.893a1.815,1.815,0,0,1-1.814-1.815V471.6a1.814,1.814,0,1,1,3.628,0v6.48A1.815,1.815,0,0,1,569.873,479.893Z"/><path class="a" d="M563.392,479.893a1.815,1.815,0,0,1-1.814-1.815v-9.721a1.814,1.814,0,0,1,3.629,0v9.721A1.816,1.816,0,0,1,563.392,479.893Z"/><path class="a" d="M556.911,479.893a1.815,1.815,0,0,1-1.814-1.815v-4.86a1.815,1.815,0,1,1,3.629,0v4.86A1.816,1.816,0,0,1,556.911,479.893Z"/></g><rect class="c" width="92" height="92" transform="translate(826 1642)"/></g></svg>