<svg xmlns="http://www.w3.org/2000/svg" viewBox="0 0 41.92 12.073">
  <path id="BBC"
        d="M-377.287-59.55c0 1.312-1.616 1.234-1.616 1.234h-1.616v-2.371h1.616c1.663-.011 1.616 1.137 1.616 1.137m-3.231-4.752h1.231c1.278.068 1.23 1.03 1.23 1.03 0 1.2-1.414 1.215-1.414 1.215h-1.048zm2.932 2.711a1.925 1.925 0 0 0 1.1-1.739s.168-2.07-2.546-2.322h-3.011v8.677h3.452s2.884.009 2.884-2.448a2.248 2.248 0 0 0-1.875-2.168m-7.794-5.762h12.676v12.073h-12.679zm-6.528 7.8c0 1.312-1.616 1.234-1.616 1.234h-1.616v-2.371h1.616c1.663-.011 1.616 1.137 1.616 1.137m-3.231-4.752h1.231c1.278.068 1.23 1.03 1.23 1.03 0 1.2-1.414 1.215-1.414 1.215h-1.048zm2.933 2.711a1.925 1.925 0 0 0 1.1-1.739s.168-2.07-2.546-2.322h-3.012v8.677h3.452s2.884.009 2.884-2.448a2.248 2.248 0 0 0-1.875-2.168M-400-67.353h12.679v12.073H-400zm39.334 2.322v1.6a7.187 7.187 0 0 0-3.26-.981 3.212 3.212 0 0 0-3.337 3.092s-.115 2.9 3.3 3.068a5.578 5.578 0 0 0 3.375-1.078v1.66a6.784 6.784 0 0 1-5.626.36 4.386 4.386 0 0 1-2.635-4.01 4.42 4.42 0 0 1 3.279-4.21 6.02 6.02 0 0 1 2.528-.194 9.116 9.116 0 0 1 2.376.69m-10.092 9.751h12.679v-12.07h-12.679z"
        transform="translate(400 67.353)"/>
</svg>
