<svg xmlns="http://www.w3.org/2000/svg" width="25.754" height="32.532" viewBox="0 0 25.754 32.532"><g transform="translate(-2.501)"><path d="M25.08,11.19l2.1-2.1a1.355,1.355,0,1,0-1.917-1.917L23.093,9.344a12.806,12.806,0,0,0-6.361-2.5V2.711h2.711a1.355,1.355,0,0,0,0-2.711H11.31a1.355,1.355,0,1,0,0,2.711h2.711V6.849A12.877,12.877,0,1,0,25.08,11.186Zm-9.7,18.629A10.166,10.166,0,1,1,25.542,19.654,10.166,10.166,0,0,1,15.376,29.82Z" fill="#008eff"/><path d="M9.814,10.4A1.355,1.355,0,1,0,7.9,12.315l4.744,4.744a1.374,1.374,0,0,0,1.917,0,1.355,1.355,0,0,0,0-1.917Z" transform="translate(1.777 3.555)" fill="#008eff"/></g></svg>