<svg xmlns="http://www.w3.org/2000/svg" width="28.419" height="28.119" viewBox="0 0 28.419 28.119"><g transform="translate(-0.125 -0.25)"><path d="M23.458,21.006a4.487,4.487,0,1,1,0-8.974h2.692a.3.3,0,0,0,.3-.3V8.741A2.991,2.991,0,0,0,23.458,5.75H3.116A2.991,2.991,0,0,0,.125,8.741V24.3a2.991,2.991,0,0,0,2.991,2.991H23.458A2.991,2.991,0,0,0,26.45,24.3V21.306a.3.3,0,0,0-.3-.3Z" transform="translate(0 1.081)" fill="#008eff"/><path d="M23.657,12.5h-3.59a2.692,2.692,0,0,0,0,5.385h3.59a1.8,1.8,0,0,0,1.5-1.795V14.295a1.8,1.8,0,0,0-1.5-1.795Z" transform="translate(3.391 2.408)" fill="#008eff"/><path d="M22.673,1.358A1.46,1.46,0,0,0,20.879.3L5.476,4.446a.3.3,0,0,0,.078.588l17.662.026a.3.3,0,0,0,.291-.372Z" transform="translate(1.009 0)" fill="#008eff"/></g></svg>