<svg xmlns="http://www.w3.org/2000/svg" xmlns:xlink="http://www.w3.org/1999/xlink" width="174.563" height="39.808" viewBox="0 0 174.563 39.808">
  <defs>
    <clipPath id="clip-path">
      <rect id="Rectangle_7088" data-name="Rectangle 7088" width="124.732" height="21.852" fill="#fff"/>
    </clipPath>
  </defs>
  <g id="Group_26091" data-name="Group 26091" transform="translate(-82.17 -47)">
    <g id="Screen_Shot_2022-08-04_at_02" data-name="Screen Shot 2022-08-04 at 02" transform="translate(22.881 4.611)">
      <g id="Group_26083" data-name="Group 26083">
        <g id="_fe59f7ff" data-name="#fe59f7ff" transform="translate(67.023 42.389)">
          <path id="Path_73477" data-name="Path 73477" d="M100.32,46.573a19.325,19.325,0,0,1,10.318-4.149,22.867,22.867,0,0,1,5.83.315,19.738,19.738,0,0,1,11.5,6.94,19.448,19.448,0,0,1,4.439,12.8,18.726,18.726,0,0,1-2.243,9.066,10.48,10.48,0,0,1-.746,1.11c-.17-3.513-.008-7.04-.085-10.557a12.878,12.878,0,0,0-.684-3.749,6.372,6.372,0,0,0-3.44-3.229,6.051,6.051,0,0,0-5.945.746c-.305.188-.556.522-.935.547s-.658-.281-.956-.464a5.959,5.959,0,0,0-5.193-1.042,7.053,7.053,0,0,0-3.242,1.883,9.166,9.166,0,0,0-3.423-1.738,19.082,19.082,0,0,0-2.8-.017c-.812.136-1.538.594-2.367.669C100.316,52.663,100.36,49.617,100.32,46.573Z" transform="translate(-100.32 -42.389)" fill="#fff"/>
        </g>
        <g id="_80f7feff" data-name="#80f7feff" transform="translate(59.289 51.609)">
          <path id="Path_73478" data-name="Path 73478" d="M59.365,99.157a18.362,18.362,0,0,1,2.918-7.847c.092,3.986-.023,7.975.064,11.959A8.15,8.15,0,0,0,65.09,108.6a8.365,8.365,0,0,0,4.693,1.958,8.157,8.157,0,0,0,8.122-5.44c.709-1.721-.113-3.664.63-5.376a2.267,2.267,0,0,1,2.009-1.327,2.327,2.327,0,0,1,2.126,2.243c-.006,3.189.009,6.382-.008,9.573,1.47-.006,2.944,0,4.416,0-.009-2.808,0-5.617-.008-8.423a8.282,8.282,0,0,1,.188-1.8,2.169,2.169,0,0,1,3.992-.29,6.077,6.077,0,0,1,.279,2.471q0,7.538,0,15.075c.074.443-.324.7-.626.937a20.784,20.784,0,0,1-9.8,3.675c-1.259.036-2.52.034-3.779,0a20.093,20.093,0,0,1-17.991-17.427C59.279,102.685,59.26,100.917,59.365,99.157Z" transform="translate(-59.29 -91.31)" fill="#fff"/>
          <path id="Path_73479" data-name="Path 73479" d="M101.705,132.226a4.164,4.164,0,0,1,2.863.352,3.944,3.944,0,0,1,1.743,3.5,3.526,3.526,0,0,1-6.961.548,4.171,4.171,0,0,1,.286-2.554A3.789,3.789,0,0,1,101.705,132.226Z" transform="translate(-91.746 -124.447)" fill="#fff"/>
        </g>
      </g>
    </g>
    <g id="Group_26090" data-name="Group 26090" transform="translate(132 55.978)">
      <g id="Group_26089" data-name="Group 26089" clip-path="url(#clip-path)">
        <path id="Path_73480" data-name="Path 73480" d="M0,21.852V0H9.732a4.629,4.629,0,0,1,3.409,1.443,4.7,4.7,0,0,1,1.428,3.423V6.06A4.55,4.55,0,0,1,13.36,9.426a5.994,5.994,0,0,1-3.628,1.5A4.428,4.428,0,0,1,13.36,12.4a5.2,5.2,0,0,1,1.209,3.4v1.195a4.7,4.7,0,0,1-1.428,3.424,4.633,4.633,0,0,1-3.409,1.442ZM4.866,9.7H7.284a2.359,2.359,0,0,0,1.733-.713,2.326,2.326,0,0,0,.714-1.705V4.866A2.439,2.439,0,0,0,7.284,2.418H4.866Zm0,9.732H7.284a2.334,2.334,0,0,0,1.733-.728,2.372,2.372,0,0,0,.714-1.719V14.568A2.151,2.151,0,0,0,7.284,12.15H4.866Z" fill="#fff"/>
        <path id="Path_73481" data-name="Path 73481" d="M15.778,0h4.866V2.418H15.778Zm0,4.866h4.866V21.852H15.778Z" transform="translate(4.21)" fill="#fff"/>
        <path id="Path_73482" data-name="Path 73482" d="M26.32,0h4.837V4.866H33.6V7.284H31.157v9.7a2.191,2.191,0,0,0,.787,1.822,2.387,2.387,0,0,0,1.428.626H33.6v2.418H31.157a4.875,4.875,0,0,1-4.837-4.866v-9.7H23.873V4.866H26.32Z" transform="translate(6.369)" fill="#fff"/>
        <path id="Path_73483" data-name="Path 73483" d="M50.379,20.828H45.543V8.678a2.328,2.328,0,0,0-.714-1.705A2.361,2.361,0,0,0,43.1,6.259a2.435,2.435,0,0,0-2.418,2.418v12.15H35.811V3.841h4.866V6.259a2.947,2.947,0,0,1,.758-1.822,2.273,2.273,0,0,1,1.661-.6h2.447A4.093,4.093,0,0,1,49.185,5.56a3.566,3.566,0,0,1,1.486-1.3,5.031,5.031,0,0,1,2.156-.423h2.418a4.7,4.7,0,0,1,3.423,1.428,4.636,4.636,0,0,1,1.443,3.409v12.15H55.245V8.678a2.336,2.336,0,0,0-.716-1.69,2.3,2.3,0,0,0-1.7-.728,2.373,2.373,0,0,0-1.72.713,2.3,2.3,0,0,0-.727,1.705Z" transform="translate(9.555 1.025)" fill="#fff"/>
        <path id="Path_73484" data-name="Path 73484" d="M73.815,13.543h-9.7v2.418a2.37,2.37,0,0,0,.713,1.719,2.3,2.3,0,0,0,1.705.728h2.447A2.15,2.15,0,0,0,71.4,15.962h2.418q-.553,4.866-4.837,4.866H64.113a4.9,4.9,0,0,1-4.866-4.866V8.678a4.635,4.635,0,0,1,1.442-3.409,4.706,4.706,0,0,1,3.424-1.428h4.866a4.653,4.653,0,0,1,3.409,1.428,4.655,4.655,0,0,1,1.428,3.409Zm-9.7-2.418h4.866V8.678a2.325,2.325,0,0,0-.714-1.7,2.36,2.36,0,0,0-1.733-.714,2.437,2.437,0,0,0-2.418,2.418Z" transform="translate(15.808 1.025)" fill="#fff"/>
        <path id="Path_73485" data-name="Path 73485" d="M77.472,0h4.837V4.866h2.447V7.284H82.309v9.7a2.191,2.191,0,0,0,.787,1.822,2.387,2.387,0,0,0,1.428.626h.233v2.418H82.309a4.875,4.875,0,0,1-4.837-4.866v-9.7H75.025V4.866h2.447Z" transform="translate(20.017)" fill="#fff"/>
        <path id="Path_73486" data-name="Path 73486" d="M96.694,11.125V8.678a2.332,2.332,0,0,0-.713-1.705,2.366,2.366,0,0,0-1.734-.713H91.828q-2.157,0-2.418,2.418H86.962q.583-4.836,4.866-4.837h4.866A4.653,4.653,0,0,1,100.1,5.269a4.655,4.655,0,0,1,1.428,3.409v12.15H96.694V18.409q-.291,2.419-2.447,2.418H91.828a4.9,4.9,0,0,1-4.866-4.866A4.631,4.631,0,0,1,88.4,12.553a4.7,4.7,0,0,1,3.423-1.428Zm0,2.418H94.246a2.437,2.437,0,0,0-2.418,2.418,2.372,2.372,0,0,0,.714,1.719,2.3,2.3,0,0,0,1.7.728,2.342,2.342,0,0,0,1.734-.728,2.375,2.375,0,0,0,.713-1.719Z" transform="translate(23.202 1.025)" fill="#fff"/>
      </g>
    </g>
  </g>
</svg>
