<svg xmlns="http://www.w3.org/2000/svg" xmlns:xlink="http://www.w3.org/1999/xlink" width="163.83" height="41.808" viewBox="0 0 163.83 41.808">
  <defs>
    <linearGradient id="linear-gradient" x1="0.5" x2="0.5" y2="0.908" gradientUnits="objectBoundingBox">
      <stop offset="0" stop-color="#0093e9"/>
      <stop offset="1" stop-color="#80d0c7"/>
    </linearGradient>
  </defs>
  <g id="Group_26088" data-name="Group 26088" transform="translate(-82.17 -45)">
    <text id="Bitmeta" transform="translate(195 76)" fill="#fff" font-size="29" font-family="SegoeUI, Segoe UI" letter-spacing="0.02em"><tspan x="-50.84" y="0">Bitmeta</tspan></text>
    <g id="Screen_Shot_2022-08-04_at_02" data-name="Screen Shot 2022-08-04 at 02" transform="translate(22.881 4.611)">
      <g id="Group_26083" data-name="Group 26083">
        <g id="_fe59f7ff" data-name="#fe59f7ff" transform="translate(67.023 42.389)">
          <path id="Path_73477" data-name="Path 73477" d="M100.32,46.573a19.325,19.325,0,0,1,10.318-4.149,22.867,22.867,0,0,1,5.83.315,19.738,19.738,0,0,1,11.5,6.94,19.448,19.448,0,0,1,4.439,12.8,18.726,18.726,0,0,1-2.243,9.066,10.48,10.48,0,0,1-.746,1.11c-.17-3.513-.008-7.04-.085-10.557a12.878,12.878,0,0,0-.684-3.749,6.372,6.372,0,0,0-3.44-3.229,6.051,6.051,0,0,0-5.945.746c-.305.188-.556.522-.935.547s-.658-.281-.956-.464a5.959,5.959,0,0,0-5.193-1.042,7.053,7.053,0,0,0-3.242,1.883,9.166,9.166,0,0,0-3.423-1.738,19.082,19.082,0,0,0-2.8-.017c-.812.136-1.538.594-2.367.669C100.316,52.663,100.36,49.617,100.32,46.573Z" transform="translate(-100.32 -42.389)" fill="url(#linear-gradient)"/>
        </g>
        <g id="_80f7feff" data-name="#80f7feff" transform="translate(59.289 51.609)">
          <path id="Path_73478" data-name="Path 73478" d="M59.365,99.157a18.362,18.362,0,0,1,2.918-7.847c.092,3.986-.023,7.975.064,11.959A8.15,8.15,0,0,0,65.09,108.6a8.365,8.365,0,0,0,4.693,1.958,8.157,8.157,0,0,0,8.122-5.44c.709-1.721-.113-3.664.63-5.376a2.267,2.267,0,0,1,2.009-1.327,2.327,2.327,0,0,1,2.126,2.243c-.006,3.189.009,6.382-.008,9.573,1.47-.006,2.944,0,4.416,0-.009-2.808,0-5.617-.008-8.423a8.282,8.282,0,0,1,.188-1.8,2.169,2.169,0,0,1,3.992-.29,6.077,6.077,0,0,1,.279,2.471q0,7.538,0,15.075c.074.443-.324.7-.626.937a20.784,20.784,0,0,1-9.8,3.675c-1.259.036-2.52.034-3.779,0a20.093,20.093,0,0,1-17.991-17.427C59.279,102.685,59.26,100.917,59.365,99.157Z" transform="translate(-59.29 -91.31)" fill="url(#linear-gradient)"/>
          <path id="Path_73479" data-name="Path 73479" d="M101.705,132.226a4.164,4.164,0,0,1,2.863.352,3.944,3.944,0,0,1,1.743,3.5,3.526,3.526,0,0,1-6.961.548,4.171,4.171,0,0,1,.286-2.554A3.789,3.789,0,0,1,101.705,132.226Z" transform="translate(-91.746 -124.447)" fill="url(#linear-gradient)"/>
        </g>
      </g>
    </g>
  </g>
</svg>
