<svg xmlns="http://www.w3.org/2000/svg" xmlns:xlink="http://www.w3.org/1999/xlink" width="1160.883" height="886.842" viewBox="0 0 1160.883 886.842"><defs><style>.a{opacity:0.3;}.b{fill:url(#a);}.c{fill:url(#b);}.d{fill:url(#c);}</style><linearGradient id="a" x1="0.5" y1="0.979" x2="0.5" y2="0.443" gradientUnits="objectBoundingBox"><stop offset="0" stop-color="#008fff" stop-opacity="0"/><stop offset="1" stop-color="#008fff" stop-opacity="0.898"/></linearGradient><linearGradient id="b" x1="0.5" y1="0.983" x2="0.5" y2="0.546" xlink:href="#a"/><linearGradient id="c" x1="0.5" y1="0.973" x2="0.5" y2="0.276" xlink:href="#a"/></defs><g class="a" transform="translate(-205.117 -1969.616)"><path class="b" d="M438.069,2856.457H369.322V2294.32c0-88.593,72.074-160.662,160.662-160.662H1366v68.747H529.984a92.021,92.021,0,0,0-91.915,91.915Z"/><path class="c" d="M1366,2038.364H511.055c-130.788,0-237.19,106.407-237.19,237.19v580.9H205.117v-580.9c0-168.7,137.246-305.938,305.938-305.938H1366"/><path class="d" d="M581.573,2856.458H535.117V2299.778H1366v68.748H603.864v487.932"/></g></svg>