<?xml version="1.0" standalone="no"?>
<!DOCTYPE svg PUBLIC "-//W3C//DTD SVG 20010904//EN"
 "http://www.w3.org/TR/2001/REC-SVG-20010904/DTD/svg10.dtd">
<svg version="1.0" xmlns="http://www.w3.org/2000/svg"
 width="700.000000pt" height="700.000000pt" viewBox="0 0 700.000000 700.000000"
 preserveAspectRatio="xMidYMid meet">
<metadata>
Created by potrace 1.11, written by Peter Selinger 2001-2013
</metadata>
<g transform="translate(0.000000,700.000000) scale(0.100000,-0.100000)"
fill="#000000" stroke="none">
<path d="M2939 6996 c-2 -2 -44 -7 -93 -11 -49 -4 -98 -8 -110 -10 -11 -2 -39
-6 -61 -10 -92 -14 -113 -17 -170 -30 -33 -8 -72 -16 -87 -19 -16 -4 -39 -8
-52 -11 -21 -4 -165 -48 -261 -80 -155 -50 -430 -180 -590 -278 -251 -153
-478 -341 -701 -578 -107 -114 -354 -448 -354 -478 0 -5 -3 -11 -7 -13 -17 -7
-156 -276 -209 -405 -59 -142 -138 -381 -159 -479 -2 -10 -10 -50 -18 -89 -16
-71 -18 -87 -36 -210 -6 -38 -14 -90 -18 -115 -4 -25 -8 -975 -10 -2111 l-4
-2066 353 1 353 1 1 2010 c1 1106 4 2035 8 2065 4 30 9 69 11 85 12 105 19
143 46 253 34 139 63 232 107 342 198 495 559 918 1017 1192 219 131 515 248
714 283 19 3 37 7 40 9 3 2 24 7 46 10 126 20 166 26 225 32 64 7 3331 13
3360 6 13 -3 15 -190 14 -1655 -1 -909 -4 -1681 -8 -1717 -10 -104 -45 -298
-67 -380 -11 -41 -21 -82 -23 -90 -38 -152 -157 -415 -269 -595 -210 -336
-503 -621 -847 -821 -82 -48 -113 -64 -245 -124 -149 -68 -407 -146 -543 -165
-20 -3 -46 -7 -57 -10 -11 -2 -48 -7 -82 -11 l-63 -6 0 1096 0 1096 587 2 587
3 1 340 c0 187 -1 345 -2 350 -2 7 -318 10 -926 9 -507 -1 -929 -2 -937 -3
-13 -1 -15 -208 -15 -1803 l0 -1803 335 0 c359 0 447 5 635 36 157 25 389 80
455 106 8 3 20 7 25 9 17 4 159 55 180 64 11 5 45 19 75 31 308 126 672 365
925 609 82 79 220 224 255 270 14 18 30 37 36 44 31 33 173 232 222 311 62
101 178 321 212 405 12 30 26 64 31 75 62 141 147 432 178 615 19 113 21 124
26 170 3 25 8 61 12 80 3 19 8 965 10 2103 l4 2067 -2029 0 c-1116 0 -2031 -2
-2033 -4z"/>
<path d="M3228 5315 c-2 -1 -32 -5 -68 -9 -420 -39 -816 -251 -1095 -586 -62
-74 -185 -256 -185 -273 0 -5 -10 -23 -22 -40 -13 -18 -21 -32 -19 -32 2 0 -4
-18 -14 -40 -56 -130 -106 -299 -120 -405 -3 -25 -9 -58 -12 -75 -7 -31 -12
-3808 -5 -3837 3 -15 36 -16 353 -16 l349 1 1 1876 c0 1032 2 1887 5 1901 2
14 6 36 8 50 51 334 317 636 649 739 133 41 168 42 1204 42 760 0 1003 3 1004
12 0 7 1 165 2 352 l1 340 -1017 1 c-559 1 -1018 0 -1019 -1z"/>
</g>
</svg>
