<?xml version="1.0" encoding="UTF-8"?>
<svg xmlns="http://www.w3.org/2000/svg" xmlns:xlink="http://www.w3.org/1999/xlink" width="799pt" height="219pt" viewBox="0 0 799 219" version="1.1">
<g id="surface1">
<path style=" stroke:none;fill-rule:nonzero;fill:rgb(13.72549%,31.372549%,66.27451%);fill-opacity:1;" d="M 177.632812 69.707031 L 122.929688 69.707031 C 122.929688 60.730469 121.875 54.703125 119.777344 51.636719 C 116.519531 47.097656 107.535156 44.824219 92.828125 44.824219 C 78.546875 44.824219 69.078125 46.132812 64.457031 48.75 C 59.839844 51.375 57.527344 57.082031 57.527344 65.871094 C 57.527344 73.824219 59.578125 79.066406 63.679688 81.574219 C 66.617188 83.355469 70.503906 84.402344 75.34375 84.714844 L 86.375 85.496094 C 110.019531 87.066406 124.789062 88.171875 130.675781 88.800781 C 149.375 90.683594 162.929688 95.65625 171.339844 103.71875 C 177.960938 110.003906 181.90625 118.222656 183.167969 128.371094 C 183.902344 134.441406 184.269531 141.3125 184.269531 148.945312 C 184.269531 166.539062 182.589844 179.421875 179.230469 187.585938 C 173.136719 202.570312 159.457031 212.03125 138.164062 216.003906 C 129.246094 217.6875 115.601562 218.527344 97.246094 218.527344 C 66.609375 218.527344 45.257812 216.703125 33.203125 213.035156 C 18.40625 208.546875 8.652344 199.445312 3.933594 185.746094 C 1.300781 178.117188 0 165.417969 0 147.636719 L 54.703125 147.636719 C 54.703125 149.621094 54.710938 151.132812 54.710938 152.179688 C 54.710938 161.667969 57.4375 167.769531 62.882812 170.488281 C 66.652344 172.363281 71.207031 173.347656 76.558594 173.464844 L 96.671875 173.464844 C 106.933594 173.464844 113.484375 172.9375 116.308594 171.882812 C 121.339844 169.90625 124.640625 166.722656 126.214844 162.316406 C 127.054688 159.601562 127.46875 156.09375 127.46875 151.796875 C 127.46875 142.175781 123.960938 136.324219 116.945312 134.222656 C 114.324219 133.394531 102.125 132.238281 80.355469 130.773438 C 62.867188 129.523438 50.722656 128.324219 43.921875 127.160156 C 26.011719 123.808594 14.078125 116.917969 8.121094 106.457031 C 2.882812 97.566406 0.265625 84.117188 0.265625 66.128906 C 0.265625 52.425781 1.679688 41.441406 4.511719 33.175781 C 7.34375 24.910156 11.902344 18.632812 18.199219 14.34375 C 27.421875 7.753906 39.21875 3.886719 53.585938 2.730469 C 65.539062 1.6875 78.796875 1.15625 93.378906 1.15625 C 116.339844 1.15625 132.703125 2.476562 142.457031 5.09375 C 166.261719 11.488281 178.164062 29.410156 178.164062 58.855469 C 178.164062 61.269531 177.988281 64.882812 177.632812 69.707031 "/>
<path style=" stroke:none;fill-rule:nonzero;fill:rgb(13.72549%,31.372549%,66.27451%);fill-opacity:1;" d="M 477.003906 111.414062 L 513.660156 111.414062 C 525.285156 110.996094 532.355469 110.101562 534.898438 108.703125 C 538.375 106.792969 540.707031 102.964844 541.867188 97.226562 C 542.609375 93.40625 542.980469 87.722656 542.980469 80.183594 C 542.980469 70.9375 542.242188 64.085938 540.761719 59.613281 C 538.648438 53.347656 533.582031 49.527344 525.558594 48.140625 C 523.972656 47.933594 520.175781 47.820312 514.15625 47.820312 L 477.003906 47.820312 Z M 418.199219 218.527344 L 418.199219 0 L 527.753906 0 C 542.78125 0 554.25 1.226562 562.125 3.679688 C 580.144531 9.328125 592.234375 20.886719 598.429688 38.363281 C 601.625 47.53125 603.222656 61.339844 603.222656 79.773438 C 603.222656 101.941406 601.449219 117.871094 597.941406 127.570312 C 590.914062 146.75 576.449219 157.796875 554.609375 160.65625 C 552.039062 161.089844 541.113281 161.472656 521.824219 161.78125 L 512.058594 162.105469 L 477.003906 162.105469 L 477.003906 218.527344 L 418.199219 218.527344 "/>
<path style=" stroke:none;fill-rule:nonzero;fill:rgb(13.72549%,31.372549%,66.27451%);fill-opacity:1;" d="M 717.066406 138.1875 L 689.515625 43.460938 L 662.777344 138.1875 Z M 728.746094 180.757812 L 650.125 180.757812 L 639.5625 218.527344 L 578.722656 218.527344 L 644.371094 0 L 733.070312 0 L 799.523438 218.527344 L 739.964844 218.527344 L 728.746094 180.757812 "/>
<path style=" stroke:none;fill-rule:nonzero;fill:rgb(98.431373%,73.72549%,3.529412%);fill-opacity:1;" d="M 337.039062 30.746094 C 361.292969 30.746094 382.9375 41.917969 397.167969 59.421875 L 409.84375 32.242188 C 390.019531 13.5 363.035156 1.945312 333.277344 1.945312 C 286.941406 1.945312 247.308594 29.933594 231.039062 69.550781 L 206.324219 69.550781 L 191.726562 100.847656 L 223.527344 100.847656 C 223.285156 103.75 223.132812 106.65625 223.132812 109.617188 C 223.132812 113.207031 223.320312 116.75 223.675781 120.253906 L 207.691406 120.253906 L 193.101562 151.554688 L 231.796875 151.554688 C 248.53125 190.171875 287.667969 217.285156 333.277344 217.285156 C 356.261719 217.285156 377.589844 210.394531 395.246094 198.628906 L 395.246094 160.265625 C 381.027344 176.460938 360.226562 186.691406 337.039062 186.691406 C 309.933594 186.691406 286.089844 172.710938 272.207031 151.554688 L 353.238281 151.554688 L 367.832031 120.253906 L 260.28125 120.253906 C 259.726562 116.484375 259.429688 112.636719 259.429688 108.714844 C 259.429688 106.0625 259.570312 103.4375 259.824219 100.847656 L 376.875 100.847656 L 391.46875 69.550781 L 269.945312 69.550781 C 283.386719 46.355469 308.394531 30.746094 337.039062 30.746094 "/>
<path style=" stroke:none;fill-rule:nonzero;fill:rgb(13.72549%,31.372549%,66.27451%);fill-opacity:1;" d="M 269.945312 70.492188 L 391.46875 70.492188 L 390.617188 69.15625 L 376.03125 100.449219 L 376.875 99.910156 L 258.976562 99.910156 L 258.886719 100.761719 C 258.625 103.402344 258.492188 106.078125 258.492188 108.714844 C 258.492188 112.589844 258.785156 116.519531 259.355469 120.394531 L 259.476562 121.195312 L 367.832031 121.195312 L 366.984375 119.859375 L 352.390625 151.15625 L 353.238281 150.617188 L 270.464844 150.617188 L 271.421875 152.0625 C 286.023438 174.339844 310.554688 187.617188 337.039062 187.617188 C 359.550781 187.617188 381.027344 177.878906 395.957031 160.882812 L 394.308594 160.265625 L 394.308594 198.628906 L 394.722656 197.855469 C 376.566406 209.949219 355.324219 216.34375 333.277344 216.34375 C 289.300781 216.34375 249.808594 190.765625 232.664062 151.179688 L 232.414062 150.617188 L 193.101562 150.617188 L 193.960938 151.957031 L 208.546875 120.648438 L 207.691406 121.195312 L 224.707031 121.195312 L 224.605469 120.15625 C 224.25 116.621094 224.070312 113.066406 224.070312 109.617188 C 224.070312 106.964844 224.199219 104.121094 224.460938 100.929688 L 224.542969 99.910156 L 191.726562 99.910156 L 192.574219 101.25 L 207.171875 69.949219 L 206.324219 70.492188 L 231.671875 70.492188 L 231.90625 69.910156 C 239.9375 50.351562 253.601562 33.675781 271.40625 21.671875 C 289.648438 9.386719 311.046875 2.890625 333.277344 2.890625 C 361.75 2.890625 388.707031 13.550781 409.195312 32.917969 L 408.984375 31.835938 L 396.316406 59.027344 L 397.894531 58.832031 C 382.894531 40.382812 360.71875 29.804688 337.039062 29.804688 C 309.183594 29.804688 283.171875 44.855469 269.128906 69.082031 L 268.3125 70.492188 Z M 337.039062 31.679688 C 360.148438 31.679688 381.796875 42.011719 396.433594 60.015625 L 397.382812 61.179688 L 398.023438 59.824219 L 410.691406 32.636719 L 410.976562 32.023438 L 410.488281 31.554688 C 389.652344 11.855469 362.230469 1.007812 333.277344 1.007812 C 310.667969 1.007812 288.914062 7.617188 270.359375 20.121094 C 252.242188 32.324219 238.34375 49.296875 230.179688 69.195312 L 231.039062 68.609375 L 205.722656 68.609375 L 205.46875 69.15625 L 190.878906 100.449219 L 190.257812 101.789062 L 223.527344 101.789062 L 222.589844 100.773438 C 222.320312 104.019531 222.195312 106.90625 222.195312 109.617188 C 222.195312 113.132812 222.371094 116.746094 222.734375 120.34375 L 223.675781 119.320312 L 207.097656 119.320312 L 206.847656 119.859375 L 192.25 151.15625 L 191.632812 152.492188 L 231.796875 152.492188 L 230.9375 151.925781 C 248.382812 192.195312 288.554688 218.222656 333.277344 218.222656 C 355.695312 218.222656 377.300781 211.722656 395.765625 199.414062 L 396.183594 199.136719 L 396.183594 157.773438 L 394.542969 159.648438 C 379.972656 176.234375 359.011719 185.746094 337.039062 185.746094 C 311.1875 185.746094 287.242188 172.769531 272.988281 151.035156 L 272.207031 152.492188 L 353.839844 152.492188 L 354.089844 151.957031 L 368.683594 120.648438 L 369.308594 119.320312 L 260.28125 119.320312 L 261.214844 120.117188 C 260.660156 116.328125 260.371094 112.496094 260.371094 108.714844 C 260.371094 106.140625 260.503906 103.527344 260.761719 100.941406 L 259.824219 101.789062 L 377.484375 101.789062 L 377.730469 101.25 L 392.320312 69.949219 L 392.949219 68.609375 L 269.945312 68.609375 L 270.753906 70.023438 C 284.457031 46.375 309.859375 31.679688 337.039062 31.679688 "/>
</g>
</svg>
