<svg xmlns="http://www.w3.org/2000/svg" xmlns:xlink="http://www.w3.org/1999/xlink" width="338.253" height="257.602" viewBox="0 0 338.253 257.602"><defs><clipPath id="a"><rect width="338.253" height="257.602" transform="translate(0 0)" fill="#fff" stroke="#707070" stroke-width="1"/></clipPath><linearGradient id="b" x1="0.5" y1="0.979" x2="0.5" y2="0.443" gradientUnits="objectBoundingBox"><stop offset="0" stop-color="#008fff" stop-opacity="0"/><stop offset="1" stop-color="#008fff" stop-opacity="0.898"/></linearGradient><linearGradient id="c" x1="0.5" y1="0.983" x2="0.5" y2="0.546" xlink:href="#b"/><linearGradient id="d" x1="0.5" y1="0.973" x2="0.5" y2="0.276" xlink:href="#b"/></defs><g clip-path="url(#a)"><g transform="translate(44.167 23.731)" opacity="0.14"><g transform="translate(41.598 41.557)"><path d="M386.738,2316.764H369.322V2174.358a40.746,40.746,0,0,1,40.7-40.7H621.81v17.416H410.022a23.311,23.311,0,0,0-23.285,23.285Z" transform="translate(-369.322 -2133.658)" fill="url(#b)"/></g><g transform="translate(0 0)"><path d="M499.2,1987.032H282.62a60.156,60.156,0,0,0-60.087,60.087v147.16H205.117v-147.16a77.591,77.591,0,0,1,77.5-77.5H499.2" transform="translate(-205.117 -1969.616)" fill="url(#c)"/><path d="M546.886,2440.8H535.117V2299.778H745.6v17.416H552.532V2440.8" transform="translate(-451.518 -2216.138)" fill="url(#d)"/></g></g></g></svg>