<svg xmlns="http://www.w3.org/2000/svg" width="79.058" height="69.176" viewBox="0 0 79.058 69.176"><g transform="translate(-1081 -2160.824)"><path d="M9.882,70.676H69.176a9.882,9.882,0,0,0,9.882-9.882V24.559a9.882,9.882,0,0,0-9.882-9.882H56.329a.825.825,0,0,1-.817-.721l-.474-3.8a9.88,9.88,0,0,0-9.8-8.657H33.817a9.885,9.885,0,0,0-9.806,8.657l-.474,3.8a.823.823,0,0,1-.807.721H9.882A9.882,9.882,0,0,0,0,24.559V60.794A9.882,9.882,0,0,0,9.882,70.676Zm20.664-59.7a3.294,3.294,0,0,1,3.271-2.886H45.241a3.294,3.294,0,0,1,3.271,2.886l.346,2.78a.821.821,0,0,1-.718.916l-.1.007H31.017a.824.824,0,0,1-.824-.824l.007-.1Z" transform="translate(1081 2159.324)" fill="#188ffc"/><g transform="translate(661.002 90.454)"><g transform="translate(451.669 2104.771)"><path d="M197.795,68.328h-3.211v-16.7a7.512,7.512,0,0,1,7.5-7.5h8.789v3.21h-8.789a4.3,4.3,0,0,0-4.293,4.293Z" transform="translate(-194.584 -44.125)" fill="#fff"/></g><g transform="translate(444 2097.11)"><path d="M198.741,62.584h-2.17V46.132h8.55v3.211h-5.339v9.983A11.093,11.093,0,0,0,209.818,48.3V33.924H195.447A11.09,11.09,0,0,0,184.37,45V62.577h-3.211V45a14.3,14.3,0,0,1,14.288-14.288h17.581V48.3A14.3,14.3,0,0,1,198.741,62.584Z" transform="translate(-181.159 -30.713)" fill="#fff"/></g></g></g></svg>