<svg xmlns="http://www.w3.org/2000/svg" xmlns:xlink="http://www.w3.org/1999/xlink" viewBox="0 0 92 92"><defs><style>.cls-1{fill:url(#Naamloos_verloop_2);}.cls-2{fill:#008fff;}.cls-3,.cls-4{fill:none;}.cls-4{stroke:#008fff;stroke-linecap:round;stroke-miterlimit:10;stroke-width:3.4px;}</style><linearGradient id="Naamloos_verloop_2" x1="25.48" y1="68.38" x2="45.59" y2="50.44" gradientUnits="userSpaceOnUse"><stop offset="0" stop-color="#008fff" stop-opacity="0"/><stop offset="0.01" stop-color="#008efe" stop-opacity="0.02"/><stop offset="0.16" stop-color="#008efd" stop-opacity="0.25"/><stop offset="0.31" stop-color="#008dfc" stop-opacity="0.45"/><stop offset="0.46" stop-color="#008cfa" stop-opacity="0.61"/><stop offset="0.61" stop-color="#008cfa" stop-opacity="0.74"/><stop offset="0.75" stop-color="#008cf9" stop-opacity="0.83"/><stop offset="0.88" stop-color="#008cf9" stop-opacity="0.88"/><stop offset="1" stop-color="#018cf9" stop-opacity="0.9"/></linearGradient></defs><g id="Laag_2" data-name="Laag 2"><g id="Laag_1-2" data-name="Laag 1"><g id="hyperlink-3"><g id="Path_197" data-name="Path 197"><path class="cls-1" d="M29.26,78.64a10.74,10.74,0,0,1-7.64-3.16l-2.19-2.19a10.83,10.83,0,0,1,0-15.27L33.66,43.8a10.81,10.81,0,0,1,15.27,0L51.12,46,49,48.13l-2.18-2.19a7.78,7.78,0,0,0-11,0L21.58,60.16a7.78,7.78,0,0,0,0,11l2.18,2.19a7.79,7.79,0,0,0,11,0l9.85-9.85,2.14,2.14-9.85,9.85A10.73,10.73,0,0,1,29.26,78.64Z"/></g><g id="Path_198" data-name="Path 198"><path class="cls-2" d="M47.85,60a10.75,10.75,0,0,1-7.63-3.16L38,54.69l2.15-2.14,2.18,2.19a7.79,7.79,0,0,0,11,0L67.57,40.51a7.77,7.77,0,0,0,0-11l-2.18-2.19a7.78,7.78,0,0,0-11,0l-9.85,9.85L42.41,35l9.85-9.84A10.72,10.72,0,0,1,59.89,22h0a10.72,10.72,0,0,1,7.64,3.16l2.18,2.19a10.8,10.8,0,0,1,0,15.26L55.49,56.88A10.78,10.78,0,0,1,47.85,60Z"/></g></g><rect class="cls-3" width="92" height="92"/><line class="cls-4" x1="28.88" y1="20.1" x2="28.88" y2="24.96"/><line class="cls-4" x1="28.88" y1="33.54" x2="28.88" y2="38.41"/><line class="cls-4" x1="19.73" y1="29.25" x2="24.59" y2="29.25"/><line class="cls-4" x1="33.17" y1="29.25" x2="38.03" y2="29.25"/></g></g></svg>