<svg xmlns="http://www.w3.org/2000/svg" xmlns:xlink="http://www.w3.org/1999/xlink" viewBox="0 0 92 92"><defs><style>.cls-1,.cls-3{fill:none;}.cls-1{stroke:#008fff;stroke-miterlimit:10;stroke-width:3.62px;}.cls-2{fill:url(#Naamloos_verloop_48);}</style><linearGradient id="Naamloos_verloop_48" x1="46" y1="15.92" x2="46" y2="47.82" gradientUnits="userSpaceOnUse"><stop offset="0" stop-color="#008fff" stop-opacity="0"/><stop offset="1" stop-color="#018cf9"/></linearGradient></defs><g id="Laag_2" data-name="Laag 2"><g id="Laag_1-2" data-name="Laag 1"><path class="cls-1" d="M23.5,51.73,13.22,69.35c-.4.68-.08,1.13.7,1l9.62-1.63,3.33,9.17c.27.73.82.79,1.23.11l8.78-14.75"/><path class="cls-1" d="M68.5,51.73,78.78,69.35c.4.68.08,1.13-.7,1l-9.62-1.63-3.33,9.17c-.27.73-.82.79-1.23.11L55.12,63.25"/><path class="cls-2" d="M46,66.72a27.6,27.6,0,1,1,27.6-27.6A27.63,27.63,0,0,1,46,66.72Zm0-51.58a24,24,0,1,0,24,24A24,24,0,0,0,46,15.14Z"/><path class="cls-1" d="M62.91,58.18l-11.18-4.8V47.65s2.48-1,2.48-7.16c2,0,2.7-5.73,0-5.73A7.53,7.53,0,0,0,55.45,29C54,23.3,40.17,23.3,38.77,29c-5.92-1.23-1.21,4.9-1.21,5.73-2.81,0-2.81,5.73,0,5.73,0,6.16,2.71,7.16,2.71,7.16v5.73l-11.18,4.8"/><rect class="cls-3" width="92" height="92"/></g></g></svg>