<svg xmlns="http://www.w3.org/2000/svg" xmlns:xlink="http://www.w3.org/1999/xlink" viewBox="0 0 92 92"><defs><style>.cls-1,.cls-3,.cls-4{fill:none;}.cls-1{stroke:#008fff;stroke-linecap:round;}.cls-1,.cls-3{stroke-miterlimit:10;stroke-width:3.55px;}.cls-2{fill:#008fff;}.cls-3{stroke:url(#Naamloos_verloop_2);}</style><linearGradient id="Naamloos_verloop_2" x1="11.9" y1="65.52" x2="35.01" y2="65.52" gradientUnits="userSpaceOnUse"><stop offset="0" stop-color="#008fff" stop-opacity="0"/><stop offset="0.01" stop-color="#008efe" stop-opacity="0.02"/><stop offset="0.16" stop-color="#008efd" stop-opacity="0.25"/><stop offset="0.31" stop-color="#008dfc" stop-opacity="0.45"/><stop offset="0.46" stop-color="#008cfa" stop-opacity="0.61"/><stop offset="0.61" stop-color="#008cfa" stop-opacity="0.74"/><stop offset="0.75" stop-color="#008cf9" stop-opacity="0.83"/><stop offset="0.88" stop-color="#008cf9" stop-opacity="0.88"/><stop offset="1" stop-color="#018cf9" stop-opacity="0.9"/></linearGradient></defs><g id="Laag_2" data-name="Laag 2"><g id="Laag_1-2" data-name="Laag 1"><path class="cls-1" d="M51.62,63.32A23.56,23.56,0,1,1,71.44,52.5"/><g id="Line_14" data-name="Line 14"><path class="cls-2" d="M52.92,44.92H41.07a1.62,1.62,0,0,1,0-3.23H52.92a1.62,1.62,0,0,1,0,3.23Z"/></g><g id="Line_15" data-name="Line 15"><path class="cls-2" d="M52.92,40.18H41.07a1.62,1.62,0,0,1,0-3.23H52.92a1.62,1.62,0,0,1,0,3.23Z"/></g><g id="Path_84" data-name="Path 84"><path class="cls-2" d="M56.52,52.07h0a12.32,12.32,0,0,1,0-24.64A1.58,1.58,0,0,1,58.13,29a1.61,1.61,0,0,1-1.59,1.63,9.1,9.1,0,0,0,0,18.2,1.61,1.61,0,0,1,0,3.22Z"/></g><line class="cls-3" x1="33.76" y1="55.22" x2="13.16" y2="75.82"/><polyline class="cls-1" points="68.57 47.36 68.57 54.11 78.84 54.11"/><rect class="cls-4" width="92" height="92"/></g></g></svg>