<svg xmlns="http://www.w3.org/2000/svg" xmlns:xlink="http://www.w3.org/1999/xlink" viewBox="0 0 92 92"><defs><style>.cls-1,.cls-2,.cls-3,.cls-4,.cls-5{fill:none;}.cls-2,.cls-3{stroke:#008fff;}.cls-2,.cls-3,.cls-4,.cls-5{stroke-linecap:round;stroke-width:3.6px;}.cls-2,.cls-4,.cls-5{stroke-miterlimit:10;}.cls-3{stroke-linejoin:round;}.cls-4{stroke:url(#Naamloos_verloop_7);}.cls-5{stroke:url(#Naamloos_verloop_11);}</style><linearGradient id="Naamloos_verloop_7" x1="67.38" y1="33.48" x2="79.82" y2="33.48" gradientUnits="userSpaceOnUse"><stop offset="0" stop-color="#018cf9"/><stop offset="0.11" stop-color="#018cf9" stop-opacity="0.98"/><stop offset="0.24" stop-color="#018cf9" stop-opacity="0.93"/><stop offset="0.37" stop-color="#018cfa" stop-opacity="0.84"/><stop offset="0.51" stop-color="#018dfb" stop-opacity="0.71"/><stop offset="0.65" stop-color="#018dfc" stop-opacity="0.55"/><stop offset="0.79" stop-color="#008efd" stop-opacity="0.35"/><stop offset="0.93" stop-color="#008ffe" stop-opacity="0.12"/><stop offset="1" stop-color="#008fff" stop-opacity="0"/></linearGradient><linearGradient id="Naamloos_verloop_11" x1="14.74" y1="33.84" x2="27.25" y2="33.84" xlink:href="#Naamloos_verloop_7"/></defs><g id="Laag_2" data-name="Laag 2"><g id="Laag_1-2" data-name="Laag 1"><rect class="cls-1" width="92" height="92"/><path class="cls-2" d="M54.17,62.66a21,21,0,0,0,14.5-3.84c-2.19-2.2-3.7-3.57-4.28-12.08C63.53,34.07,55,29.61,47.65,29.61S31.76,34.07,30.9,46.74c-.58,8.51-2.08,9.87-4.28,12.08A21.11,21.11,0,0,0,41.2,62.66"/><path class="cls-2" d="M65.87,71.27c-2.92-1.2-6.36-2.43-10.1-3.82A2.56,2.56,0,0,1,54.09,65V60.33a2.59,2.59,0,0,1,.83-1.9,9.25,9.25,0,0,0,3-6.92V45.07a16.69,16.69,0,0,1-10.3-5.82,16.74,16.74,0,0,1-10.31,5.82v6.44a9.25,9.25,0,0,0,3,6.92,2.59,2.59,0,0,1,.83,1.9V65a2.56,2.56,0,0,1-1.68,2.41c-3.75,1.39-7.18,2.62-10.09,3.82"/><path class="cls-3" d="M21,40.53l-4.21,4.21a.35.35,0,0,1-.5,0l-4.21-4.21"/><path class="cls-4" d="M69.18,24.36A30.83,30.83,0,0,1,78,42.59"/><path class="cls-5" d="M16.54,43.31a30.81,30.81,0,0,1,8.91-19"/><path class="cls-3" d="M67.77,29.25l-.93-5.87a.35.35,0,0,1,.3-.41L73,22"/></g></g></svg>