<svg width="179" height="60" viewBox="0 0 179 60" fill="none" xmlns="http://www.w3.org/2000/svg">
  <path d="M164.746 7.29297e-05H14.2625C13.714 7.29297e-05 13.172 7.29298e-05 12.6249 0.00307293C12.167 0.00607293 11.7127 0.0147879 11.2503 0.0221229C10.2459 0.0339756 9.24379 0.122587 8.25278 0.287188C7.26316 0.455372 6.30454 0.772447 5.40934 1.22769C4.51523 1.68678 3.69827 2.28332 2.98807 2.99568C2.27415 3.70603 1.67904 4.5271 1.22563 5.42731C0.770964 6.32574 0.455698 7.28848 0.290719 8.28229C0.124172 9.27485 0.0345518 10.2789 0.0226622 11.2853C0.00878066 11.7452 0.00731473 12.2066 0 12.6666V47.338C0.00731473 47.8037 0.00878066 48.2549 0.0226622 48.7208C0.0345555 49.7272 0.124176 50.7312 0.290719 51.7237C0.455242 52.7181 0.770527 53.6814 1.22563 54.5801C1.67884 55.4774 2.27403 56.2952 2.98807 57.0016C3.69557 57.7171 4.51307 58.314 5.40934 58.7696C6.30453 59.2261 7.26305 59.545 8.25278 59.7158C9.24396 59.8791 10.2459 59.9678 11.2503 59.981C11.7127 59.9912 12.167 59.9971 12.6249 59.9971C13.172 60.0001 13.714 60.0001 14.2625 60.0001H164.746C165.283 60.0001 165.829 60.0001 166.367 59.9971C166.823 59.9971 167.29 59.9912 167.746 59.981C168.749 59.9685 169.749 59.8798 170.738 59.7158C171.731 59.5438 172.693 59.225 173.592 58.7696C174.488 58.3138 175.304 57.7168 176.011 57.0016C176.723 56.2924 177.32 55.4753 177.779 54.5801C178.23 53.6807 178.543 52.7175 178.705 51.7237C178.872 50.731 178.964 49.7273 178.982 48.7208C178.988 48.2549 178.988 47.8037 178.988 47.338C179 46.793 179 46.2511 179 45.6973V14.3043C179 13.755 179 13.21 178.988 12.6666C178.988 12.2066 178.988 11.7452 178.982 11.2852C178.964 10.2787 178.872 9.27493 178.705 8.28223C178.542 7.289 178.23 6.32633 177.779 5.42725C176.855 3.62287 175.391 2.15411 173.592 1.22755C172.693 0.773424 171.731 0.456434 170.738 0.287053C169.749 0.121727 168.749 0.0330846 167.746 0.0219129C167.29 0.0145929 166.823 0.00580293 166.367 0.00287793C165.829 -0.00012207 165.283 -0.00012207 164.746 -0.00012207V7.29297e-05Z"
        fill="#A6A6A6"/>
  <path d="M12.6322 58.6875C12.1765 58.6875 11.7317 58.6816 11.2796 58.6714C10.3428 58.6592 9.40829 58.5774 8.4836 58.4268C7.62138 58.2779 6.78611 58.0009 6.00536 57.6049C5.23177 57.2123 4.52619 56.6974 3.91565 56.08C3.29628 55.47 2.78062 54.7624 2.38912 53.9853C1.9933 53.2032 1.71937 52.3648 1.57687 51.4995C1.42298 50.5697 1.33972 49.6295 1.32781 48.687C1.31832 48.3707 1.30591 47.3174 1.30591 47.3174V12.6665C1.30591 12.6665 1.31913 11.6294 1.32788 11.3247C1.33929 10.3837 1.42206 9.44498 1.57549 8.51659C1.71825 7.64888 1.9924 6.80812 2.38843 6.02344C2.77849 5.24692 3.29129 4.53879 3.90693 3.92652C4.52188 3.30843 5.22972 2.79091 6.00463 2.39281C6.78358 1.99814 7.61727 1.7231 8.47775 1.57691C9.40548 1.42475 10.3433 1.34249 11.2832 1.33082L12.633 1.3125H166.36L167.726 1.33155C168.657 1.34265 169.586 1.42417 170.506 1.57543C171.375 1.72346 172.217 2.00042 173.005 2.39721C174.557 3.19948 175.821 4.46874 176.617 6.02711C177.007 6.80637 177.277 7.64026 177.418 8.50048C177.573 9.43649 177.66 10.3826 177.678 11.3313C177.682 11.7561 177.682 12.2124 177.682 12.6665C177.694 13.229 177.694 13.7644 177.694 14.3042V45.6972C177.694 46.2421 177.694 46.7739 177.682 47.31C177.682 47.7978 177.682 48.2446 177.676 48.7046C177.659 49.6363 177.574 50.5655 177.421 51.4848C177.281 52.3564 177.009 53.2013 176.613 53.9898C176.219 54.7584 175.706 55.4599 175.094 56.0683C174.483 56.689 173.776 57.2069 173.001 57.6021C172.215 58.0011 171.374 58.2791 170.506 58.4268C169.581 58.5782 168.646 58.66 167.709 58.6714C167.271 58.6816 166.813 58.6875 166.367 58.6875L164.746 58.6905L12.6322 58.6875Z"
        fill="black"/>
  <path d="M37.0506 30.4511C37.0667 29.1991 37.3984 27.9715 38.0147 26.8826C38.631 25.7937 39.512 24.8788 40.5757 24.223C39.9 23.2553 39.0085 22.4589 37.9722 21.897C36.9358 21.3352 35.7831 21.0234 34.6055 20.9865C32.0936 20.7221 29.6584 22.4937 28.3784 22.4937C27.0736 22.4937 25.1028 21.0127 22.9806 21.0565C21.6079 21.101 20.2701 21.5013 19.0975 22.2184C17.925 22.9355 16.9576 23.9449 16.2898 25.1483C13.3968 30.171 15.5547 37.5525 18.326 41.6125C19.7125 43.6005 21.3329 45.8212 23.4532 45.7424C25.528 45.6561 26.3029 44.4157 28.8074 44.4157C31.2887 44.4157 32.0157 45.7424 34.1791 45.6923C36.4055 45.6561 37.8082 43.6955 39.1461 41.6886C40.1423 40.2721 40.9088 38.7065 41.4174 37.0499C40.1239 36.5013 39.0201 35.583 38.2436 34.4096C37.467 33.2361 37.0521 31.8594 37.0506 30.4511Z"
        fill="white"/>
  <path d="M32.9645 18.3164C34.1785 16.8551 34.7765 14.9768 34.6317 13.0804C32.7771 13.2758 31.0639 14.1646 29.8336 15.5699C29.2321 16.2564 28.7714 17.055 28.4778 17.9202C28.1842 18.7853 28.0636 19.7 28.1228 20.6119C29.0504 20.6215 29.9681 20.4199 30.8068 20.0223C31.6455 19.6246 32.3832 19.0414 32.9645 18.3164Z" fill="white"/>
  <path d="M63.278 40.7095H56.1975L54.4972 45.7442H51.4982L58.2047 27.1172H61.3205L68.0271 45.7442H64.9769L63.278 40.7095ZM56.9309 38.3863H62.5433L59.7766 30.2154H59.6991L56.9309 38.3863Z" fill="white"/>
  <path d="M82.5108 38.9547C82.5108 43.1749 80.2583 45.8863 76.859 45.8863C75.9979 45.9315 75.1415 45.7326 74.3879 45.3124C73.6343 44.8921 73.014 44.2676 72.5979 43.5103H72.5336V50.2369H69.7537V32.1636H72.4445V34.4224H72.4956C72.9308 33.6687 73.5617 33.0474 74.321 32.6247C75.0804 32.2019 75.9398 31.9935 76.8079 32.0215C80.2451 32.0216 82.5108 34.7462 82.5108 38.9547ZM79.6535 38.9547C79.6535 36.2052 78.2365 34.3975 76.0746 34.3975C73.9506 34.3975 72.5219 36.2432 72.5219 38.9547C72.5219 41.691 73.9506 43.5235 76.0746 43.5235C78.2365 43.5235 79.6535 41.7291 79.6535 38.9547Z"
        fill="white"/>
  <path d="M97.4168 38.9547C97.4168 43.1749 95.1643 45.8863 91.765 45.8863C90.9039 45.9315 90.0476 45.7326 89.2939 45.3123C88.5403 44.8921 87.92 44.2676 87.5039 43.5103H87.4396V50.2369H84.6597V32.1636H87.3504V34.4224H87.4016C87.8368 33.6687 88.4676 33.0474 89.227 32.6247C89.9863 32.2019 90.8458 31.9935 91.7138 32.0215C95.1511 32.0215 97.4168 34.7461 97.4168 38.9547ZM94.5595 38.9547C94.5595 36.2052 93.1425 34.3975 90.9806 34.3975C88.8566 34.3975 87.4279 36.2432 87.4279 38.9547C87.4279 41.691 88.8566 43.5235 90.9806 43.5235C93.1426 43.5235 94.5595 41.7291 94.5595 38.9547H94.5595Z"
        fill="white"/>
  <path d="M107.268 40.5543C107.474 42.4015 109.264 43.6143 111.709 43.6143C114.052 43.6143 115.738 42.4014 115.738 40.7359C115.738 39.29 114.721 38.4243 112.314 37.8311L109.907 37.2495C106.496 36.4233 104.912 34.8237 104.912 32.228C104.912 29.0142 107.705 26.8066 111.671 26.8066C115.596 26.8066 118.287 29.0142 118.378 32.228H115.572C115.404 30.3691 113.871 29.2471 111.632 29.2471C109.392 29.2471 107.86 30.3823 107.86 32.0347C107.86 33.3516 108.839 34.1265 111.233 34.7197L113.28 35.2236C117.091 36.1274 118.674 37.6626 118.674 40.3872C118.674 43.872 115.906 46.0546 111.503 46.0546C107.384 46.0546 104.602 43.9233 104.423 40.5541L107.268 40.5543Z"
        fill="white"/>
  <path d="M124.674 28.9498V32.1637H127.249V34.3712H124.674V41.858C124.674 43.0211 125.189 43.5631 126.322 43.5631C126.627 43.5578 126.933 43.5362 127.236 43.4986V45.6929C126.727 45.7883 126.21 45.8315 125.692 45.8219C122.95 45.8219 121.881 44.7891 121.881 42.1553V34.3712H119.912V32.1637H121.881V28.9498H124.674Z" fill="white"/>
  <path d="M128.741 38.9547C128.741 34.6818 131.25 31.9967 135.164 31.9967C139.09 31.9967 141.588 34.6817 141.588 38.9547C141.588 43.2394 139.104 45.9127 135.164 45.9127C131.225 45.9127 128.741 43.2394 128.741 38.9547ZM138.756 38.9547C138.756 36.0236 137.416 34.2936 135.164 34.2936C132.911 34.2936 131.573 36.0367 131.573 38.9547C131.573 41.8976 132.911 43.6144 135.164 43.6144C137.416 43.6144 138.756 41.8976 138.756 38.9547H138.756Z" fill="white"/>
  <path d="M143.88 32.1636H146.532V34.4751H146.596C146.775 33.7532 147.197 33.1152 147.79 32.6684C148.384 32.2216 149.112 31.9931 149.853 32.0215C150.174 32.0204 150.493 32.0553 150.806 32.1255V34.733C150.402 34.609 149.98 34.5521 149.557 34.5645C149.153 34.5481 148.75 34.6195 148.377 34.7738C148.003 34.9281 147.667 35.1617 147.392 35.4586C147.117 35.7554 146.909 36.1085 146.782 36.4935C146.656 36.8785 146.614 37.2863 146.66 37.689V45.7442H143.88L143.88 32.1636Z" fill="white"/>
  <path d="M163.623 41.7555C163.249 44.2208 160.855 45.9127 157.792 45.9127C153.852 45.9127 151.406 43.2657 151.406 39.0192C151.406 34.7594 153.865 31.9967 157.675 31.9967C161.422 31.9967 163.778 34.5778 163.778 38.6954V39.6505H154.213V39.819C154.168 40.3188 154.231 40.8223 154.396 41.296C154.56 41.7698 154.824 42.203 155.168 42.5668C155.513 42.9306 155.931 43.2167 156.394 43.4062C156.858 43.5957 157.356 43.6841 157.856 43.6656C158.513 43.7274 159.172 43.5748 159.735 43.2306C160.299 42.8865 160.737 42.3691 160.983 41.7555L163.623 41.7555ZM154.226 37.7023H160.996C161.021 37.2529 160.954 36.8032 160.797 36.3813C160.64 35.9595 160.398 35.5747 160.087 35.2511C159.775 34.9274 159.399 34.6719 158.984 34.5006C158.569 34.3293 158.123 34.2458 157.675 34.2555C157.222 34.2528 156.773 34.34 156.354 34.5121C155.935 34.6842 155.555 34.9378 155.234 35.2583C154.913 35.5787 154.659 35.9597 154.486 36.3792C154.313 36.7986 154.225 37.2483 154.226 37.7023V37.7023Z"
        fill="white"/>
  <path d="M56.5825 13.0965C57.1653 13.0545 57.7501 13.1428 58.2948 13.355C58.8394 13.5671 59.3304 13.8978 59.7321 14.3233C60.1339 14.7487 60.4365 15.2583 60.6181 15.8152C60.7997 16.3721 60.8558 16.9624 60.7823 17.5437C60.7823 20.4031 59.2411 22.0467 56.5825 22.0467H53.3585V13.0965H56.5825ZM54.7448 20.781H56.4276C56.8441 20.8059 57.2609 20.7375 57.6476 20.5805C58.0343 20.4236 58.3813 20.1822 58.6633 19.8738C58.9452 19.5655 59.1551 19.198 59.2775 18.798C59.4 18.3981 59.432 17.9758 59.3711 17.562C59.4275 17.1497 59.3923 16.7301 59.268 16.3331C59.1437 15.9361 58.9333 15.5716 58.652 15.2657C58.3707 14.9598 58.0253 14.7201 57.6408 14.5637C57.2562 14.4073 56.842 14.3382 56.4276 14.3613H54.7448V20.781Z"
        fill="white"/>
  <path d="M62.3483 18.6666C62.3059 18.2227 62.3566 17.7748 62.4969 17.3517C62.6373 16.9286 62.8643 16.5396 63.1634 16.2096C63.4625 15.8797 63.827 15.616 64.2337 15.4356C64.6403 15.2552 65.0801 15.162 65.5248 15.162C65.9694 15.162 66.4092 15.2552 66.8159 15.4356C67.2225 15.616 67.5871 15.8797 67.8862 16.2096C68.1852 16.5396 68.4122 16.9286 68.5526 17.3517C68.693 17.7748 68.7436 18.2227 68.7013 18.6666C68.7444 19.1109 68.6944 19.5594 68.5544 19.9831C68.4144 20.4069 68.1875 20.7967 67.8884 21.1273C67.5892 21.4579 67.2244 21.7221 66.8173 21.9029C66.4103 22.0837 65.97 22.1771 65.5248 22.1771C65.0796 22.1771 64.6393 22.0837 64.2322 21.9029C63.8252 21.7221 63.4604 21.4579 63.1612 21.1273C62.862 20.7967 62.6352 20.4069 62.4952 19.9831C62.3552 19.5594 62.3051 19.1109 62.3483 18.6666ZM67.334 18.6666C67.334 17.2024 66.6781 16.3463 65.527 16.3463C64.3715 16.3463 63.7215 17.2025 63.7215 18.6666C63.7215 20.1424 64.3715 20.992 65.527 20.992C66.6781 20.992 67.334 20.1365 67.334 18.6666H67.334Z"
        fill="white"/>
  <path d="M77.1461 22.0466H75.7671L74.375 17.072H74.2698L72.8835 22.0466H71.5177L69.661 15.2922H71.0093L72.2159 20.4462H72.3153L73.7001 15.2922H74.9754L76.3602 20.4462H76.4654L77.6662 15.2922H78.9955L77.1461 22.0466Z" fill="white"/>
  <path d="M80.557 15.2923H81.8367V16.3653H81.936C82.1045 15.9799 82.3887 15.6569 82.749 15.4411C83.1094 15.2254 83.5278 15.1278 83.9461 15.1619C84.2738 15.1372 84.6029 15.1868 84.9089 15.3069C85.215 15.4271 85.4901 15.6147 85.7141 15.856C85.938 16.0972 86.1049 16.3859 86.2024 16.7007C86.2999 17.0154 86.3256 17.3481 86.2775 17.6741V22.0466H84.9482V18.0089C84.9482 16.9234 84.4778 16.3836 83.4947 16.3836C83.2722 16.3732 83.05 16.4112 82.8435 16.4949C82.637 16.5787 82.451 16.7062 82.2982 16.8688C82.1455 17.0314 82.0296 17.2252 81.9585 17.4368C81.8874 17.6485 81.8628 17.8732 81.8863 18.0953V22.0467H80.557L80.557 15.2923Z"
        fill="white"/>
  <path d="M88.3956 12.6555H89.725V22.0466H88.3956V12.6555Z" fill="white"/>
  <path d="M91.5729 18.6666C91.5305 18.2227 91.5812 17.7748 91.7216 17.3517C91.862 16.9285 92.0891 16.5395 92.3882 16.2095C92.6873 15.8795 93.0519 15.6159 93.4586 15.4355C93.8652 15.2551 94.305 15.1619 94.7497 15.1619C95.1944 15.1619 95.6342 15.2551 96.0409 15.4355C96.4476 15.6159 96.8121 15.8795 97.1113 16.2095C97.4104 16.5395 97.6374 16.9285 97.7778 17.3517C97.9182 17.7748 97.9689 18.2227 97.9266 18.6666C97.9697 19.1109 97.9196 19.5594 97.7796 19.9832C97.6395 20.407 97.4126 20.7967 97.1134 21.1273C96.8142 21.4579 96.4494 21.7221 96.0423 21.9029C95.6352 22.0837 95.1949 22.1771 94.7497 22.1771C94.3045 22.1771 93.8642 22.0837 93.4571 21.9029C93.0501 21.7221 92.6852 21.4579 92.386 21.1273C92.0868 20.7967 91.8599 20.407 91.7199 19.9832C91.5798 19.5594 91.5298 19.1109 91.5729 18.6666ZM96.5585 18.6666C96.5585 17.2025 95.9026 16.3463 94.7515 16.3463C93.5961 16.3463 92.946 17.2025 92.946 18.6666C92.946 20.1424 93.5961 20.992 94.7515 20.992C95.9026 20.992 96.5585 20.1365 96.5585 18.6666H96.5585Z"
        fill="white"/>
  <path d="M99.326 20.1365C99.326 18.9206 100.229 18.2197 101.831 18.1201L103.656 18.0146V17.4316C103.656 16.7183 103.185 16.3154 102.277 16.3154C101.535 16.3154 101.021 16.5886 100.873 17.0662H99.5861C99.7219 15.906 100.81 15.1619 102.338 15.1619C104.027 15.1619 104.979 16.0049 104.979 17.4316V22.0466H103.7V21.0974H103.594C103.381 21.4379 103.081 21.7155 102.726 21.9018C102.37 22.0881 101.972 22.1765 101.571 22.1579C101.289 22.1874 101.003 22.1572 100.732 22.0691C100.462 21.9811 100.213 21.8372 100.001 21.6467C99.7899 21.4563 99.6205 21.2235 99.5042 20.9633C99.3878 20.7032 99.3272 20.4215 99.326 20.1365ZM103.656 19.5593V18.9946L102.011 19.1001C101.083 19.1623 100.663 19.4787 100.663 20.0742C100.663 20.6821 101.189 21.0359 101.912 21.0359C102.124 21.0574 102.338 21.0359 102.541 20.9728C102.744 20.9096 102.933 20.8061 103.096 20.6684C103.259 20.5306 103.392 20.3614 103.488 20.1709C103.584 19.9804 103.641 19.7724 103.656 19.5593Z"
        fill="white"/>
  <path d="M106.726 18.6665C106.726 16.5323 107.821 15.1802 109.522 15.1802C109.943 15.1607 110.361 15.2619 110.727 15.4717C111.093 15.6815 111.391 15.9914 111.588 16.3652H111.687V12.6555H113.017V22.0466H111.743V20.9795H111.638C111.426 21.3507 111.117 21.6568 110.744 21.8645C110.371 22.0722 109.949 22.1737 109.522 22.1579C107.809 22.158 106.726 20.8059 106.726 18.6665ZM108.1 18.6665C108.1 20.0991 108.773 20.9612 109.899 20.9612C111.02 20.9612 111.712 20.0867 111.712 18.6724C111.712 17.2647 111.012 16.3777 109.899 16.3777C108.78 16.3777 108.1 17.2456 108.1 18.6665H108.1Z"
        fill="white"/>
  <path d="M118.516 18.6666C118.474 18.2227 118.525 17.7748 118.665 17.3517C118.806 16.9286 119.033 16.5396 119.332 16.2096C119.631 15.8797 119.995 15.616 120.402 15.4356C120.809 15.2552 121.248 15.162 121.693 15.162C122.138 15.162 122.577 15.2552 122.984 15.4356C123.391 15.616 123.755 15.8797 124.054 16.2096C124.353 16.5396 124.58 16.9286 124.721 17.3517C124.861 17.7748 124.912 18.2227 124.869 18.6666C124.913 19.1109 124.863 19.5594 124.723 19.9831C124.583 20.4069 124.356 20.7967 124.057 21.1273C123.757 21.4579 123.393 21.7221 122.986 21.9029C122.578 22.0837 122.138 22.1771 121.693 22.1771C121.248 22.1771 120.808 22.0837 120.4 21.9029C119.993 21.7221 119.629 21.4579 119.329 21.1273C119.03 20.7967 118.803 20.4069 118.663 19.9831C118.523 19.5594 118.473 19.1109 118.516 18.6666ZM123.502 18.6666C123.502 17.2024 122.846 16.3463 121.695 16.3463C120.54 16.3463 119.89 17.2025 119.89 18.6666C119.89 20.1424 120.54 20.992 121.695 20.992C122.846 20.992 123.502 20.1365 123.502 18.6666Z"
        fill="white"/>
  <path d="M126.653 15.2923H127.933V16.3653H128.032C128.201 15.9799 128.485 15.6569 128.845 15.4411C129.206 15.2254 129.624 15.1278 130.042 15.1619C130.37 15.1372 130.699 15.1868 131.005 15.3069C131.311 15.4271 131.586 15.6147 131.81 15.856C132.034 16.0972 132.201 16.3859 132.299 16.7007C132.396 17.0154 132.422 17.3481 132.374 17.6741V22.0466H131.044V18.0089C131.044 16.9234 130.574 16.3836 129.591 16.3836C129.368 16.3732 129.146 16.4112 128.94 16.4949C128.733 16.5787 128.547 16.7062 128.394 16.8688C128.242 17.0314 128.126 17.2252 128.055 17.4368C127.984 17.6485 127.959 17.8732 127.983 18.0953V22.0467H126.653V15.2923Z"
        fill="white"/>
  <path d="M139.885 13.6106V15.323H141.344V16.4458H139.885V19.919C139.885 20.6265 140.176 20.9363 140.838 20.9363C141.007 20.9357 141.176 20.9255 141.344 20.9055V22.0159C141.106 22.0587 140.864 22.0815 140.621 22.084C139.143 22.084 138.554 21.5625 138.554 20.2602V16.4457H137.485V15.3229H138.554V13.6106H139.885Z" fill="white"/>
  <path d="M143.16 12.6555H144.478V16.3777H144.583C144.76 15.9887 145.052 15.6638 145.419 15.4473C145.787 15.2308 146.212 15.1332 146.637 15.1677C146.963 15.1499 147.289 15.2045 147.591 15.3276C147.894 15.4507 148.166 15.6392 148.387 15.8797C148.609 16.1202 148.775 16.4068 148.873 16.719C148.972 17.0312 149 17.3613 148.957 17.6858V22.0466H147.626V18.0146C147.626 16.9358 147.125 16.3894 146.186 16.3894C145.957 16.3706 145.727 16.4021 145.512 16.4817C145.297 16.5613 145.102 16.687 144.94 16.8501C144.779 17.0132 144.655 17.2097 144.577 17.426C144.499 17.6422 144.469 17.8728 144.49 18.1018V22.0466H143.16L143.16 12.6555Z"
        fill="white"/>
  <path d="M156.708 20.2229C156.527 20.8402 156.136 21.3742 155.602 21.7314C155.069 22.0886 154.427 22.2463 153.789 22.177C153.345 22.1887 152.904 22.1035 152.497 21.9272C152.089 21.7509 151.724 21.4878 151.428 21.1561C151.132 20.8244 150.912 20.432 150.782 20.0063C150.652 19.5806 150.617 19.1316 150.677 18.6907C150.618 18.2483 150.655 17.7984 150.784 17.3714C150.913 16.9444 151.133 16.5503 151.427 16.2157C151.722 15.8811 152.084 15.6138 152.491 15.432C152.897 15.2502 153.338 15.1581 153.783 15.1619C155.657 15.1619 156.788 16.4459 156.788 18.5669V19.032H152.032V19.1067C152.011 19.3546 152.042 19.6041 152.123 19.8392C152.204 20.0743 152.333 20.2899 152.502 20.4721C152.671 20.6542 152.876 20.799 153.104 20.8971C153.331 20.9952 153.577 21.0445 153.825 21.0417C154.143 21.08 154.466 21.0226 154.751 20.8767C155.036 20.7309 155.272 20.5033 155.428 20.2228L156.708 20.2229ZM152.032 18.0461H155.434C155.45 17.8194 155.42 17.5917 155.344 17.3777C155.267 17.1636 155.147 16.9679 154.991 16.8031C154.835 16.6383 154.646 16.5081 154.437 16.4208C154.228 16.3336 154.002 16.2912 153.776 16.2964C153.546 16.2935 153.318 16.3368 153.105 16.4237C152.892 16.5106 152.698 16.6394 152.536 16.8025C152.373 16.9655 152.245 17.1596 152.158 17.3732C152.072 17.5868 152.029 17.8156 152.032 18.0461H152.032Z"
        fill="white"/>
</svg>
